<?xml version="1.0" standalone="no"?><!DOCTYPE svg PUBLIC "-//W3C//DTD SVG 1.1//EN" "http://www.w3.org/Graphics/SVG/1.1/DTD/svg11.dtd">
<svg preserveAspectRatio="xMinYMin meet" width="100%" height="100%" viewBox="0 0 1326.000 563.000"   version="1.1" xmlns="http://www.w3.org/2000/svg" xmlns:xlink="http://www.w3.org/1999/xlink">
  <desc>Matlab Figure Converted by PLOT2SVG written by Juerg Schwizer</desc>
  <rect x="0" y="0" width="1326.000" height="563.000" fill="#ffffff" stroke="none" />
  <g>
  <clipPath id="ID000000">
    <rect x="172.380" y="42.225" width="204.649" height="192.075"/>
  </clipPath>
      <polyline fill="#ffffff" fill-opacity="1.00" stroke="none" stroke-width="0.5pt" stroke-opacity="1.00" stroke-dasharray="none" points="172.380,234.300 377.029,234.300 377.029,42.225 172.380,42.225 "/>
      <polyline fill="#ffffff" fill-opacity="1.00" stroke="none" stroke-width="0.5pt" stroke-opacity="1.00" stroke-dasharray="none" points="172.380,42.225 377.029,42.225 377.029,42.225 172.380,42.225 "/>
      <polyline fill="#ffffff" fill-opacity="1.00" stroke="none" stroke-width="0.5pt" stroke-opacity="1.00" stroke-dasharray="none" points="172.380,234.300 172.380,234.300 172.380,42.225 172.380,42.225 "/>
    <g>
<g clip-path="url(#ID000000)">
<image x="172.380" y="42.225" width="204.649" height="192.075" image-rendering="optimizeSpeed" preserveAspectRatio="none" xlink:href="headToHeadDecoding001.png" />
</g>
<g clip-path="url(#ID000000)">
      <polyline fill="none" stroke="#ffffff" stroke-width="0.5pt" stroke-dasharray="none" points="172.596,59.790 172.936,59.853 173.277,59.853 173.617,59.853 173.957,59.553 174.297,59.490 174.637,59.490 174.978,59.490 175.318,59.490 175.658,59.490 175.998,59.490 176.339,59.789 176.679,59.853 177.019,59.853 177.359,59.853 177.700,59.853 178.040,60.151 178.380,60.216 178.720,60.514 179.060,60.281 179.401,59.918 179.741,59.556 180.081,58.895 180.421,58.170 180.762,57.741 181.102,57.378 181.442,57.015 181.782,56.356 182.123,55.630 182.463,54.904 182.803,54.475 183.143,54.112 183.483,54.045 183.824,54.045 184.164,54.045 184.504,54.045 184.844,54.045 185.185,53.750 185.525,53.682 185.865,53.387 186.205,53.319 186.546,53.024 186.886,52.956 187.226,52.661 187.566,52.593 187.906,52.593 188.247,52.593 188.587,52.299 188.927,51.936 189.267,51.573 189.608,51.210 189.948,50.554 190.288,50.415 190.628,50.122 190.969,50.052 191.309,49.759 191.649,49.396 191.989,49.033 192.329,48.963 192.670,48.378 193.010,47.944 193.350,193.484 193.690,228.650 194.031,228.358 194.371,228.287 194.711,228.287 195.051,227.996 195.392,227.633 195.732,227.270 196.072,226.616 196.412,225.890 196.752,225.455 197.093,225.383 197.433,225.674 197.773,225.746 198.113,225.746 198.454,225.165 198.794,224.440 199.134,223.424 199.474,222.335 199.815,221.247 200.155,220.158 200.495,218.780 200.835,217.618 201.175,215.950 201.516,214.425 201.856,212.974 202.196,211.522 202.536,210.071 202.877,208.619 203.217,207.168 203.557,205.716 203.897,204.265 204.238,203.101 204.578,202.013 204.918,200.924 205.258,200.123 205.598,199.110 205.939,198.021 206.279,196.933 206.619,196.131 206.959,195.693 207.300,195.330 207.640,195.541 207.980,195.617 208.320,195.330 208.661,194.967 209.001,194.604 209.341,193.669 209.681,192.867 210.021,192.141 210.362,191.415 210.702,190.975 211.042,190.612 211.382,189.964 211.723,189.523 212.063,188.875 212.403,188.150 212.743,187.709 213.084,187.346 213.424,186.983 213.764,186.620 214.104,186.542 214.444,186.257 214.785,185.895 215.125,185.532 215.465,185.453 215.805,185.169 216.146,185.374 216.486,185.453 216.826,185.453 217.166,185.453 217.507,185.453 217.847,185.453 218.187,185.170 218.527,185.090 218.867,184.807 219.208,184.727 219.548,184.727 219.888,185.009 220.228,185.090 220.569,185.090 220.909,185.090 221.249,184.808 221.589,184.727 221.930,184.445 222.270,184.364 222.610,184.364 222.950,184.083 223.290,184.001 223.631,184.282 223.971,184.645 224.311,185.007 224.651,185.090 224.992,185.370 225.332,185.453 225.672,185.453 226.012,185.173 226.353,185.090 226.693,185.090 227.033,185.090 227.373,185.090 227.713,185.090 228.054,185.090 228.394,184.811 228.734,184.727 229.074,184.727 229.415,184.727 229.755,184.727 230.095,184.727 230.435,184.727 230.776,184.727 231.116,184.727 231.456,185.005 231.796,185.368 232.136,185.730 232.477,185.816 232.817,186.093 233.157,186.179 233.497,186.179 233.838,185.902 234.178,185.816 234.518,185.816 234.858,185.816 235.199,186.092 235.539,186.179 235.879,185.903 236.219,185.816 236.559,185.264 236.900,184.538 237.240,184.640 237.580,184.727 237.920,185.002 238.261,185.365 238.601,185.728 238.941,185.816 239.281,185.816 239.622,185.816 239.962,185.541 240.302,185.178 240.642,185.090 240.982,185.090 241.323,184.816 241.663,184.727 242.003,185.001 242.343,185.364 242.684,185.453 243.024,185.726 243.364,185.816 243.704,185.816 244.045,185.543 244.385,185.726 244.725,185.816 245.065,185.816 245.405,185.816 245.746,185.816 246.086,186.088 246.426,186.179 246.766,186.723 247.107,187.177 247.447,187.540 247.787,187.903 248.127,187.722 248.468,187.359 248.808,186.997 249.148,186.362 249.488,185.637 249.828,184.911 250.169,183.914 250.509,182.826 250.849,182.008 251.189,180.741 251.530,179.560 251.870,178.741 252.210,177.746 252.550,176.927 252.891,176.201 253.231,175.475 253.571,174.480 253.911,173.122 254.251,171.940 254.592,170.582 254.932,169.400 255.272,168.311 255.612,167.222 255.953,166.134 256.293,165.314 256.633,164.319 256.973,162.963 257.314,161.779 257.654,160.691 257.994,159.602 258.334,158.513 258.674,157.157 259.015,156.241 259.355,155.247 259.695,154.426 260.035,153.700 260.376,152.975 260.716,151.982 261.056,151.160 261.396,150.434 261.737,149.709 262.077,148.983 262.417,148.523 262.757,147.894 263.097,147.434 263.438,146.806 263.778,146.080 264.118,145.620 264.458,144.992 264.799,144.796 265.139,144.531 265.479,144.433 265.819,144.168 266.160,143.806 266.500,143.707 266.840,143.707 267.180,143.443 267.521,143.344 267.861,143.344 268.201,143.344 268.541,143.080 268.881,142.718 269.222,142.618 269.562,142.355 269.902,142.255 270.242,142.255 270.583,142.255 270.923,142.255 271.263,142.255 271.603,142.255 271.944,142.255 272.284,142.255 272.624,142.518 272.964,142.356 273.304,142.255 273.645,141.993 273.985,142.154 274.325,142.255 274.665,142.255 275.006,142.255 275.346,142.516 275.686,142.618 276.026,142.879 276.367,142.981 276.707,142.981 277.047,142.981 277.387,142.981 277.727,142.721 278.068,142.618 278.408,142.618 278.748,142.618 279.088,142.618 279.429,142.618 279.769,142.618 280.109,142.618 280.449,142.618 280.790,142.618 281.130,142.359 281.470,141.996 281.810,141.892 282.150,141.634 282.491,141.271 282.831,141.166 283.171,140.908 283.511,140.545 283.852,140.182 284.192,139.819 284.532,139.456 284.872,138.836 285.213,138.110 285.553,137.127 285.893,136.038 286.233,134.950 286.573,134.118 286.914,133.392 287.254,132.410 287.594,131.321 287.934,130.233 288.275,129.144 288.615,127.799 288.955,126.604 289.295,125.515 289.636,124.427 289.976,123.338 290.316,122.249 290.656,121.161 290.996,120.072 291.337,119.239 291.677,118.258 292.017,117.169 292.357,116.335 292.698,115.355 293.038,114.521 293.378,113.795 293.718,112.815 294.059,111.726 294.399,110.892 294.739,110.166 295.079,109.694 295.419,109.331 295.760,109.222 296.100,108.968 296.440,108.859 296.780,108.606 297.121,108.243 297.461,108.133 297.801,108.133 298.141,107.880 298.482,107.770 298.822,107.517 299.162,107.407 299.502,107.155 299.842,107.044 300.183,107.296 300.523,107.407 300.863,107.407 301.203,107.155 301.544,106.792 301.884,106.430 302.224,106.067 302.564,105.955 302.905,105.704 303.245,105.341 303.585,105.229 303.925,105.229 304.265,105.479 304.606,106.092 304.946,106.568 305.286,106.681 305.626,106.931 305.967,107.293 306.307,107.157 306.647,107.044 306.987,107.044 307.328,106.795 307.668,106.681 308.008,106.432 308.348,106.318 308.688,106.069 309.029,105.955 309.369,105.955 309.709,105.707 310.049,105.840 310.390,106.451 310.730,106.929 311.070,107.044 311.410,107.291 311.751,107.159 312.091,107.044 312.431,106.797 312.771,106.681 313.111,106.928 313.452,107.044 313.792,106.797 314.132,106.681 314.472,106.434 314.813,106.564 315.153,106.435 315.493,106.318 315.833,106.564 316.174,106.435 316.514,106.318 316.854,106.318 317.194,106.318 317.534,106.073 317.875,106.200 318.215,106.318 318.555,106.318 318.895,106.562 319.236,106.681 319.576,106.925 319.916,107.044 320.256,107.044 320.597,106.800 320.937,106.925 321.277,107.044 321.617,107.287 321.957,107.407 322.298,107.650 322.638,107.770 322.978,108.013 323.318,108.133 323.659,108.133 323.999,108.133 324.339,107.890 324.679,107.285 325.020,106.559 325.360,105.833 325.700,104.865 326.040,103.777 326.380,102.688 326.721,101.599 327.061,100.511 327.401,99.422 327.741,98.092 328.082,96.882 328.422,95.793 328.762,94.946 329.102,93.979 329.443,93.131 329.783,92.405 330.123,91.680 330.463,90.954 330.803,90.228 331.144,89.502 331.484,88.297 331.824,86.845 332.164,85.394 332.505,84.182 332.845,83.333 333.185,82.607 333.525,82.120 333.866,81.518 334.206,80.554 334.546,79.465 334.886,78.138 335.226,77.163 335.567,76.438 335.907,75.474 336.247,74.385 336.587,73.772 336.928,73.647 337.268,73.410 337.608,73.047 337.948,72.921 338.289,73.159 338.629,73.284 338.969,73.521 339.309,73.647 339.649,73.647 339.990,73.647 340.330,73.884 340.670,74.010 341.010,74.247 341.351,74.610 341.691,74.972 342.031,75.099 342.371,75.099 342.712,75.335 343.052,75.462 343.392,75.462 343.732,75.698 344.072,75.825 344.413,75.825 344.753,75.825 345.093,76.060 345.433,75.954 345.774,75.825 346.114,75.825 346.454,75.591 346.794,75.462 347.135,75.696 347.475,75.825 347.815,76.059 348.155,76.188 348.495,76.188 348.836,76.188 349.176,75.955 349.516,75.592 349.856,74.996 350.197,74.504 350.537,73.908 350.877,73.182 351.217,72.456 351.558,71.731 351.898,70.773 352.238,69.916 352.578,68.959 352.918,68.102 353.259,67.376 353.599,66.650 353.939,65.924 354.279,65.199 354.620,64.473 354.960,63.747 355.300,63.252 355.640,62.659 355.981,61.702 356.321,60.844 356.661,59.888 357.001,58.799 357.341,58.171 357.682,57.808 358.022,57.215 358.362,56.719 358.702,56.356 359.043,56.223 359.383,55.994 359.723,55.631 360.063,55.268 360.404,54.905 360.744,54.542 361.084,54.179 361.424,53.816 361.764,53.682 362.105,53.682 362.445,53.682 362.785,53.454 363.125,53.319 363.466,53.319 363.806,53.091 364.146,52.956 364.486,52.956 364.827,52.956 365.167,52.956 365.507,52.729 365.847,52.139 366.187,51.640 366.528,51.504 366.868,51.504 367.208,51.730 367.548,52.320 367.889,52.819 368.229,52.730 368.569,52.593 368.909,52.819 369.250,52.730 369.590,52.368 369.930,52.230 370.270,52.230 370.610,52.005 370.951,51.867 371.291,51.867 371.631,51.867 371.971,51.867 372.312,52.091 372.652,52.230 372.992,52.230 373.332,52.230 373.673,52.454 374.013,52.593 374.353,52.593 374.693,52.593 375.033,52.593 375.374,52.593 375.714,52.370 376.054,52.230 376.394,52.230 "/>
<g>
</g>
</g>
    </g>
    <g>
      <polyline fill="none" stroke="#000000" stroke-width="0.5pt" stroke-dasharray="none" points="172.656,234.300 172.656,232.253 "/>
      <polyline fill="none" stroke="#000000" stroke-width="0.5pt" stroke-dasharray="none" points="223.690,234.300 223.690,232.253 "/>
      <polyline fill="none" stroke="#000000" stroke-width="0.5pt" stroke-dasharray="none" points="274.725,234.300 274.725,232.253 "/>
      <polyline fill="none" stroke="#000000" stroke-width="0.5pt" stroke-dasharray="none" points="325.760,234.300 325.760,232.253 "/>
      <polyline fill="none" stroke="#000000" stroke-width="0.5pt" stroke-dasharray="none" points="376.794,234.300 376.794,232.253 "/>
      <polyline fill="none" stroke="#000000" stroke-width="0.5pt" stroke-dasharray="none" points="172.380,234.300 377.029,234.300 "/>
      <polyline fill="none" stroke="#000000" stroke-width="0.5pt" stroke-dasharray="none" points="172.656,42.225 172.656,44.271 "/>
      <polyline fill="none" stroke="#000000" stroke-width="0.5pt" stroke-dasharray="none" points="223.690,42.225 223.690,44.271 "/>
      <polyline fill="none" stroke="#000000" stroke-width="0.5pt" stroke-dasharray="none" points="274.725,42.225 274.725,44.271 "/>
      <polyline fill="none" stroke="#000000" stroke-width="0.5pt" stroke-dasharray="none" points="325.760,42.225 325.760,44.271 "/>
      <polyline fill="none" stroke="#000000" stroke-width="0.5pt" stroke-dasharray="none" points="376.794,42.225 376.794,44.271 "/>
      <polyline fill="none" stroke="#000000" stroke-width="0.5pt" stroke-dasharray="none" points="172.380,42.225 377.029,42.225 "/>
  <g transform="translate(172.656,246.141)">
    <g transform="rotate(-0.0)">
      <text x="0.000" y="0.000" font-family="Helvetica" text-anchor="middle" font-size="8.0pt" fill="#000000" >4620</text>
    </g>
  </g>
  <g transform="translate(223.690,246.141)">
    <g transform="rotate(-0.0)">
      <text x="0.000" y="0.000" font-family="Helvetica" text-anchor="middle" font-size="8.0pt" fill="#000000" >4625</text>
    </g>
  </g>
  <g transform="translate(274.725,246.141)">
    <g transform="rotate(-0.0)">
      <text x="0.000" y="0.000" font-family="Helvetica" text-anchor="middle" font-size="8.0pt" fill="#000000" >4630</text>
    </g>
  </g>
  <g transform="translate(325.760,246.141)">
    <g transform="rotate(-0.0)">
      <text x="0.000" y="0.000" font-family="Helvetica" text-anchor="middle" font-size="8.0pt" fill="#000000" >4635</text>
    </g>
  </g>
  <g transform="translate(376.794,246.141)">
    <g transform="rotate(-0.0)">
      <text x="0.000" y="0.000" font-family="Helvetica" text-anchor="middle" font-size="8.0pt" fill="#000000" >4640</text>
    </g>
  </g>
      <polyline fill="none" stroke="#000000" stroke-width="0.5pt" stroke-dasharray="none" points="172.380,228.650 174.426,228.650 "/>
      <polyline fill="none" stroke="#000000" stroke-width="0.5pt" stroke-dasharray="none" points="172.380,178.194 174.426,178.194 "/>
      <polyline fill="none" stroke="#000000" stroke-width="0.5pt" stroke-dasharray="none" points="172.380,127.737 174.426,127.737 "/>
      <polyline fill="none" stroke="#000000" stroke-width="0.5pt" stroke-dasharray="none" points="172.380,77.280 174.426,77.280 "/>
      <polyline fill="none" stroke="#000000" stroke-width="0.5pt" stroke-dasharray="none" points="172.380,234.300 172.380,42.225 "/>
      <polyline fill="none" stroke="#000000" stroke-width="0.5pt" stroke-dasharray="none" points="377.029,228.650 374.982,228.650 "/>
      <polyline fill="none" stroke="#000000" stroke-width="0.5pt" stroke-dasharray="none" points="377.029,178.194 374.982,178.194 "/>
      <polyline fill="none" stroke="#000000" stroke-width="0.5pt" stroke-dasharray="none" points="377.029,127.737 374.982,127.737 "/>
      <polyline fill="none" stroke="#000000" stroke-width="0.5pt" stroke-dasharray="none" points="377.029,77.280 374.982,77.280 "/>
      <polyline fill="none" stroke="#000000" stroke-width="0.5pt" stroke-dasharray="none" points="377.029,234.300 377.029,42.225 "/>
  <g transform="translate(168.287,231.650)">
    <g transform="rotate(-0.0)">
      <text x="0.000" y="0.000" font-family="Helvetica" text-anchor="end" font-size="8.0pt" fill="#000000" >0</text>
    </g>
  </g>
  <g transform="translate(168.287,181.194)">
    <g transform="rotate(-0.0)">
      <text x="0.000" y="0.000" font-family="Helvetica" text-anchor="end" font-size="8.0pt" fill="#000000" >1</text>
    </g>
  </g>
  <g transform="translate(168.287,130.737)">
    <g transform="rotate(-0.0)">
      <text x="0.000" y="0.000" font-family="Helvetica" text-anchor="end" font-size="8.0pt" fill="#000000" >2</text>
    </g>
  </g>
  <g transform="translate(168.287,80.280)">
    <g transform="rotate(-0.0)">
      <text x="0.000" y="0.000" font-family="Helvetica" text-anchor="end" font-size="8.0pt" fill="#000000" >3</text>
    </g>
  </g>
      <polyline fill="none" stroke="#000000" stroke-width="0.5pt" stroke-dasharray="none" points="172.380,234.300 172.380,232.379 "/>
      <polyline fill="none" stroke="#000000" stroke-width="0.5pt" stroke-dasharray="none" points="172.380,234.300 172.380,234.300 "/>
    </g>
  </g>
  <g>
  <clipPath id="ID000001">
    <rect x="172.380" y="308.995" width="204.649" height="192.075"/>
  </clipPath>
      <polyline fill="#ffffff" fill-opacity="1.00" stroke="none" stroke-width="0.5pt" stroke-opacity="1.00" stroke-dasharray="none" points="172.380,501.070 377.029,501.070 377.029,308.995 172.380,308.995 "/>
      <polyline fill="#ffffff" fill-opacity="1.00" stroke="none" stroke-width="0.5pt" stroke-opacity="1.00" stroke-dasharray="none" points="172.380,308.995 377.029,308.995 377.029,308.995 172.380,308.995 "/>
      <polyline fill="#ffffff" fill-opacity="1.00" stroke="none" stroke-width="0.5pt" stroke-opacity="1.00" stroke-dasharray="none" points="172.380,501.070 172.380,501.070 172.380,308.995 172.380,308.995 "/>
    <g>
<g clip-path="url(#ID000001)">
<image x="172.380" y="308.995" width="204.649" height="192.075" image-rendering="optimizeSpeed" preserveAspectRatio="none" xlink:href="headToHeadDecoding002.png" />
</g>
<g clip-path="url(#ID000001)">
      <polyline fill="none" stroke="#ffffff" stroke-width="0.5pt" stroke-dasharray="none" points="172.436,322.490 172.776,322.556 173.117,322.556 173.457,322.556 173.798,322.241 174.138,322.174 174.478,322.174 174.819,322.174 175.159,322.174 175.500,322.174 175.840,322.174 176.180,322.489 176.521,322.556 176.861,322.556 177.202,322.556 177.542,322.556 177.882,322.870 178.223,322.938 178.563,323.251 178.904,323.006 179.244,322.625 179.584,322.243 179.925,321.548 180.265,320.785 180.606,320.334 180.946,319.953 181.286,319.571 181.627,318.877 181.967,318.114 182.307,317.350 182.648,316.899 182.988,316.517 183.329,316.447 183.669,316.447 184.009,316.447 184.350,316.447 184.690,316.447 185.031,316.136 185.371,316.065 185.711,315.754 186.052,315.683 186.392,315.373 186.733,315.301 187.073,314.991 187.413,314.919 187.754,314.919 188.094,314.919 188.435,314.610 188.775,314.228 189.115,313.846 189.456,313.465 189.796,312.774 190.137,312.628 190.477,312.320 190.817,312.246 191.158,311.938 191.498,311.556 191.839,311.175 192.179,311.101 192.519,310.485 192.860,310.030 193.200,463.119 193.541,500.110 193.881,499.802 194.221,499.728 194.562,499.728 194.902,499.421 195.243,499.039 195.583,498.658 195.923,497.969 196.264,497.206 196.604,496.749 196.945,496.673 197.285,496.979 197.625,497.055 197.966,497.055 198.306,496.444 198.647,495.681 198.987,494.612 199.327,493.467 199.668,492.322 200.008,491.177 200.348,489.727 200.689,488.505 201.029,486.751 201.370,485.146 201.710,483.620 202.050,482.093 202.391,480.566 202.731,479.039 203.072,477.512 203.412,475.986 203.752,474.459 204.093,473.235 204.433,472.090 204.774,470.945 205.114,470.103 205.454,469.037 205.795,467.892 206.135,466.746 206.476,465.904 206.816,465.442 207.156,465.061 207.497,465.283 207.837,465.363 208.178,465.061 208.518,464.679 208.858,464.298 209.199,463.314 209.539,462.469 209.880,461.706 210.220,460.943 210.560,460.480 210.901,460.098 211.241,459.416 211.582,458.953 211.922,458.271 212.262,457.508 212.603,457.044 212.943,456.663 213.284,456.281 213.624,455.899 213.964,455.817 214.305,455.518 214.645,455.136 214.986,454.754 215.326,454.671 215.666,454.373 216.007,454.588 216.347,454.671 216.687,454.671 217.028,454.671 217.368,454.671 217.709,454.671 218.049,454.374 218.389,454.289 218.730,453.992 219.070,453.907 219.411,453.907 219.751,454.204 220.091,454.289 220.432,454.289 220.772,454.289 221.113,453.993 221.453,453.907 221.793,453.611 222.134,453.526 222.474,453.526 222.815,453.230 223.155,453.144 223.495,453.439 223.836,453.821 224.176,454.203 224.517,454.289 224.857,454.584 225.197,454.671 225.538,454.671 225.878,454.377 226.219,454.289 226.559,454.289 226.899,454.289 227.240,454.289 227.580,454.289 227.921,454.289 228.261,453.996 228.601,453.907 228.942,453.907 229.282,453.907 229.623,453.907 229.963,453.907 230.303,453.907 230.644,453.907 230.984,453.907 231.325,454.200 231.665,454.582 232.005,454.963 232.346,455.053 232.686,455.345 233.027,455.435 233.367,455.435 233.707,455.143 234.048,455.053 234.388,455.053 234.728,455.053 235.069,455.344 235.409,455.435 235.750,455.144 236.090,455.053 236.430,454.472 236.771,453.709 237.111,453.816 237.452,453.907 237.792,454.197 238.132,454.579 238.473,454.961 238.813,455.053 239.154,455.053 239.494,455.053 239.834,454.764 240.175,454.382 240.515,454.289 240.856,454.289 241.196,454.001 241.536,453.907 241.877,454.196 242.217,454.577 242.558,454.671 242.898,454.959 243.238,455.053 243.579,455.053 243.919,454.766 244.260,454.958 244.600,455.053 244.940,455.053 245.281,455.053 245.621,455.053 245.962,455.339 246.302,455.435 246.642,456.007 246.983,456.485 247.323,456.866 247.664,457.248 248.004,457.058 248.344,456.677 248.685,456.295 249.025,455.628 249.366,454.865 249.706,454.101 250.046,453.053 250.387,451.908 250.727,451.047 251.067,449.715 251.408,448.473 251.748,447.612 252.089,446.564 252.429,445.703 252.769,444.940 253.110,444.176 253.450,443.129 253.791,441.701 254.131,440.457 254.471,439.029 254.812,437.785 255.152,436.640 255.493,435.495 255.833,434.350 256.173,433.487 256.514,432.442 256.854,431.014 257.195,429.770 257.535,428.624 257.875,427.479 258.216,426.334 258.556,424.908 258.897,423.943 259.237,422.899 259.577,422.035 259.918,421.271 260.258,420.508 260.599,419.464 260.939,418.599 261.279,417.836 261.620,417.073 261.960,416.309 262.301,415.826 262.641,415.164 262.981,414.681 263.322,414.019 263.662,413.256 264.003,412.772 264.343,412.111 264.683,411.906 265.024,411.627 265.364,411.524 265.705,411.245 266.045,410.863 266.385,410.760 266.726,410.760 267.066,410.482 267.407,410.378 267.747,410.378 268.087,410.378 268.428,410.101 268.768,409.719 269.108,409.615 269.449,409.337 269.789,409.233 270.130,409.233 270.470,409.233 270.810,409.233 271.151,409.233 271.491,409.233 271.832,409.233 272.172,409.233 272.512,409.509 272.853,409.339 273.193,409.233 273.534,408.957 273.874,409.126 274.214,409.233 274.555,409.233 274.895,409.233 275.236,409.508 275.576,409.615 275.916,409.889 276.257,409.996 276.597,409.996 276.938,409.996 277.278,409.996 277.618,409.723 277.959,409.615 278.299,409.615 278.640,409.615 278.980,409.615 279.320,409.615 279.661,409.615 280.001,409.615 280.342,409.615 280.682,409.615 281.022,409.342 281.363,408.960 281.703,408.851 282.044,408.579 282.384,408.197 282.724,408.087 283.065,407.816 283.405,407.434 283.746,407.052 284.086,406.670 284.426,406.289 284.767,405.636 285.107,404.873 285.447,403.839 285.788,402.693 286.128,401.548 286.469,400.674 286.809,399.910 287.149,398.877 287.490,397.732 287.830,396.586 288.171,395.441 288.511,394.027 288.851,392.769 289.192,391.624 289.532,390.479 289.873,389.334 290.213,388.189 290.553,387.044 290.894,385.899 291.234,385.022 291.575,383.990 291.915,382.845 292.255,381.968 292.596,380.937 292.936,380.060 293.277,379.296 293.617,378.265 293.957,377.120 294.298,376.242 294.638,375.479 294.979,374.982 295.319,374.601 295.659,374.486 296.000,374.219 296.340,374.104 296.681,373.838 297.021,373.456 297.361,373.340 297.702,373.340 298.042,373.074 298.383,372.958 298.723,372.693 299.063,372.576 299.404,372.311 299.744,372.195 300.085,372.460 300.425,372.576 300.765,372.576 301.106,372.312 301.446,371.930 301.787,371.549 302.127,371.167 302.467,371.049 302.808,370.785 303.148,370.404 303.488,370.285 303.829,370.285 304.169,370.549 304.510,371.194 304.850,371.694 305.190,371.813 305.531,372.076 305.871,372.457 306.212,372.314 306.552,372.195 306.892,372.195 307.233,371.933 307.573,371.813 307.914,371.551 308.254,371.431 308.594,371.169 308.935,371.049 309.275,371.049 309.616,370.788 309.956,370.928 310.296,371.571 310.637,372.073 310.977,372.195 311.318,372.455 311.658,372.316 311.998,372.195 312.339,371.935 312.679,371.813 313.020,372.073 313.360,372.195 313.700,371.935 314.041,371.813 314.381,371.554 314.722,371.690 315.062,371.554 315.402,371.431 315.743,371.690 316.083,371.554 316.424,371.431 316.764,371.431 317.104,371.431 317.445,371.173 317.785,371.307 318.126,371.431 318.466,371.431 318.806,371.688 319.147,371.813 319.487,372.070 319.827,372.195 320.168,372.195 320.508,371.938 320.849,372.069 321.189,372.195 321.529,372.451 321.870,372.576 322.210,372.833 322.551,372.958 322.891,373.214 323.231,373.340 323.572,373.340 323.912,373.340 324.253,373.085 324.593,372.448 324.933,371.685 325.274,370.921 325.614,369.903 325.955,368.758 326.295,367.613 326.635,366.468 326.976,365.323 327.316,364.178 327.657,362.779 327.997,361.506 328.337,360.361 328.678,359.469 329.018,358.452 329.359,357.560 329.699,356.797 330.039,356.034 330.380,355.270 330.720,354.507 331.061,353.743 331.401,352.475 331.741,350.948 332.082,349.422 332.422,348.147 332.763,347.253 333.103,346.490 333.443,345.978 333.784,345.345 334.124,344.330 334.465,343.185 334.805,341.789 335.145,340.764 335.486,340.001 335.826,338.987 336.167,337.842 336.507,337.197 336.847,337.066 337.188,336.816 337.528,336.434 337.868,336.302 338.209,336.552 338.549,336.684 338.890,336.933 339.230,337.066 339.570,337.066 339.911,337.066 340.251,337.315 340.592,337.448 340.932,337.696 341.272,338.078 341.613,338.460 341.953,338.593 342.294,338.593 342.634,338.841 342.974,338.975 343.315,338.975 343.655,339.222 343.996,339.357 344.336,339.357 344.676,339.357 345.017,339.604 345.357,339.492 345.698,339.357 346.038,339.357 346.378,339.110 346.719,338.975 347.059,339.221 347.400,339.357 347.740,339.603 348.080,339.739 348.421,339.739 348.761,339.739 349.102,339.493 349.442,339.112 349.782,338.485 350.123,337.966 350.463,337.340 350.804,336.576 351.144,335.813 351.484,335.050 351.825,334.042 352.165,333.141 352.506,332.134 352.846,331.232 353.186,330.469 353.527,329.706 353.867,328.942 354.207,328.179 354.548,327.415 354.888,326.652 355.229,326.132 355.569,325.507 355.909,324.501 356.250,323.598 356.590,322.593 356.931,321.448 357.271,320.787 357.611,320.405 357.952,319.781 358.292,319.260 358.633,318.878 358.973,318.738 359.313,318.496 359.654,318.115 359.994,317.733 360.335,317.351 360.675,316.970 361.015,316.588 361.356,316.206 361.696,316.065 362.037,316.065 362.377,316.065 362.717,315.825 363.058,315.683 363.398,315.683 363.739,315.444 364.079,315.301 364.419,315.301 364.760,315.301 365.100,315.301 365.441,315.062 365.781,314.442 366.121,313.917 366.462,313.774 366.802,313.774 367.143,314.012 367.483,314.632 367.823,315.157 368.164,315.063 368.504,314.919 368.845,315.157 369.185,315.064 369.525,314.682 369.866,314.537 370.206,314.537 370.547,314.301 370.887,314.156 371.227,314.156 371.568,314.156 371.908,314.156 372.248,314.392 372.589,314.537 372.929,314.537 373.270,314.537 373.610,314.773 373.950,314.919 374.291,314.919 374.631,314.919 374.972,314.919 375.312,314.919 375.652,314.685 375.993,314.537 376.333,314.537 "/>
<g>
</g>
</g>
<g clip-path="url(#ID000001)">
      <polyline fill="none" stroke="#0000ff" stroke-width="0.5pt" stroke-dasharray="none" points="172.322,500.269 172.802,501.702 172.975,501.542 172.986,500.534 173.312,501.171 173.343,500.269 173.670,500.906 173.997,501.542 174.007,500.534 174.344,501.224 174.354,500.215 174.691,500.906 175.018,501.543 175.038,500.587 175.365,501.224 175.529,501.012 175.702,500.853 175.876,500.693 176.039,500.481 176.213,500.322 176.560,501.065 176.733,500.905 176.897,500.693 177.060,500.481 177.234,500.322 177.407,500.163 177.744,500.853 177.908,500.640 178.092,500.534 178.265,500.375 178.429,500.163 178.766,500.853 178.939,500.693 179.113,500.534 179.276,500.322 179.460,500.215 179.960,501.755 179.971,500.747 180.308,501.436 180.328,500.481 180.645,501.065 180.808,500.852 180.982,500.693 181.165,500.587 181.319,500.322 181.502,500.216 182.003,501.755 182.166,501.542 182.340,501.383 182.360,500.428 182.677,501.012 182.850,500.852 183.024,500.693 183.198,500.534 183.371,500.375 183.708,501.065 183.872,500.852 184.045,500.693 184.219,500.534 184.392,500.375 184.576,500.269 184.903,500.906 185.066,500.693 185.240,500.534 185.414,500.375 185.587,500.216 185.924,500.906 186.098,500.746 186.261,500.534 186.435,500.375 186.772,501.065 186.945,500.906 187.109,500.693 187.293,500.587 187.456,500.375 187.619,500.163 187.967,500.906 188.140,500.746 188.314,500.587 188.477,500.375 188.651,500.216 188.988,500.906 189.161,500.746 189.325,500.534 189.498,500.375 189.672,500.216 190.009,500.906 190.183,500.746 190.356,500.587 190.520,500.375 190.683,500.163 191.030,500.906 191.204,500.746 191.367,500.534 191.541,500.375 191.714,500.216 192.051,500.906 192.225,500.746 192.398,500.587 192.572,500.428 192.746,500.269 193.072,500.906 193.246,500.746 193.420,500.587 193.593,500.428 193.757,500.215 194.094,500.905 194.267,500.746 194.441,500.587 194.615,500.428 194.778,500.215 195.115,500.905 195.288,500.746 195.462,500.587 195.636,500.428 195.799,500.215 196.136,500.905 196.310,500.746 196.483,500.587 196.657,500.428 196.820,500.215 197.167,500.959 197.341,500.799 197.504,500.587 197.678,500.428 197.841,500.215 198.189,500.959 198.352,500.746 198.526,500.587 198.699,500.428 198.863,500.216 199.210,500.959 199.373,500.747 199.557,500.640 199.720,500.428 199.884,500.216 200.231,500.959 200.405,500.799 200.568,500.587 200.742,500.428 200.915,500.269 201.252,500.959 201.426,500.799 201.589,500.587 201.763,500.428 201.936,500.269 202.273,500.959 202.447,500.799 202.621,500.640 202.784,500.428 202.958,500.269 203.295,500.959 203.468,500.799 203.642,500.640 203.815,500.481 203.979,500.269 204.316,500.959 204.489,500.799 204.663,500.640 204.826,500.428 205.010,500.322 205.337,500.959 205.511,500.799 205.684,500.640 205.848,500.428 206.021,500.268 206.358,500.959 206.532,500.799 206.695,500.587 206.879,500.481 207.042,500.268 207.379,500.958 207.553,500.799 207.727,500.640 207.900,500.481 208.063,500.268 208.400,500.958 208.584,500.853 208.748,500.640 208.921,500.481 209.085,500.268 209.432,501.012 209.595,500.799 209.769,500.640 209.943,500.481 210.116,500.322 210.443,500.958 210.627,500.852 210.800,500.693 210.964,500.481 211.137,500.322 211.474,501.012 211.638,500.800 211.811,500.640 211.985,500.481 212.158,500.322 212.495,501.012 212.669,500.852 212.832,500.640 213.006,500.481 213.169,500.269 213.517,501.012 213.690,500.852 213.864,500.693 214.027,500.481 214.201,500.322 214.538,501.012 214.701,500.800 214.885,500.693 215.048,500.481 215.222,500.322 215.559,501.012 215.733,500.852 215.896,500.640 216.080,500.534 216.243,500.322 216.427,500.216 216.927,501.755 217.091,501.542 217.101,500.534 217.438,501.224 217.601,501.012 217.775,500.852 217.949,500.693 218.112,500.481 218.296,500.375 218.623,501.012 218.796,500.852 218.960,500.640 219.143,500.534 219.307,500.322 219.491,500.216 219.817,500.852 219.981,500.640 220.165,500.534 220.338,500.375 220.675,501.065 220.839,500.852 221.012,500.693 221.186,500.534 221.349,500.322 221.533,500.216 221.860,500.853 222.033,500.693 222.207,500.534 222.370,500.322 222.554,500.216 222.881,500.853 223.055,500.693 223.228,500.534 223.402,500.375 223.586,500.269 223.912,500.906 224.086,500.746 224.249,500.534 224.423,500.375 224.607,500.269 224.934,500.905 225.097,500.693 225.271,500.534 225.444,500.375 225.628,500.269 225.965,500.959 226.118,500.693 226.302,500.587 226.465,500.375 226.639,500.215 226.976,500.905 227.139,500.693 227.313,500.534 227.486,500.375 227.670,500.269 228.007,500.959 228.344,501.649 228.508,501.436 228.671,501.224 228.692,500.269 229.039,501.012 229.355,501.595 229.376,500.640 229.703,501.277 229.723,500.322 230.039,500.905 230.213,500.747 230.376,500.534 230.550,500.375 230.744,500.322 231.061,500.905 231.234,500.747 231.398,500.534 231.571,500.375 231.745,500.216 232.082,500.906 232.256,500.747 232.429,500.587 232.603,500.428 232.766,500.216 233.103,500.906 233.277,500.746 233.450,500.587 233.624,500.428 233.787,500.216 234.134,500.959 234.298,500.746 234.471,500.587 234.645,500.428 234.819,500.269 235.145,500.906 235.319,500.746 235.493,500.587 235.656,500.375 235.840,500.269 236.167,500.906 236.340,500.746 236.504,500.534 236.677,500.375 236.851,500.216 237.198,500.959 237.361,500.746 237.535,500.587 237.698,500.375 237.872,500.216 238.209,500.906 238.383,500.746 238.556,500.587 238.720,500.375 238.893,500.216 239.240,500.958 239.404,500.746 239.577,500.587 239.751,500.428 239.925,500.269 240.251,500.906 240.425,500.746 240.599,500.587 240.772,500.428 240.946,500.269 241.283,500.958 241.456,500.800 241.620,500.587 241.793,500.428 241.967,500.269 242.304,500.958 242.478,500.800 242.641,500.587 242.815,500.428 242.998,500.322 243.325,500.959 243.489,500.746 243.672,500.640 243.836,500.428 244.009,500.269 244.346,500.959 244.520,500.800 244.683,500.587 244.867,500.481 245.041,500.322 245.368,500.959 245.541,500.800 245.715,500.640 245.878,500.428 246.052,500.269 246.389,500.959 246.562,500.799 246.736,500.640 246.899,500.428 247.073,500.269 247.410,500.959 247.584,500.799 247.757,500.640 247.931,500.481 248.094,500.269 248.431,500.959 248.605,500.799 248.778,500.640 248.952,500.481 249.115,500.269 249.452,500.959 249.626,500.799 249.799,500.640 249.963,500.428 250.147,500.321 250.473,500.959 250.647,500.799 250.821,500.640 250.994,500.481 251.158,500.269 251.352,500.216 251.689,500.906 252.026,501.596 252.189,501.383 252.352,501.171 252.516,500.959 252.689,500.799 252.873,500.693 253.037,500.481 253.210,500.322 253.547,501.011 253.721,500.853 253.884,500.640 254.231,501.383 254.395,501.171 254.558,500.959 254.732,500.799 254.905,500.640 255.079,500.481 255.253,500.322 255.590,501.012 255.763,500.853 255.937,500.693 256.264,501.330 256.284,500.375 256.447,500.163 256.784,500.853 256.948,500.640 257.121,500.481 257.295,500.322 257.632,501.012 257.806,500.853 257.969,500.640 258.143,500.481 258.316,500.322 258.653,501.012 258.827,500.853 259.000,500.693 259.164,500.481 259.337,500.322 259.521,500.216 260.022,501.755 260.032,500.747 260.359,501.383 260.369,500.375 260.696,501.012 260.869,500.852 261.033,500.640 261.206,500.481 261.380,500.322 261.717,501.012 261.890,500.852 262.064,500.693 262.227,500.481 262.401,500.322 262.595,500.269 262.922,500.906 263.085,500.693 263.259,500.534 263.422,500.322 263.606,500.216 263.933,500.852 264.106,500.693 264.280,500.534 264.454,500.375 264.637,500.269 264.954,500.852 265.127,500.693 265.301,500.534 265.464,500.322 265.801,501.012 265.975,500.852 266.149,500.693 266.322,500.534 266.496,500.375 266.823,501.012 266.996,500.852 267.170,500.694 267.344,500.534 267.507,500.322 267.691,500.216 268.017,500.852 268.191,500.693 268.365,500.534 268.538,500.375 268.702,500.163 269.039,500.852 269.212,500.693 269.386,500.534 269.559,500.375 269.733,500.216 270.060,500.853 270.233,500.693 270.407,500.534 270.570,500.322 270.754,500.216 271.081,500.853 271.255,500.693 271.428,500.534 271.602,500.375 271.786,500.269 272.123,500.958 272.276,500.693 272.460,500.587 272.623,500.375 272.807,500.269 273.134,500.906 273.297,500.693 273.471,500.534 273.644,500.375 273.828,500.269 274.155,500.905 274.328,500.746 274.492,500.534 274.665,500.375 274.849,500.269 275.176,500.905 275.339,500.693 275.523,500.587 275.687,500.375 275.850,500.163 276.197,500.905 276.371,500.746 276.544,500.587 276.718,500.428 276.881,500.215 277.218,500.905 277.392,500.746 277.566,500.587 277.739,500.428 277.903,500.215 278.240,500.905 278.413,500.747 278.587,500.587 278.760,500.428 278.924,500.216 279.261,500.905 279.434,500.747 279.608,500.587 279.782,500.428 279.955,500.269 280.292,500.959 280.466,500.799 280.629,500.587 280.803,500.428 280.966,500.216 281.303,500.906 281.477,500.747 281.650,500.587 281.824,500.428 281.987,500.216 282.324,500.906 282.498,500.746 282.682,500.640 282.845,500.428 283.009,500.216 283.346,500.906 283.519,500.746 283.693,500.587 283.866,500.428 284.040,500.269 284.367,500.906 284.540,500.746 284.714,500.587 284.887,500.428 285.061,500.269 285.398,500.959 285.562,500.746 285.735,500.587 285.909,500.428 286.082,500.268 286.419,500.959 286.593,500.799 286.767,500.640 286.930,500.428 287.103,500.268 287.440,500.958 287.614,500.799 287.788,500.640 287.951,500.428 288.125,500.268 288.462,500.958 288.635,500.799 288.809,500.640 288.982,500.481 289.146,500.268 289.483,500.958 289.657,500.800 289.820,500.587 290.004,500.481 290.167,500.269 290.504,500.958 290.678,500.800 290.851,500.640 291.015,500.428 291.188,500.269 291.525,500.958 291.587,500.216 292.036,501.489 292.046,500.481 292.383,501.171 292.546,500.959 292.730,500.852 292.894,500.640 293.057,500.428 293.231,500.269 293.568,500.959 293.751,500.852 293.915,500.640 294.078,500.428 294.262,500.322 294.599,501.012 294.773,500.852 294.936,500.640 295.110,500.481 295.273,500.269 295.620,501.012 295.784,500.799 295.957,500.640 296.131,500.481 296.304,500.322 296.641,501.012 296.805,500.799 296.978,500.640 297.152,500.481 297.326,500.322 297.663,501.012 297.826,500.799 298.000,500.640 298.183,500.534 298.347,500.322 298.684,501.012 298.857,500.852 299.021,500.640 299.194,500.481 299.368,500.321 299.705,501.012 299.879,500.852 300.052,500.693 300.216,500.481 300.389,500.321 300.583,500.269 300.900,500.853 301.063,500.640 301.237,500.481 301.421,500.375 301.594,500.216 302.084,501.701 302.095,500.693 302.432,501.383 302.442,500.375 302.615,500.215 302.952,500.906 303.279,501.543 303.289,500.534 303.453,500.322 303.636,500.215 303.974,500.905 304.137,500.693 304.300,500.481 304.484,500.375 304.811,501.012 304.985,500.853 305.158,500.693 305.332,500.534 305.505,500.375 305.689,500.269 306.179,501.755 306.189,500.746 306.516,501.383 306.537,500.428 306.853,501.012 307.027,500.853 307.200,500.693 307.374,500.534 307.537,500.322 307.731,500.269 308.058,500.905 308.222,500.693 308.395,500.534 308.569,500.375 308.753,500.269 309.079,500.905 309.243,500.693 309.416,500.534 309.590,500.375 309.764,500.216 310.090,500.852 310.264,500.693 310.448,500.587 310.611,500.375 310.785,500.216 311.112,500.852 311.285,500.693 311.459,500.534 311.632,500.375 311.816,500.269 312.143,500.906 312.306,500.693 312.480,500.534 312.654,500.375 312.827,500.216 313.164,500.906 313.328,500.693 313.501,500.534 313.675,500.375 313.848,500.216 314.185,500.906 314.359,500.746 314.533,500.587 314.706,500.428 314.870,500.216 315.207,500.906 315.380,500.746 315.544,500.534 315.717,500.375 315.901,500.268 316.228,500.906 316.391,500.693 316.575,500.587 316.749,500.428 316.912,500.216 317.249,500.906 317.423,500.746 317.596,500.587 317.770,500.428 317.933,500.216 318.270,500.906 318.444,500.746 318.617,500.587 318.781,500.375 318.954,500.216 319.302,500.958 319.465,500.746 319.639,500.587 319.812,500.428 319.986,500.269 320.313,500.906 320.486,500.746 320.660,500.587 320.833,500.428 320.987,500.163 321.334,500.906 321.507,500.746 321.681,500.587 321.854,500.428 322.018,500.215 322.355,500.906 322.528,500.746 322.702,500.587 322.876,500.428 323.039,500.215 323.376,500.905 323.550,500.746 323.723,500.587 323.897,500.428 324.071,500.269 324.408,500.959 324.581,500.800 324.744,500.587 324.918,500.428 325.092,500.269 325.429,500.959 325.592,500.746 325.776,500.640 325.939,500.428 326.113,500.269 326.450,500.959 326.613,500.746 326.787,500.587 326.960,500.428 327.134,500.269 327.471,500.959 327.634,500.746 327.818,500.640 327.982,500.428 328.155,500.269 328.492,500.959 328.666,500.799 328.829,500.587 329.003,500.428 329.176,500.269 329.513,500.959 329.687,500.799 329.861,500.640 330.024,500.428 330.198,500.269 330.545,501.012 330.708,500.799 330.872,500.587 331.055,500.481 331.219,500.269 331.556,500.959 331.729,500.799 331.903,500.640 332.066,500.428 332.240,500.269 332.577,500.959 332.751,500.799 332.924,500.640 333.098,500.481 333.261,500.269 333.598,500.959 333.772,500.799 333.945,500.640 334.119,500.481 334.282,500.269 334.619,500.959 334.793,500.799 334.967,500.640 335.130,500.428 335.304,500.268 335.641,500.959 335.814,500.799 335.988,500.640 336.161,500.481 336.325,500.268 336.672,501.012 336.835,500.799 337.009,500.640 337.183,500.481 337.356,500.322 337.540,500.215 338.030,501.702 338.040,500.693 338.367,501.330 338.388,500.375 338.714,501.012 338.878,500.800 339.051,500.640 339.235,500.534 339.399,500.322 339.582,500.216 340.073,501.702 340.093,500.747 340.420,501.383 340.430,500.375 340.757,501.012 340.920,500.800 341.104,500.693 341.267,500.481 341.451,500.375 341.778,501.012 341.951,500.852 342.115,500.640 342.288,500.481 342.462,500.322 342.636,500.162 343.146,501.755 343.310,501.542 343.320,500.534 343.657,501.224 343.688,500.322 343.994,500.852 344.167,500.693 344.331,500.481 344.504,500.322 344.688,500.216 345.178,501.702 345.199,500.746 345.526,501.383 345.546,500.428 345.863,501.012 346.036,500.852 346.210,500.693 346.383,500.534 346.547,500.322 346.731,500.216 347.221,501.702 347.241,500.746 347.568,501.383 347.578,500.375 347.905,501.012 348.079,500.852 348.252,500.693 348.416,500.481 348.589,500.321 348.926,501.012 349.100,500.852 349.273,500.693 349.437,500.481 349.610,500.322 349.784,500.163 350.121,500.853 350.295,500.693 350.458,500.481 350.632,500.322 350.805,500.163 351.142,500.853 351.316,500.693 351.489,500.534 351.653,500.322 351.837,500.215 352.174,500.906 352.337,500.693 352.511,500.534 352.674,500.322 353.021,501.065 353.185,500.853 353.358,500.693 353.532,500.534 353.705,500.375 353.879,500.215 354.216,500.905 354.379,500.693 354.553,500.534 354.727,500.375 354.890,500.163 355.237,500.905 355.401,500.693 355.574,500.534 355.748,500.375 355.921,500.215 356.258,500.905 356.422,500.693 356.595,500.534 356.769,500.375 356.942,500.215 357.280,500.905 357.443,500.693 357.617,500.534 357.790,500.375 357.964,500.216 358.301,500.905 358.474,500.747 358.648,500.587 358.811,500.375 358.985,500.216 359.322,500.905 359.496,500.747 359.659,500.534 359.843,500.428 360.006,500.216 360.343,500.905 360.517,500.747 360.690,500.587 360.864,500.428 361.027,500.216 361.364,500.906 361.538,500.746 361.712,500.587 361.885,500.428 362.049,500.216 362.386,500.906 362.559,500.746 362.733,500.587 362.906,500.428 363.080,500.269 363.407,500.906 363.580,500.746 363.754,500.587 363.927,500.428 364.101,500.269 364.428,500.906 364.601,500.746 364.775,500.587 364.949,500.428 365.122,500.268 365.449,500.906 365.623,500.746 365.796,500.587 365.970,500.428 366.143,500.268 366.470,500.906 366.644,500.746 366.817,500.587 366.991,500.428 367.165,500.268 367.491,500.906 367.665,500.746 367.849,500.640 368.012,500.428 368.176,500.216 368.523,500.958 368.696,500.799 368.860,500.587 369.033,500.428 369.207,500.269 369.544,500.958 369.707,500.746 369.881,500.587 370.055,500.428 370.228,500.269 370.565,500.958 370.739,500.800 370.912,500.640 371.076,500.428 371.249,500.269 371.586,500.958 371.760,500.800 371.923,500.587 372.107,500.481 372.271,500.269 372.608,500.959 372.781,500.800 372.955,500.640 373.118,500.428 373.292,500.269 373.629,500.959 373.802,500.800 373.976,500.640 374.139,500.428 374.323,500.322 374.650,500.959 374.824,500.799 374.997,500.640 375.171,500.481 375.334,500.269 375.671,500.959 375.845,500.799 376.018,500.640 376.182,500.428 376.355,500.269 376.692,500.959 376.866,500.799 "/>
<g>
</g>
</g>
    </g>
    <g>
      <polyline fill="none" stroke="#000000" stroke-width="0.5pt" stroke-dasharray="none" points="172.496,501.070 172.496,499.024 "/>
      <polyline fill="none" stroke="#000000" stroke-width="0.5pt" stroke-dasharray="none" points="223.555,501.070 223.555,499.024 "/>
      <polyline fill="none" stroke="#000000" stroke-width="0.5pt" stroke-dasharray="none" points="274.614,501.070 274.614,499.024 "/>
      <polyline fill="none" stroke="#000000" stroke-width="0.5pt" stroke-dasharray="none" points="325.674,501.070 325.674,499.024 "/>
      <polyline fill="none" stroke="#000000" stroke-width="0.5pt" stroke-dasharray="none" points="376.733,501.070 376.733,499.024 "/>
      <polyline fill="none" stroke="#000000" stroke-width="0.5pt" stroke-dasharray="none" points="172.380,501.070 377.029,501.070 "/>
      <polyline fill="none" stroke="#000000" stroke-width="0.5pt" stroke-dasharray="none" points="172.496,308.995 172.496,311.042 "/>
      <polyline fill="none" stroke="#000000" stroke-width="0.5pt" stroke-dasharray="none" points="223.555,308.995 223.555,311.042 "/>
      <polyline fill="none" stroke="#000000" stroke-width="0.5pt" stroke-dasharray="none" points="274.614,308.995 274.614,311.042 "/>
      <polyline fill="none" stroke="#000000" stroke-width="0.5pt" stroke-dasharray="none" points="325.674,308.995 325.674,311.042 "/>
      <polyline fill="none" stroke="#000000" stroke-width="0.5pt" stroke-dasharray="none" points="376.733,308.995 376.733,311.042 "/>
      <polyline fill="none" stroke="#000000" stroke-width="0.5pt" stroke-dasharray="none" points="172.380,308.995 377.029,308.995 "/>
  <g transform="translate(172.496,512.911)">
    <g transform="rotate(-0.0)">
      <text x="0.000" y="0.000" font-family="Helvetica" text-anchor="middle" font-size="8.0pt" fill="#000000" >4620</text>
    </g>
  </g>
  <g transform="translate(223.555,512.911)">
    <g transform="rotate(-0.0)">
      <text x="0.000" y="0.000" font-family="Helvetica" text-anchor="middle" font-size="8.0pt" fill="#000000" >4625</text>
    </g>
  </g>
  <g transform="translate(274.614,512.911)">
    <g transform="rotate(-0.0)">
      <text x="0.000" y="0.000" font-family="Helvetica" text-anchor="middle" font-size="8.0pt" fill="#000000" >4630</text>
    </g>
  </g>
  <g transform="translate(325.674,512.911)">
    <g transform="rotate(-0.0)">
      <text x="0.000" y="0.000" font-family="Helvetica" text-anchor="middle" font-size="8.0pt" fill="#000000" >4635</text>
    </g>
  </g>
  <g transform="translate(376.733,512.911)">
    <g transform="rotate(-0.0)">
      <text x="0.000" y="0.000" font-family="Helvetica" text-anchor="middle" font-size="8.0pt" fill="#000000" >4640</text>
    </g>
  </g>
      <polyline fill="none" stroke="#000000" stroke-width="0.5pt" stroke-dasharray="none" points="172.380,500.110 174.426,500.110 "/>
      <polyline fill="none" stroke="#000000" stroke-width="0.5pt" stroke-dasharray="none" points="172.380,447.036 174.426,447.036 "/>
      <polyline fill="none" stroke="#000000" stroke-width="0.5pt" stroke-dasharray="none" points="172.380,393.961 174.426,393.961 "/>
      <polyline fill="none" stroke="#000000" stroke-width="0.5pt" stroke-dasharray="none" points="172.380,340.887 174.426,340.887 "/>
      <polyline fill="none" stroke="#000000" stroke-width="0.5pt" stroke-dasharray="none" points="172.380,501.070 172.380,308.995 "/>
      <polyline fill="none" stroke="#000000" stroke-width="0.5pt" stroke-dasharray="none" points="377.029,500.110 374.982,500.110 "/>
      <polyline fill="none" stroke="#000000" stroke-width="0.5pt" stroke-dasharray="none" points="377.029,447.036 374.982,447.036 "/>
      <polyline fill="none" stroke="#000000" stroke-width="0.5pt" stroke-dasharray="none" points="377.029,393.961 374.982,393.961 "/>
      <polyline fill="none" stroke="#000000" stroke-width="0.5pt" stroke-dasharray="none" points="377.029,340.887 374.982,340.887 "/>
      <polyline fill="none" stroke="#000000" stroke-width="0.5pt" stroke-dasharray="none" points="377.029,501.070 377.029,308.995 "/>
  <g transform="translate(168.287,503.110)">
    <g transform="rotate(-0.0)">
      <text x="0.000" y="0.000" font-family="Helvetica" text-anchor="end" font-size="8.0pt" fill="#000000" >0</text>
    </g>
  </g>
  <g transform="translate(168.287,450.036)">
    <g transform="rotate(-0.0)">
      <text x="0.000" y="0.000" font-family="Helvetica" text-anchor="end" font-size="8.0pt" fill="#000000" >1</text>
    </g>
  </g>
  <g transform="translate(168.287,396.961)">
    <g transform="rotate(-0.0)">
      <text x="0.000" y="0.000" font-family="Helvetica" text-anchor="end" font-size="8.0pt" fill="#000000" >2</text>
    </g>
  </g>
  <g transform="translate(168.287,343.887)">
    <g transform="rotate(-0.0)">
      <text x="0.000" y="0.000" font-family="Helvetica" text-anchor="end" font-size="8.0pt" fill="#000000" >3</text>
    </g>
  </g>
      <polyline fill="none" stroke="#000000" stroke-width="0.5pt" stroke-dasharray="none" points="172.380,501.070 172.380,499.149 "/>
      <polyline fill="none" stroke="#000000" stroke-width="0.5pt" stroke-dasharray="none" points="172.380,501.070 172.380,501.070 "/>
    </g>
  </g>
  <g>
  <clipPath id="ID000002">
    <rect x="445.691" y="42.225" width="204.649" height="192.075"/>
  </clipPath>
      <polyline fill="#ffffff" fill-opacity="1.00" stroke="none" stroke-width="0.5pt" stroke-opacity="1.00" stroke-dasharray="none" points="445.691,234.300 650.340,234.300 650.340,42.225 445.691,42.225 "/>
      <polyline fill="#ffffff" fill-opacity="1.00" stroke="none" stroke-width="0.5pt" stroke-opacity="1.00" stroke-dasharray="none" points="445.691,42.225 650.340,42.225 650.340,42.225 445.691,42.225 "/>
      <polyline fill="#ffffff" fill-opacity="1.00" stroke="none" stroke-width="0.5pt" stroke-opacity="1.00" stroke-dasharray="none" points="445.691,234.300 445.691,234.300 445.691,42.225 445.691,42.225 "/>
    <g>
<g clip-path="url(#ID000002)">
<image x="445.691" y="42.225" width="204.649" height="192.075" image-rendering="optimizeSpeed" preserveAspectRatio="none" xlink:href="headToHeadDecoding003.png" />
</g>
<g clip-path="url(#ID000002)">
      <polyline fill="none" stroke="#ffffff" stroke-width="0.5pt" stroke-dasharray="none" points="446.132,55.134 447.101,55.006 448.069,54.644 449.037,54.153 450.006,53.428 450.974,52.575 451.943,51.613 452.911,50.887 453.880,50.162 454.848,49.562 455.816,49.073 456.785,48.347 457.753,110.731 458.722,228.650 459.690,228.398 460.659,227.673 461.627,226.947 462.595,226.221 463.564,225.621 464.532,225.133 465.501,224.407 466.469,223.681 467.438,222.955 468.406,222.355 469.374,221.867 470.343,221.141 471.311,220.415 472.280,219.690 473.248,218.716 474.217,217.388 475.185,216.300 476.153,215.211 477.122,214.246 478.090,213.520 479.059,212.794 480.027,212.315 480.996,212.192 481.964,211.829 482.932,211.466 483.901,211.103 484.869,210.741 485.838,210.378 486.806,210.015 487.775,209.652 488.743,209.289 489.711,208.926 490.680,208.563 491.648,208.200 492.617,207.716 493.585,206.869 494.554,205.780 495.522,204.692 496.490,203.603 497.459,202.756 498.427,202.393 499.396,201.910 500.364,201.304 501.333,201.062 502.301,200.942 503.269,200.699 504.238,200.819 505.206,201.062 506.175,200.942 507.143,200.460 508.112,199.734 509.080,199.128 510.048,198.646 511.017,198.039 511.985,197.795 512.954,197.676 513.922,197.195 514.891,196.587 515.859,196.106 516.827,195.380 517.796,194.773 518.764,194.528 519.733,194.646 520.701,194.891 521.670,195.009 522.638,195.254 523.606,195.254 524.575,195.254 525.543,195.254 526.512,195.137 527.480,194.891 528.449,194.657 529.417,193.932 530.385,193.322 531.354,192.843 532.322,192.234 533.291,191.871 534.259,191.624 535.228,191.508 536.196,191.145 537.164,190.782 538.133,190.304 539.101,189.578 540.070,188.852 541.038,188.242 542.007,187.879 542.975,187.631 543.943,187.516 544.912,187.153 545.880,186.676 546.849,185.950 547.817,185.224 548.786,184.385 549.754,183.410 550.723,182.570 551.691,181.482 552.659,180.620 553.628,180.144 554.596,179.418 555.565,178.579 556.533,177.491 557.502,176.289 558.470,174.950 559.438,173.862 560.407,172.886 561.375,172.047 562.344,170.959 563.312,169.870 564.281,168.782 565.249,167.805 566.217,167.079 567.186,166.353 568.154,165.628 569.123,164.902 570.091,164.287 571.060,163.813 572.028,163.199 572.996,162.836 573.965,162.473 574.933,161.999 575.902,161.384 576.870,161.021 577.839,160.438 578.807,159.459 579.775,158.624 580.744,157.645 581.712,157.029 582.681,156.666 583.649,156.412 584.618,156.303 585.586,155.940 586.554,155.577 587.523,155.215 588.491,154.852 589.460,154.380 590.428,153.763 591.397,153.292 592.365,152.674 593.333,152.311 594.302,151.840 595.270,151.330 596.239,151.223 597.207,150.860 598.176,150.389 599.144,149.771 600.112,149.301 601.081,148.575 602.049,147.956 603.018,147.487 603.986,146.761 604.955,146.035 605.923,145.203 606.891,144.221 607.860,143.389 608.828,142.300 609.797,141.317 610.765,140.486 611.734,139.397 612.702,138.414 613.670,137.794 614.639,137.326 615.607,136.705 616.576,136.237 617.544,135.511 618.513,134.786 619.481,133.955 620.449,132.971 621.418,132.245 622.386,131.520 623.355,130.690 624.323,129.601 625.292,128.512 626.260,127.424 627.228,126.335 628.197,125.350 629.165,124.521 630.134,123.536 631.102,122.913 632.071,122.344 633.039,121.358 634.007,120.530 634.976,119.544 635.944,118.716 636.913,117.729 637.881,117.004 638.850,116.176 639.818,115.189 640.786,114.463 641.755,113.738 642.723,113.012 643.692,112.286 644.660,111.459 645.629,110.472 646.597,109.746 647.565,109.121 648.534,108.758 "/>
<g>
</g>
</g>
    </g>
    <g>
      <polyline fill="none" stroke="#000000" stroke-width="0.5pt" stroke-dasharray="none" points="475.354,234.300 475.354,232.253 "/>
      <polyline fill="none" stroke="#000000" stroke-width="0.5pt" stroke-dasharray="none" points="533.460,234.300 533.460,232.253 "/>
      <polyline fill="none" stroke="#000000" stroke-width="0.5pt" stroke-dasharray="none" points="591.566,234.300 591.566,232.253 "/>
      <polyline fill="none" stroke="#000000" stroke-width="0.5pt" stroke-dasharray="none" points="649.672,234.300 649.672,232.253 "/>
      <polyline fill="none" stroke="#000000" stroke-width="0.5pt" stroke-dasharray="none" points="445.691,234.300 650.340,234.300 "/>
      <polyline fill="none" stroke="#000000" stroke-width="0.5pt" stroke-dasharray="none" points="475.354,42.225 475.354,44.271 "/>
      <polyline fill="none" stroke="#000000" stroke-width="0.5pt" stroke-dasharray="none" points="533.460,42.225 533.460,44.271 "/>
      <polyline fill="none" stroke="#000000" stroke-width="0.5pt" stroke-dasharray="none" points="591.566,42.225 591.566,44.271 "/>
      <polyline fill="none" stroke="#000000" stroke-width="0.5pt" stroke-dasharray="none" points="649.672,42.225 649.672,44.271 "/>
      <polyline fill="none" stroke="#000000" stroke-width="0.5pt" stroke-dasharray="none" points="445.691,42.225 650.340,42.225 "/>
  <g transform="translate(475.354,246.141)">
    <g transform="rotate(-0.0)">
      <text x="0.000" y="0.000" font-family="Helvetica" text-anchor="middle" font-size="8.0pt" fill="#000000" >5602</text>
    </g>
  </g>
  <g transform="translate(533.460,246.141)">
    <g transform="rotate(-0.0)">
      <text x="0.000" y="0.000" font-family="Helvetica" text-anchor="middle" font-size="8.0pt" fill="#000000" >5604</text>
    </g>
  </g>
  <g transform="translate(591.566,246.141)">
    <g transform="rotate(-0.0)">
      <text x="0.000" y="0.000" font-family="Helvetica" text-anchor="middle" font-size="8.0pt" fill="#000000" >5606</text>
    </g>
  </g>
  <g transform="translate(649.672,246.141)">
    <g transform="rotate(-0.0)">
      <text x="0.000" y="0.000" font-family="Helvetica" text-anchor="middle" font-size="8.0pt" fill="#000000" >5608</text>
    </g>
  </g>
      <polyline fill="none" stroke="#000000" stroke-width="0.5pt" stroke-dasharray="none" points="445.691,228.650 447.738,228.650 "/>
      <polyline fill="none" stroke="#000000" stroke-width="0.5pt" stroke-dasharray="none" points="445.691,178.194 447.738,178.194 "/>
      <polyline fill="none" stroke="#000000" stroke-width="0.5pt" stroke-dasharray="none" points="445.691,127.737 447.738,127.737 "/>
      <polyline fill="none" stroke="#000000" stroke-width="0.5pt" stroke-dasharray="none" points="445.691,77.280 447.738,77.280 "/>
      <polyline fill="none" stroke="#000000" stroke-width="0.5pt" stroke-dasharray="none" points="445.691,234.300 445.691,42.225 "/>
      <polyline fill="none" stroke="#000000" stroke-width="0.5pt" stroke-dasharray="none" points="650.340,228.650 648.294,228.650 "/>
      <polyline fill="none" stroke="#000000" stroke-width="0.5pt" stroke-dasharray="none" points="650.340,178.194 648.294,178.194 "/>
      <polyline fill="none" stroke="#000000" stroke-width="0.5pt" stroke-dasharray="none" points="650.340,127.737 648.294,127.737 "/>
      <polyline fill="none" stroke="#000000" stroke-width="0.5pt" stroke-dasharray="none" points="650.340,77.280 648.294,77.280 "/>
      <polyline fill="none" stroke="#000000" stroke-width="0.5pt" stroke-dasharray="none" points="650.340,234.300 650.340,42.225 "/>
  <g transform="translate(441.598,231.650)">
    <g transform="rotate(-0.0)">
      <text x="0.000" y="0.000" font-family="Helvetica" text-anchor="end" font-size="8.0pt" fill="#000000" >0</text>
    </g>
  </g>
  <g transform="translate(441.598,181.194)">
    <g transform="rotate(-0.0)">
      <text x="0.000" y="0.000" font-family="Helvetica" text-anchor="end" font-size="8.0pt" fill="#000000" >1</text>
    </g>
  </g>
  <g transform="translate(441.598,130.737)">
    <g transform="rotate(-0.0)">
      <text x="0.000" y="0.000" font-family="Helvetica" text-anchor="end" font-size="8.0pt" fill="#000000" >2</text>
    </g>
  </g>
  <g transform="translate(441.598,80.280)">
    <g transform="rotate(-0.0)">
      <text x="0.000" y="0.000" font-family="Helvetica" text-anchor="end" font-size="8.0pt" fill="#000000" >3</text>
    </g>
  </g>
      <polyline fill="none" stroke="#000000" stroke-width="0.5pt" stroke-dasharray="none" points="445.691,234.300 445.691,232.379 "/>
      <polyline fill="none" stroke="#000000" stroke-width="0.5pt" stroke-dasharray="none" points="445.691,234.300 445.691,234.300 "/>
    </g>
  </g>
  <g>
  <clipPath id="ID000003">
    <rect x="445.691" y="308.995" width="204.649" height="192.075"/>
  </clipPath>
      <polyline fill="#ffffff" fill-opacity="1.00" stroke="none" stroke-width="0.5pt" stroke-opacity="1.00" stroke-dasharray="none" points="445.691,501.070 650.340,501.070 650.340,308.995 445.691,308.995 "/>
      <polyline fill="#ffffff" fill-opacity="1.00" stroke="none" stroke-width="0.5pt" stroke-opacity="1.00" stroke-dasharray="none" points="445.691,308.995 650.340,308.995 650.340,308.995 445.691,308.995 "/>
      <polyline fill="#ffffff" fill-opacity="1.00" stroke="none" stroke-width="0.5pt" stroke-opacity="1.00" stroke-dasharray="none" points="445.691,501.070 445.691,501.070 445.691,308.995 445.691,308.995 "/>
    <g>
<g clip-path="url(#ID000003)">
<image x="445.691" y="308.995" width="204.649" height="192.075" image-rendering="optimizeSpeed" preserveAspectRatio="none" xlink:href="headToHeadDecoding004.png" />
</g>
<g clip-path="url(#ID000003)">
      <polyline fill="none" stroke="#ffffff" stroke-width="0.5pt" stroke-dasharray="none" points="446.038,317.592 447.007,317.458 447.976,317.076 448.945,316.560 449.914,315.797 450.883,314.900 451.852,313.888 452.821,313.125 453.790,312.362 454.759,311.731 455.728,311.217 456.696,310.453 457.665,376.073 458.634,500.110 459.603,499.845 460.572,499.081 461.541,498.318 462.510,497.554 463.479,496.923 464.448,496.409 465.417,495.646 466.386,494.883 467.355,494.119 468.324,493.487 469.293,492.974 470.262,492.211 471.231,491.448 472.200,490.684 473.169,489.660 474.138,488.263 475.107,487.118 476.076,485.973 477.045,484.958 478.014,484.195 478.983,483.431 479.952,482.927 480.921,482.798 481.890,482.416 482.859,482.034 483.828,481.652 484.797,481.271 485.766,480.889 486.734,480.507 487.703,480.126 488.672,479.744 489.641,479.362 490.610,478.981 491.579,478.599 492.548,478.089 493.517,477.198 494.486,476.053 495.455,474.908 496.424,473.763 497.393,472.872 498.362,472.490 499.331,471.982 500.300,471.345 501.269,471.090 502.238,470.964 503.207,470.708 504.176,470.835 505.145,471.090 506.114,470.964 507.083,470.457 508.052,469.693 509.021,469.055 509.990,468.548 510.959,467.910 511.928,467.654 512.897,467.529 513.866,467.022 514.835,466.383 515.804,465.877 516.773,465.114 517.741,464.475 518.710,464.217 519.679,464.341 520.648,464.599 521.617,464.723 522.586,464.981 523.555,464.981 524.524,464.981 525.493,464.981 526.462,464.858 527.431,464.599 528.400,464.353 529.369,463.590 530.338,462.949 531.307,462.445 532.276,461.804 533.245,461.422 534.214,461.162 535.183,461.040 536.152,460.659 537.121,460.277 538.090,459.774 539.059,459.011 540.028,458.247 540.997,457.605 541.966,457.223 542.935,456.962 543.904,456.842 544.873,456.460 545.842,455.958 546.811,455.194 547.779,454.431 548.748,453.548 549.717,452.522 550.686,451.639 551.655,450.494 552.624,449.588 553.593,449.087 554.562,448.323 555.531,447.441 556.500,446.296 557.469,445.032 558.438,443.624 559.407,442.479 560.376,441.452 561.345,440.570 562.314,439.425 563.283,438.280 564.252,437.135 565.221,436.108 566.190,435.344 567.159,434.581 568.128,433.817 569.097,433.054 570.066,432.408 571.035,431.909 572.004,431.262 572.973,430.881 573.942,430.499 574.911,430.001 575.880,429.354 576.849,428.972 577.818,428.359 578.786,427.329 579.755,426.450 580.724,425.421 581.693,424.773 582.662,424.391 583.631,424.124 584.600,424.009 585.569,423.628 586.538,423.246 587.507,422.864 588.476,422.483 589.445,421.987 590.414,421.337 591.383,420.842 592.352,420.192 593.321,419.810 594.290,419.315 595.259,418.779 596.228,418.665 597.197,418.284 598.166,417.789 599.135,417.138 600.104,416.644 601.073,415.880 602.042,415.230 603.011,414.735 603.980,413.972 604.949,413.209 605.918,412.333 606.887,411.300 607.856,410.425 608.824,409.280 609.793,408.246 610.762,407.372 611.731,406.226 612.700,405.192 613.669,404.540 614.638,404.047 615.607,403.395 616.576,402.902 617.545,402.139 618.514,401.376 619.483,400.502 620.452,399.467 621.421,398.704 622.390,397.940 623.359,397.067 624.328,395.922 625.297,394.777 626.266,393.632 627.235,392.487 628.204,391.451 629.173,390.578 630.142,389.542 631.111,388.887 632.080,388.289 633.049,387.252 634.018,386.380 634.987,385.343 635.956,384.472 636.925,383.434 637.894,382.671 638.863,381.800 639.831,380.762 640.800,379.999 641.769,379.236 642.738,378.472 643.707,377.709 644.676,376.839 645.645,375.800 646.614,375.037 647.583,374.380 648.552,373.998 "/>
<g>
</g>
</g>
<g clip-path="url(#ID000003)">
      <polyline fill="none" stroke="#0000ff" stroke-width="0.5pt" stroke-dasharray="none" points="445.888,500.587 446.411,500.481 446.876,500.268 447.835,500.958 448.329,500.799 448.794,500.587 449.289,500.428 449.783,500.268 450.742,500.958 451.236,500.799 451.731,500.640 452.195,500.428 452.690,500.268 453.649,500.958 454.143,500.799 454.637,500.640 455.102,500.428 455.597,500.269 456.556,500.958 457.050,500.800 457.515,500.587 458.038,500.481 458.998,501.171 459.492,501.012 459.957,500.800 460.451,500.640 460.945,500.481 461.411,500.269 462.399,501.012 463.358,501.702 463.823,501.490 464.317,501.330 464.812,501.171 465.277,500.959 465.800,500.852 466.265,500.640 466.759,500.481 467.253,500.322 468.184,500.959 468.678,500.800 469.172,500.640 469.666,500.481 470.160,500.322 471.119,501.012 471.585,500.799 472.079,500.640 472.573,500.481 473.067,500.322 473.997,500.959 474.492,500.799 474.986,500.640 475.509,500.534 475.974,500.322 476.526,500.268 477.427,500.852 477.893,500.640 478.387,500.481 478.881,500.322 479.840,501.012 480.334,500.852 481.294,501.542 481.323,500.534 482.282,501.224 482.747,501.012 483.241,500.852 483.736,500.693 484.200,500.481 484.724,500.375 485.654,501.012 486.148,500.852 486.613,500.640 487.107,500.481 487.602,500.322 488.561,501.011 489.055,500.853 489.549,500.693 490.014,500.481 490.509,500.322 491.468,501.011 491.962,500.853 492.456,500.693 492.950,500.534 493.416,500.322 493.939,500.215 494.927,500.959 495.828,501.543 495.857,500.534 496.817,501.224 497.311,501.065 497.776,500.853 498.270,500.693 498.764,500.534 499.258,500.375 500.189,501.012 500.683,500.853 501.177,500.693 501.642,500.481 502.165,500.375 503.124,501.065 503.619,500.905 504.113,500.746 504.578,500.534 505.101,500.428 506.031,501.065 506.525,500.905 506.991,500.693 507.514,500.587 507.979,500.375 508.938,501.065 509.403,500.853 509.898,500.693 510.392,500.534 510.886,500.375 511.409,500.269 512.397,501.012 513.328,501.649 513.764,501.383 513.822,500.428 514.752,501.065 515.246,500.905 515.711,500.693 516.235,500.587 516.700,500.375 517.223,500.269 518.211,501.012 519.142,501.649 519.607,501.437 520.101,501.277 520.566,501.065 521.060,500.906 521.554,500.746 522.019,500.534 522.514,500.375 523.066,500.322 523.967,500.906 524.432,500.693 524.955,500.587 525.421,500.375 525.885,500.162 526.874,500.906 527.368,500.746 527.833,500.534 528.327,500.375 528.822,500.216 529.781,500.906 530.275,500.746 530.769,500.587 532.223,502.179 532.281,501.224 532.688,500.906 533.153,500.694 533.676,500.587 534.141,500.375 534.635,500.216 535.595,500.906 536.089,500.746 536.612,500.640 537.048,500.375 537.571,500.268 538.530,500.958 538.996,500.746 539.490,500.587 540.449,501.277 540.943,501.118 541.408,500.906 541.903,500.746 542.397,500.587 542.891,500.428 543.385,500.269 544.315,500.906 544.839,500.800 545.304,500.587 545.798,500.428 546.321,500.322 547.251,500.958 547.746,500.800 548.210,500.587 548.705,500.428 549.199,500.269 550.158,500.959 550.652,500.800 551.117,500.587 551.641,500.481 552.571,501.118 553.065,500.959 554.024,501.648 554.519,501.490 555.013,501.330 555.478,501.118 555.972,500.959 556.466,500.800 556.960,500.640 557.426,500.428 557.890,500.215 558.879,500.959 559.344,500.746 559.838,500.587 560.332,500.428 561.292,501.118 561.786,500.959 561.931,500.163 563.239,501.489 563.733,501.330 563.762,500.322 564.722,501.012 565.652,501.649 565.710,500.694 566.640,501.330 566.669,500.322 567.600,500.959 568.094,500.799 568.559,500.587 569.053,500.428 569.547,500.269 570.536,501.012 571.001,500.799 571.960,501.489 572.454,501.330 572.948,501.171 573.413,500.959 573.908,500.799 574.373,500.587 574.867,500.428 575.390,500.322 576.320,500.959 576.814,500.799 577.309,500.640 577.774,500.428 578.297,500.322 579.227,500.959 579.721,500.799 580.215,500.640 580.681,500.428 581.204,500.322 582.134,500.959 582.628,500.799 583.093,500.587 583.617,500.481 584.111,500.322 585.041,500.959 585.535,500.799 586.029,500.640 586.524,500.481 587.018,500.322 587.977,501.012 588.936,501.702 589.431,501.543 589.895,501.330 590.390,501.171 590.419,500.163 591.843,501.702 592.337,501.543 592.802,501.330 593.297,501.171 593.791,501.012 594.256,500.800 594.779,500.693 595.244,500.481 595.767,500.375 596.698,501.012 597.163,500.800 597.657,500.640 598.151,500.481 598.645,500.322 599.605,501.012 600.099,500.852 600.564,500.640 601.087,500.534 601.552,500.322 602.512,501.012 602.977,500.800 603.471,500.640 603.965,500.481 604.459,500.322 605.942,501.967 606.000,501.011 606.872,501.542 606.930,500.587 607.366,500.322 607.889,500.216 609.314,501.755 609.779,501.542 610.273,501.383 610.738,501.171 610.796,500.216 611.785,500.959 612.715,501.596 612.744,500.587 613.674,501.224 614.139,501.012 614.633,500.852 615.098,500.640 615.593,500.481 616.116,500.375 616.639,500.268 618.035,501.755 618.499,501.542 618.994,501.383 619.488,501.224 619.517,500.216 620.941,501.755 621.406,501.542 621.900,501.383 622.395,501.224 622.453,500.268 623.848,501.755 624.342,501.596 624.837,501.436 625.302,501.224 625.767,501.012 626.261,500.853 626.784,500.746 627.249,500.534 627.715,500.322 628.238,500.216 629.226,500.958 630.156,501.596 630.185,500.587 631.116,501.224 631.610,501.065 632.104,500.906 633.092,501.648 633.528,501.383 634.022,501.224 634.517,501.065 635.011,500.906 635.505,500.746 635.970,500.534 636.464,500.375 637.423,501.065 637.918,500.905 638.412,500.746 638.877,500.534 639.371,500.375 639.865,500.215 640.825,500.905 641.290,500.693 641.813,500.587 642.278,500.375 642.801,500.269 643.731,500.905 644.226,500.746 644.720,500.587 645.185,500.375 645.679,500.215 646.638,500.905 647.132,500.746 647.627,500.587 648.121,500.428 648.615,500.269 649.574,500.959 650.069,500.799 "/>
<g>
</g>
</g>
    </g>
    <g>
      <polyline fill="none" stroke="#000000" stroke-width="0.5pt" stroke-dasharray="none" points="475.276,501.070 475.276,499.024 "/>
      <polyline fill="none" stroke="#000000" stroke-width="0.5pt" stroke-dasharray="none" points="533.415,501.070 533.415,499.024 "/>
      <polyline fill="none" stroke="#000000" stroke-width="0.5pt" stroke-dasharray="none" points="591.553,501.070 591.553,499.024 "/>
      <polyline fill="none" stroke="#000000" stroke-width="0.5pt" stroke-dasharray="none" points="649.691,501.070 649.691,499.024 "/>
      <polyline fill="none" stroke="#000000" stroke-width="0.5pt" stroke-dasharray="none" points="445.691,501.070 650.340,501.070 "/>
      <polyline fill="none" stroke="#000000" stroke-width="0.5pt" stroke-dasharray="none" points="475.276,308.995 475.276,311.042 "/>
      <polyline fill="none" stroke="#000000" stroke-width="0.5pt" stroke-dasharray="none" points="533.415,308.995 533.415,311.042 "/>
      <polyline fill="none" stroke="#000000" stroke-width="0.5pt" stroke-dasharray="none" points="591.553,308.995 591.553,311.042 "/>
      <polyline fill="none" stroke="#000000" stroke-width="0.5pt" stroke-dasharray="none" points="649.691,308.995 649.691,311.042 "/>
      <polyline fill="none" stroke="#000000" stroke-width="0.5pt" stroke-dasharray="none" points="445.691,308.995 650.340,308.995 "/>
  <g transform="translate(475.276,512.911)">
    <g transform="rotate(-0.0)">
      <text x="0.000" y="0.000" font-family="Helvetica" text-anchor="middle" font-size="8.0pt" fill="#000000" >5602</text>
    </g>
  </g>
  <g transform="translate(533.415,512.911)">
    <g transform="rotate(-0.0)">
      <text x="0.000" y="0.000" font-family="Helvetica" text-anchor="middle" font-size="8.0pt" fill="#000000" >5604</text>
    </g>
  </g>
  <g transform="translate(591.553,512.911)">
    <g transform="rotate(-0.0)">
      <text x="0.000" y="0.000" font-family="Helvetica" text-anchor="middle" font-size="8.0pt" fill="#000000" >5606</text>
    </g>
  </g>
  <g transform="translate(649.691,512.911)">
    <g transform="rotate(-0.0)">
      <text x="0.000" y="0.000" font-family="Helvetica" text-anchor="middle" font-size="8.0pt" fill="#000000" >5608</text>
    </g>
  </g>
      <polyline fill="none" stroke="#000000" stroke-width="0.5pt" stroke-dasharray="none" points="445.691,500.110 447.738,500.110 "/>
      <polyline fill="none" stroke="#000000" stroke-width="0.5pt" stroke-dasharray="none" points="445.691,447.036 447.738,447.036 "/>
      <polyline fill="none" stroke="#000000" stroke-width="0.5pt" stroke-dasharray="none" points="445.691,393.961 447.738,393.961 "/>
      <polyline fill="none" stroke="#000000" stroke-width="0.5pt" stroke-dasharray="none" points="445.691,340.887 447.738,340.887 "/>
      <polyline fill="none" stroke="#000000" stroke-width="0.5pt" stroke-dasharray="none" points="445.691,501.070 445.691,308.995 "/>
      <polyline fill="none" stroke="#000000" stroke-width="0.5pt" stroke-dasharray="none" points="650.340,500.110 648.294,500.110 "/>
      <polyline fill="none" stroke="#000000" stroke-width="0.5pt" stroke-dasharray="none" points="650.340,447.036 648.294,447.036 "/>
      <polyline fill="none" stroke="#000000" stroke-width="0.5pt" stroke-dasharray="none" points="650.340,393.961 648.294,393.961 "/>
      <polyline fill="none" stroke="#000000" stroke-width="0.5pt" stroke-dasharray="none" points="650.340,340.887 648.294,340.887 "/>
      <polyline fill="none" stroke="#000000" stroke-width="0.5pt" stroke-dasharray="none" points="650.340,501.070 650.340,308.995 "/>
  <g transform="translate(441.598,503.110)">
    <g transform="rotate(-0.0)">
      <text x="0.000" y="0.000" font-family="Helvetica" text-anchor="end" font-size="8.0pt" fill="#000000" >0</text>
    </g>
  </g>
  <g transform="translate(441.598,450.036)">
    <g transform="rotate(-0.0)">
      <text x="0.000" y="0.000" font-family="Helvetica" text-anchor="end" font-size="8.0pt" fill="#000000" >1</text>
    </g>
  </g>
  <g transform="translate(441.598,396.961)">
    <g transform="rotate(-0.0)">
      <text x="0.000" y="0.000" font-family="Helvetica" text-anchor="end" font-size="8.0pt" fill="#000000" >2</text>
    </g>
  </g>
  <g transform="translate(441.598,343.887)">
    <g transform="rotate(-0.0)">
      <text x="0.000" y="0.000" font-family="Helvetica" text-anchor="end" font-size="8.0pt" fill="#000000" >3</text>
    </g>
  </g>
      <polyline fill="none" stroke="#000000" stroke-width="0.5pt" stroke-dasharray="none" points="445.691,501.070 445.691,499.149 "/>
      <polyline fill="none" stroke="#000000" stroke-width="0.5pt" stroke-dasharray="none" points="445.691,501.070 445.691,501.070 "/>
    </g>
  </g>
  <g>
  <clipPath id="ID000004">
    <rect x="719.002" y="42.225" width="204.649" height="192.075"/>
  </clipPath>
      <polyline fill="#ffffff" fill-opacity="1.00" stroke="none" stroke-width="0.5pt" stroke-opacity="1.00" stroke-dasharray="none" points="719.002,234.300 923.651,234.300 923.651,42.225 719.002,42.225 "/>
      <polyline fill="#ffffff" fill-opacity="1.00" stroke="none" stroke-width="0.5pt" stroke-opacity="1.00" stroke-dasharray="none" points="719.002,42.225 923.651,42.225 923.651,42.225 719.002,42.225 "/>
      <polyline fill="#ffffff" fill-opacity="1.00" stroke="none" stroke-width="0.5pt" stroke-opacity="1.00" stroke-dasharray="none" points="719.002,234.300 719.002,234.300 719.002,42.225 719.002,42.225 "/>
    <g>
<g clip-path="url(#ID000004)">
<image x="719.002" y="42.225" width="204.649" height="192.075" image-rendering="optimizeSpeed" preserveAspectRatio="none" xlink:href="headToHeadDecoding005.png" />
</g>
<g clip-path="url(#ID000004)">
      <polyline fill="none" stroke="#ffffff" stroke-width="0.5pt" stroke-dasharray="none" points="721.202,180.693 727.780,179.604 734.359,178.247 740.937,176.701 747.516,175.613 754.095,174.390 760.673,173.072 767.252,172.117 773.830,171.258 780.409,170.036 786.988,168.585 793.566,167.266 800.145,166.178 806.723,165.222 813.302,164.496 819.880,163.903 826.459,163.408 833.038,162.682 839.616,161.824 846.195,160.999 852.773,160.637 859.352,160.274 865.931,159.779 872.509,159.185 879.088,158.691 885.666,157.965 892.245,157.239 898.824,156.644 905.402,156.281 911.981,155.919 "/>
<g>
</g>
</g>
    </g>
    <g>
      <polyline fill="none" stroke="#000000" stroke-width="0.5pt" stroke-dasharray="none" points="722.353,234.300 722.353,232.253 "/>
      <polyline fill="none" stroke="#000000" stroke-width="0.5pt" stroke-dasharray="none" points="821.032,234.300 821.032,232.253 "/>
      <polyline fill="none" stroke="#000000" stroke-width="0.5pt" stroke-dasharray="none" points="919.711,234.300 919.711,232.253 "/>
      <polyline fill="none" stroke="#000000" stroke-width="0.5pt" stroke-dasharray="none" points="719.002,234.300 923.651,234.300 "/>
      <polyline fill="none" stroke="#000000" stroke-width="0.5pt" stroke-dasharray="none" points="722.353,42.225 722.353,44.271 "/>
      <polyline fill="none" stroke="#000000" stroke-width="0.5pt" stroke-dasharray="none" points="821.032,42.225 821.032,44.271 "/>
      <polyline fill="none" stroke="#000000" stroke-width="0.5pt" stroke-dasharray="none" points="919.711,42.225 919.711,44.271 "/>
      <polyline fill="none" stroke="#000000" stroke-width="0.5pt" stroke-dasharray="none" points="719.002,42.225 923.651,42.225 "/>
  <g transform="translate(722.353,246.141)">
    <g transform="rotate(-0.0)">
      <text x="0.000" y="0.000" font-family="Helvetica" text-anchor="middle" font-size="8.0pt" fill="#000000" >5131</text>
    </g>
  </g>
  <g transform="translate(821.032,246.141)">
    <g transform="rotate(-0.0)">
      <text x="0.000" y="0.000" font-family="Helvetica" text-anchor="middle" font-size="8.0pt" fill="#000000" >5131.5</text>
    </g>
  </g>
  <g transform="translate(919.711,246.141)">
    <g transform="rotate(-0.0)">
      <text x="0.000" y="0.000" font-family="Helvetica" text-anchor="middle" font-size="8.0pt" fill="#000000" >5132</text>
    </g>
  </g>
      <polyline fill="none" stroke="#000000" stroke-width="0.5pt" stroke-dasharray="none" points="719.002,228.650 721.049,228.650 "/>
      <polyline fill="none" stroke="#000000" stroke-width="0.5pt" stroke-dasharray="none" points="719.002,178.194 721.049,178.194 "/>
      <polyline fill="none" stroke="#000000" stroke-width="0.5pt" stroke-dasharray="none" points="719.002,127.737 721.049,127.737 "/>
      <polyline fill="none" stroke="#000000" stroke-width="0.5pt" stroke-dasharray="none" points="719.002,77.280 721.049,77.280 "/>
      <polyline fill="none" stroke="#000000" stroke-width="0.5pt" stroke-dasharray="none" points="719.002,234.300 719.002,42.225 "/>
      <polyline fill="none" stroke="#000000" stroke-width="0.5pt" stroke-dasharray="none" points="923.651,228.650 921.605,228.650 "/>
      <polyline fill="none" stroke="#000000" stroke-width="0.5pt" stroke-dasharray="none" points="923.651,178.194 921.605,178.194 "/>
      <polyline fill="none" stroke="#000000" stroke-width="0.5pt" stroke-dasharray="none" points="923.651,127.737 921.605,127.737 "/>
      <polyline fill="none" stroke="#000000" stroke-width="0.5pt" stroke-dasharray="none" points="923.651,77.280 921.605,77.280 "/>
      <polyline fill="none" stroke="#000000" stroke-width="0.5pt" stroke-dasharray="none" points="923.651,234.300 923.651,42.225 "/>
  <g transform="translate(714.909,231.650)">
    <g transform="rotate(-0.0)">
      <text x="0.000" y="0.000" font-family="Helvetica" text-anchor="end" font-size="8.0pt" fill="#000000" >0</text>
    </g>
  </g>
  <g transform="translate(714.909,181.194)">
    <g transform="rotate(-0.0)">
      <text x="0.000" y="0.000" font-family="Helvetica" text-anchor="end" font-size="8.0pt" fill="#000000" >1</text>
    </g>
  </g>
  <g transform="translate(714.909,130.737)">
    <g transform="rotate(-0.0)">
      <text x="0.000" y="0.000" font-family="Helvetica" text-anchor="end" font-size="8.0pt" fill="#000000" >2</text>
    </g>
  </g>
  <g transform="translate(714.909,80.280)">
    <g transform="rotate(-0.0)">
      <text x="0.000" y="0.000" font-family="Helvetica" text-anchor="end" font-size="8.0pt" fill="#000000" >3</text>
    </g>
  </g>
      <polyline fill="none" stroke="#000000" stroke-width="0.5pt" stroke-dasharray="none" points="719.002,234.300 719.002,232.379 "/>
      <polyline fill="none" stroke="#000000" stroke-width="0.5pt" stroke-dasharray="none" points="719.002,234.300 719.002,234.300 "/>
    </g>
  </g>
  <g>
  <clipPath id="ID000005">
    <rect x="719.002" y="308.995" width="204.649" height="192.075"/>
  </clipPath>
      <polyline fill="#ffffff" fill-opacity="1.00" stroke="none" stroke-width="0.5pt" stroke-opacity="1.00" stroke-dasharray="none" points="719.002,501.070 923.651,501.070 923.651,308.995 719.002,308.995 "/>
      <polyline fill="#ffffff" fill-opacity="1.00" stroke="none" stroke-width="0.5pt" stroke-opacity="1.00" stroke-dasharray="none" points="719.002,308.995 923.651,308.995 923.651,308.995 719.002,308.995 "/>
      <polyline fill="#ffffff" fill-opacity="1.00" stroke="none" stroke-width="0.5pt" stroke-opacity="1.00" stroke-dasharray="none" points="719.002,501.070 719.002,501.070 719.002,308.995 719.002,308.995 "/>
    <g>
<g clip-path="url(#ID000005)">
<image x="719.002" y="308.995" width="204.649" height="192.075" image-rendering="optimizeSpeed" preserveAspectRatio="none" xlink:href="headToHeadDecoding006.png" />
</g>
<g clip-path="url(#ID000005)">
      <polyline fill="none" stroke="#ffffff" stroke-width="0.5pt" stroke-dasharray="none" points="722.627,449.665 729.186,448.519 735.746,447.092 742.305,445.466 748.864,444.320 755.423,443.035 761.982,441.648 768.541,440.644 775.101,439.740 781.660,438.455 788.219,436.928 794.778,435.541 801.337,434.396 807.896,433.391 814.456,432.627 821.015,432.003 827.574,431.482 834.133,430.719 840.692,429.816 847.251,428.949 853.811,428.568 860.370,428.186 866.929,427.666 873.488,427.041 880.047,426.521 886.606,425.757 893.166,424.994 899.725,424.368 906.284,423.987 912.843,423.605 "/>
<g>
</g>
</g>
<g clip-path="url(#ID000005)">
      <polyline fill="none" stroke="#0000ff" stroke-width="0.5pt" stroke-dasharray="none" points="722.396,500.799 725.741,500.640 728.890,500.428 732.433,500.322 738.729,500.959 742.074,500.799 745.421,500.640 748.766,500.481 751.913,500.268 758.406,500.958 761.751,500.799 765.098,500.640 768.245,500.428 771.788,500.322 778.084,500.958 781.429,500.799 784.775,500.640 788.120,500.481 791.267,500.268 797.761,500.958 801.108,500.800 804.453,500.640 807.798,500.481 810.947,500.269 817.439,500.958 820.785,500.800 824.524,500.747 830.820,501.383 833.969,501.171 834.165,500.162 844.004,501.755 847.349,501.595 850.693,501.436 853.842,501.224 856.795,500.959 860.140,500.800 863.485,500.640 866.830,500.481 870.175,500.322 873.718,500.216 883.162,501.702 886.507,501.542 886.703,500.534 893.197,501.224 896.346,501.012 899.691,500.852 902.840,500.640 906.185,500.481 909.530,500.322 913.072,500.216 919.368,500.852 922.517,500.640 "/>
<g>
</g>
</g>
    </g>
    <g>
      <polyline fill="none" stroke="#000000" stroke-width="0.5pt" stroke-dasharray="none" points="723.775,501.070 723.775,499.024 "/>
      <polyline fill="none" stroke="#000000" stroke-width="0.5pt" stroke-dasharray="none" points="822.163,501.070 822.163,499.024 "/>
      <polyline fill="none" stroke="#000000" stroke-width="0.5pt" stroke-dasharray="none" points="920.550,501.070 920.550,499.024 "/>
      <polyline fill="none" stroke="#000000" stroke-width="0.5pt" stroke-dasharray="none" points="719.002,501.070 923.651,501.070 "/>
      <polyline fill="none" stroke="#000000" stroke-width="0.5pt" stroke-dasharray="none" points="723.775,308.995 723.775,311.042 "/>
      <polyline fill="none" stroke="#000000" stroke-width="0.5pt" stroke-dasharray="none" points="822.163,308.995 822.163,311.042 "/>
      <polyline fill="none" stroke="#000000" stroke-width="0.5pt" stroke-dasharray="none" points="920.550,308.995 920.550,311.042 "/>
      <polyline fill="none" stroke="#000000" stroke-width="0.5pt" stroke-dasharray="none" points="719.002,308.995 923.651,308.995 "/>
  <g transform="translate(723.775,512.911)">
    <g transform="rotate(-0.0)">
      <text x="0.000" y="0.000" font-family="Helvetica" text-anchor="middle" font-size="8.0pt" fill="#000000" >5131</text>
    </g>
  </g>
  <g transform="translate(822.163,512.911)">
    <g transform="rotate(-0.0)">
      <text x="0.000" y="0.000" font-family="Helvetica" text-anchor="middle" font-size="8.0pt" fill="#000000" >5131.5</text>
    </g>
  </g>
  <g transform="translate(920.550,512.911)">
    <g transform="rotate(-0.0)">
      <text x="0.000" y="0.000" font-family="Helvetica" text-anchor="middle" font-size="8.0pt" fill="#000000" >5132</text>
    </g>
  </g>
      <polyline fill="none" stroke="#000000" stroke-width="0.5pt" stroke-dasharray="none" points="719.002,500.110 721.049,500.110 "/>
      <polyline fill="none" stroke="#000000" stroke-width="0.5pt" stroke-dasharray="none" points="719.002,447.036 721.049,447.036 "/>
      <polyline fill="none" stroke="#000000" stroke-width="0.5pt" stroke-dasharray="none" points="719.002,393.961 721.049,393.961 "/>
      <polyline fill="none" stroke="#000000" stroke-width="0.5pt" stroke-dasharray="none" points="719.002,340.887 721.049,340.887 "/>
      <polyline fill="none" stroke="#000000" stroke-width="0.5pt" stroke-dasharray="none" points="719.002,501.070 719.002,308.995 "/>
      <polyline fill="none" stroke="#000000" stroke-width="0.5pt" stroke-dasharray="none" points="923.651,500.110 921.605,500.110 "/>
      <polyline fill="none" stroke="#000000" stroke-width="0.5pt" stroke-dasharray="none" points="923.651,447.036 921.605,447.036 "/>
      <polyline fill="none" stroke="#000000" stroke-width="0.5pt" stroke-dasharray="none" points="923.651,393.961 921.605,393.961 "/>
      <polyline fill="none" stroke="#000000" stroke-width="0.5pt" stroke-dasharray="none" points="923.651,340.887 921.605,340.887 "/>
      <polyline fill="none" stroke="#000000" stroke-width="0.5pt" stroke-dasharray="none" points="923.651,501.070 923.651,308.995 "/>
  <g transform="translate(714.909,503.110)">
    <g transform="rotate(-0.0)">
      <text x="0.000" y="0.000" font-family="Helvetica" text-anchor="end" font-size="8.0pt" fill="#000000" >0</text>
    </g>
  </g>
  <g transform="translate(714.909,450.036)">
    <g transform="rotate(-0.0)">
      <text x="0.000" y="0.000" font-family="Helvetica" text-anchor="end" font-size="8.0pt" fill="#000000" >1</text>
    </g>
  </g>
  <g transform="translate(714.909,396.961)">
    <g transform="rotate(-0.0)">
      <text x="0.000" y="0.000" font-family="Helvetica" text-anchor="end" font-size="8.0pt" fill="#000000" >2</text>
    </g>
  </g>
  <g transform="translate(714.909,343.887)">
    <g transform="rotate(-0.0)">
      <text x="0.000" y="0.000" font-family="Helvetica" text-anchor="end" font-size="8.0pt" fill="#000000" >3</text>
    </g>
  </g>
      <polyline fill="none" stroke="#000000" stroke-width="0.5pt" stroke-dasharray="none" points="719.002,501.070 719.002,499.149 "/>
      <polyline fill="none" stroke="#000000" stroke-width="0.5pt" stroke-dasharray="none" points="719.002,501.070 719.002,501.070 "/>
    </g>
  </g>
  <g>
  <clipPath id="ID000006">
    <rect x="992.314" y="42.225" width="204.649" height="192.075"/>
  </clipPath>
      <polyline fill="#ffffff" fill-opacity="1.00" stroke="none" stroke-width="0.5pt" stroke-opacity="1.00" stroke-dasharray="none" points="992.314,234.300 1196.962,234.300 1196.962,42.225 992.314,42.225 "/>
      <polyline fill="#ffffff" fill-opacity="1.00" stroke="none" stroke-width="0.5pt" stroke-opacity="1.00" stroke-dasharray="none" points="992.314,42.225 1196.962,42.225 1196.962,42.225 992.314,42.225 "/>
      <polyline fill="#ffffff" fill-opacity="1.00" stroke="none" stroke-width="0.5pt" stroke-opacity="1.00" stroke-dasharray="none" points="992.314,234.300 992.314,234.300 992.314,42.225 992.314,42.225 "/>
    <g>
<g clip-path="url(#ID000006)">
<image x="992.314" y="42.225" width="204.649" height="192.075" image-rendering="optimizeSpeed" preserveAspectRatio="none" xlink:href="headToHeadDecoding007.png" />
</g>
<g clip-path="url(#ID000006)">
      <polyline fill="none" stroke="#ffffff" stroke-width="0.5pt" stroke-dasharray="none" points="994.709,144.070 1001.287,144.070 1007.866,144.070 1014.445,144.070 1021.023,144.080 1027.602,144.433 1034.181,144.433 1040.759,144.433 1047.338,144.433 1053.917,144.424 1060.495,144.070 1067.074,144.061 1073.653,143.707 1080.231,143.707 1086.810,143.716 1093.389,144.070 1099.967,144.070 1106.546,144.079 1113.125,144.433 1119.703,144.433 1126.282,144.441 1132.861,144.804 1139.439,145.159 1146.018,145.167 1152.597,145.522 1159.175,145.515 1165.754,145.159 1172.332,145.159 1178.911,145.159 1185.490,145.152 "/>
<g>
</g>
</g>
    </g>
    <g>
      <polyline fill="none" stroke="#000000" stroke-width="0.5pt" stroke-dasharray="none" points="995.860,234.300 995.860,232.253 "/>
      <polyline fill="none" stroke="#000000" stroke-width="0.5pt" stroke-dasharray="none" points="1094.540,234.300 1094.540,232.253 "/>
      <polyline fill="none" stroke="#000000" stroke-width="0.5pt" stroke-dasharray="none" points="1193.220,234.300 1193.220,232.253 "/>
      <polyline fill="none" stroke="#000000" stroke-width="0.5pt" stroke-dasharray="none" points="992.314,234.300 1196.962,234.300 "/>
      <polyline fill="none" stroke="#000000" stroke-width="0.5pt" stroke-dasharray="none" points="995.860,42.225 995.860,44.271 "/>
      <polyline fill="none" stroke="#000000" stroke-width="0.5pt" stroke-dasharray="none" points="1094.540,42.225 1094.540,44.271 "/>
      <polyline fill="none" stroke="#000000" stroke-width="0.5pt" stroke-dasharray="none" points="1193.220,42.225 1193.220,44.271 "/>
      <polyline fill="none" stroke="#000000" stroke-width="0.5pt" stroke-dasharray="none" points="992.314,42.225 1196.962,42.225 "/>
  <g transform="translate(995.860,246.141)">
    <g transform="rotate(-0.0)">
      <text x="0.000" y="0.000" font-family="Helvetica" text-anchor="middle" font-size="8.0pt" fill="#000000" >4882</text>
    </g>
  </g>
  <g transform="translate(1094.540,246.141)">
    <g transform="rotate(-0.0)">
      <text x="0.000" y="0.000" font-family="Helvetica" text-anchor="middle" font-size="8.0pt" fill="#000000" >4882.5</text>
    </g>
  </g>
  <g transform="translate(1193.220,246.141)">
    <g transform="rotate(-0.0)">
      <text x="0.000" y="0.000" font-family="Helvetica" text-anchor="middle" font-size="8.0pt" fill="#000000" >4883</text>
    </g>
  </g>
      <polyline fill="none" stroke="#000000" stroke-width="0.5pt" stroke-dasharray="none" points="992.314,228.650 994.360,228.650 "/>
      <polyline fill="none" stroke="#000000" stroke-width="0.5pt" stroke-dasharray="none" points="992.314,178.194 994.360,178.194 "/>
      <polyline fill="none" stroke="#000000" stroke-width="0.5pt" stroke-dasharray="none" points="992.314,127.737 994.360,127.737 "/>
      <polyline fill="none" stroke="#000000" stroke-width="0.5pt" stroke-dasharray="none" points="992.314,77.280 994.360,77.280 "/>
      <polyline fill="none" stroke="#000000" stroke-width="0.5pt" stroke-dasharray="none" points="992.314,234.300 992.314,42.225 "/>
      <polyline fill="none" stroke="#000000" stroke-width="0.5pt" stroke-dasharray="none" points="1196.962,228.650 1194.916,228.650 "/>
      <polyline fill="none" stroke="#000000" stroke-width="0.5pt" stroke-dasharray="none" points="1196.962,178.194 1194.916,178.194 "/>
      <polyline fill="none" stroke="#000000" stroke-width="0.5pt" stroke-dasharray="none" points="1196.962,127.737 1194.916,127.737 "/>
      <polyline fill="none" stroke="#000000" stroke-width="0.5pt" stroke-dasharray="none" points="1196.962,77.280 1194.916,77.280 "/>
      <polyline fill="none" stroke="#000000" stroke-width="0.5pt" stroke-dasharray="none" points="1196.962,234.300 1196.962,42.225 "/>
  <g transform="translate(988.221,231.650)">
    <g transform="rotate(-0.0)">
      <text x="0.000" y="0.000" font-family="Helvetica" text-anchor="end" font-size="8.0pt" fill="#000000" >0</text>
    </g>
  </g>
  <g transform="translate(988.221,181.194)">
    <g transform="rotate(-0.0)">
      <text x="0.000" y="0.000" font-family="Helvetica" text-anchor="end" font-size="8.0pt" fill="#000000" >1</text>
    </g>
  </g>
  <g transform="translate(988.221,130.737)">
    <g transform="rotate(-0.0)">
      <text x="0.000" y="0.000" font-family="Helvetica" text-anchor="end" font-size="8.0pt" fill="#000000" >2</text>
    </g>
  </g>
  <g transform="translate(988.221,80.280)">
    <g transform="rotate(-0.0)">
      <text x="0.000" y="0.000" font-family="Helvetica" text-anchor="end" font-size="8.0pt" fill="#000000" >3</text>
    </g>
  </g>
      <polyline fill="none" stroke="#000000" stroke-width="0.5pt" stroke-dasharray="none" points="992.314,234.300 992.314,232.379 "/>
      <polyline fill="none" stroke="#000000" stroke-width="0.5pt" stroke-dasharray="none" points="992.314,234.300 992.314,234.300 "/>
    </g>
  </g>
  <g>
  <clipPath id="ID000007">
    <rect x="992.314" y="308.995" width="204.649" height="192.075"/>
  </clipPath>
      <polyline fill="#ffffff" fill-opacity="1.00" stroke="none" stroke-width="0.5pt" stroke-opacity="1.00" stroke-dasharray="none" points="992.314,501.070 1196.962,501.070 1196.962,308.995 992.314,308.995 "/>
      <polyline fill="#ffffff" fill-opacity="1.00" stroke="none" stroke-width="0.5pt" stroke-opacity="1.00" stroke-dasharray="none" points="992.314,308.995 1196.962,308.995 1196.962,308.995 992.314,308.995 "/>
      <polyline fill="#ffffff" fill-opacity="1.00" stroke="none" stroke-width="0.5pt" stroke-opacity="1.00" stroke-dasharray="none" points="992.314,501.070 992.314,501.070 992.314,308.995 992.314,308.995 "/>
    <g>
<g clip-path="url(#ID000007)">
<image x="992.314" y="308.995" width="204.649" height="192.075" image-rendering="optimizeSpeed" preserveAspectRatio="none" xlink:href="headToHeadDecoding008.png" />
</g>
<g clip-path="url(#ID000007)">
      <polyline fill="none" stroke="#ffffff" stroke-width="0.5pt" stroke-dasharray="none" points="996.616,411.142 1003.175,411.142 1009.734,411.142 1016.293,411.142 1022.852,411.153 1029.412,411.524 1035.971,411.524 1042.530,411.524 1049.089,411.524 1055.648,411.514 1062.207,411.142 1068.767,411.132 1075.326,410.760 1081.885,410.760 1088.444,410.769 1095.003,411.142 1101.562,411.142 1108.122,411.151 1114.681,411.524 1121.240,411.524 1127.799,411.532 1134.358,411.914 1140.917,412.287 1147.477,412.296 1154.036,412.669 1160.595,412.661 1167.154,412.287 1173.713,412.287 1180.272,412.287 1186.832,412.280 "/>
<g>
</g>
</g>
<g clip-path="url(#ID000007)">
      <polyline fill="none" stroke="#0000ff" stroke-width="0.5pt" stroke-dasharray="none" points="996.189,500.747 999.336,500.534 1002.681,500.375 1006.224,500.269 1012.522,500.906 1015.867,500.747 1019.212,500.587 1022.557,500.428 1025.901,500.269 1032.395,500.959 1035.544,500.746 1038.889,500.587 1042.234,500.428 1045.579,500.269 1052.073,500.959 1055.222,500.746 1058.567,500.587 1065.060,501.277 1068.405,501.118 1071.554,500.906 1074.899,500.746 1078.244,500.587 1081.589,500.428 1084.738,500.216 1091.232,500.906 1094.576,500.746 1097.921,500.587 1101.266,500.428 1104.611,500.268 1111.105,500.959 1114.254,500.746 1117.599,500.587 1120.944,500.428 1124.093,500.216 1130.782,500.958 1133.931,500.746 1137.276,500.587 1140.621,500.428 1143.966,500.268 1150.460,500.958 1153.609,500.746 1157.151,500.640 1160.298,500.428 1163.643,500.268 1170.137,500.958 1173.484,500.800 1176.829,500.640 1183.323,501.330 1186.470,501.118 1189.619,500.906 1192.963,500.746 1196.308,500.587 "/>
<g>
</g>
</g>
    </g>
    <g>
      <polyline fill="none" stroke="#000000" stroke-width="0.5pt" stroke-dasharray="none" points="997.764,501.070 997.764,499.024 "/>
      <polyline fill="none" stroke="#000000" stroke-width="0.5pt" stroke-dasharray="none" points="1096.151,501.070 1096.151,499.024 "/>
      <polyline fill="none" stroke="#000000" stroke-width="0.5pt" stroke-dasharray="none" points="1194.539,501.070 1194.539,499.024 "/>
      <polyline fill="none" stroke="#000000" stroke-width="0.5pt" stroke-dasharray="none" points="992.314,501.070 1196.962,501.070 "/>
      <polyline fill="none" stroke="#000000" stroke-width="0.5pt" stroke-dasharray="none" points="997.764,308.995 997.764,311.042 "/>
      <polyline fill="none" stroke="#000000" stroke-width="0.5pt" stroke-dasharray="none" points="1096.151,308.995 1096.151,311.042 "/>
      <polyline fill="none" stroke="#000000" stroke-width="0.5pt" stroke-dasharray="none" points="1194.539,308.995 1194.539,311.042 "/>
      <polyline fill="none" stroke="#000000" stroke-width="0.5pt" stroke-dasharray="none" points="992.314,308.995 1196.962,308.995 "/>
  <g transform="translate(997.764,512.911)">
    <g transform="rotate(-0.0)">
      <text x="0.000" y="0.000" font-family="Helvetica" text-anchor="middle" font-size="8.0pt" fill="#000000" >4882</text>
    </g>
  </g>
  <g transform="translate(1096.151,512.911)">
    <g transform="rotate(-0.0)">
      <text x="0.000" y="0.000" font-family="Helvetica" text-anchor="middle" font-size="8.0pt" fill="#000000" >4882.5</text>
    </g>
  </g>
  <g transform="translate(1194.539,512.911)">
    <g transform="rotate(-0.0)">
      <text x="0.000" y="0.000" font-family="Helvetica" text-anchor="middle" font-size="8.0pt" fill="#000000" >4883</text>
    </g>
  </g>
      <polyline fill="none" stroke="#000000" stroke-width="0.5pt" stroke-dasharray="none" points="992.314,500.110 994.360,500.110 "/>
      <polyline fill="none" stroke="#000000" stroke-width="0.5pt" stroke-dasharray="none" points="992.314,447.036 994.360,447.036 "/>
      <polyline fill="none" stroke="#000000" stroke-width="0.5pt" stroke-dasharray="none" points="992.314,393.961 994.360,393.961 "/>
      <polyline fill="none" stroke="#000000" stroke-width="0.5pt" stroke-dasharray="none" points="992.314,340.887 994.360,340.887 "/>
      <polyline fill="none" stroke="#000000" stroke-width="0.5pt" stroke-dasharray="none" points="992.314,501.070 992.314,308.995 "/>
      <polyline fill="none" stroke="#000000" stroke-width="0.5pt" stroke-dasharray="none" points="1196.962,500.110 1194.916,500.110 "/>
      <polyline fill="none" stroke="#000000" stroke-width="0.5pt" stroke-dasharray="none" points="1196.962,447.036 1194.916,447.036 "/>
      <polyline fill="none" stroke="#000000" stroke-width="0.5pt" stroke-dasharray="none" points="1196.962,393.961 1194.916,393.961 "/>
      <polyline fill="none" stroke="#000000" stroke-width="0.5pt" stroke-dasharray="none" points="1196.962,340.887 1194.916,340.887 "/>
      <polyline fill="none" stroke="#000000" stroke-width="0.5pt" stroke-dasharray="none" points="1196.962,501.070 1196.962,308.995 "/>
  <g transform="translate(988.221,503.110)">
    <g transform="rotate(-0.0)">
      <text x="0.000" y="0.000" font-family="Helvetica" text-anchor="end" font-size="8.0pt" fill="#000000" >0</text>
    </g>
  </g>
  <g transform="translate(988.221,450.036)">
    <g transform="rotate(-0.0)">
      <text x="0.000" y="0.000" font-family="Helvetica" text-anchor="end" font-size="8.0pt" fill="#000000" >1</text>
    </g>
  </g>
  <g transform="translate(988.221,396.961)">
    <g transform="rotate(-0.0)">
      <text x="0.000" y="0.000" font-family="Helvetica" text-anchor="end" font-size="8.0pt" fill="#000000" >2</text>
    </g>
  </g>
  <g transform="translate(988.221,343.887)">
    <g transform="rotate(-0.0)">
      <text x="0.000" y="0.000" font-family="Helvetica" text-anchor="end" font-size="8.0pt" fill="#000000" >3</text>
    </g>
  </g>
      <polyline fill="none" stroke="#000000" stroke-width="0.5pt" stroke-dasharray="none" points="992.314,501.070 992.314,499.149 "/>
      <polyline fill="none" stroke="#000000" stroke-width="0.5pt" stroke-dasharray="none" points="992.314,501.070 992.314,501.070 "/>
    </g>
  </g>
</svg>
