<?xml version="1.0" standalone="no"?><!DOCTYPE svg PUBLIC "-//W3C//DTD SVG 1.1//EN" "http://www.w3.org/Graphics/SVG/1.1/DTD/svg11.dtd">
<svg preserveAspectRatio="xMinYMin meet" width="100%" height="100%" viewBox="0 0 640.000 480.000"   version="1.1" xmlns="http://www.w3.org/2000/svg" xmlns:xlink="http://www.w3.org/1999/xlink">
  <desc>Matlab Figure Converted by PLOT2SVG written by Juerg Schwizer</desc>
  <rect x="0" y="0" width="640.000" height="480.000" fill="#ffffff" stroke="none" />
  <g>
  <clipPath id="ID000000">
    <rect x="83.200" y="36.000" width="496.000" height="391.200"/>
  </clipPath>
      <polyline fill="#ffffff" fill-opacity="1.00" stroke="none" stroke-width="0.5pt" stroke-opacity="1.00" stroke-dasharray="none" points="298.550,427.200 579.200,351.216 363.850,252.191 83.200,328.175 "/>
      <polyline fill="#ffffff" fill-opacity="1.00" stroke="none" stroke-width="0.5pt" stroke-opacity="1.00" stroke-dasharray="none" points="579.200,351.216 363.850,252.191 363.850,36.000 579.200,135.025 "/>
      <polyline fill="#ffffff" fill-opacity="1.00" stroke="none" stroke-width="0.5pt" stroke-opacity="1.00" stroke-dasharray="none" points="83.200,328.175 363.850,252.191 363.850,36.000 83.200,111.984 "/>
    <g>
<g clip-path="url(#ID000000)">
<g>
<circle cx="393.975" cy="148.407" r="5.333" fill="#cccccc" stroke="none" stroke-width="0.5pt" />
<circle cx="356.050" cy="206.918" r="5.333" fill="#cccccc" stroke="none" stroke-width="0.5pt" />
<circle cx="386.276" cy="177.115" r="5.333" fill="#cccccc" stroke="none" stroke-width="0.5pt" />
<circle cx="317.587" cy="209.332" r="5.333" fill="#cccccc" stroke="none" stroke-width="0.5pt" />
<circle cx="268.110" cy="255.582" r="5.333" fill="#cccccc" stroke="none" stroke-width="0.5pt" />
<circle cx="353.635" cy="215.742" r="5.333" fill="#cccccc" stroke="none" stroke-width="0.5pt" />
<circle cx="283.223" cy="234.195" r="5.333" fill="#cccccc" stroke="none" stroke-width="0.5pt" />
<circle cx="348.713" cy="145.121" r="5.333" fill="#cccccc" stroke="none" stroke-width="0.5pt" />
<circle cx="307.473" cy="251.188" r="5.333" fill="#cccccc" stroke="none" stroke-width="0.5pt" />
<circle cx="248.744" cy="240.242" r="5.333" fill="#cccccc" stroke="none" stroke-width="0.5pt" />
<circle cx="304.158" cy="281.449" r="5.333" fill="#cccccc" stroke="none" stroke-width="0.5pt" />
<circle cx="383.861" cy="177.291" r="5.333" fill="#cccccc" stroke="none" stroke-width="0.5pt" />
<circle cx="212.696" cy="292.204" r="5.333" fill="#cccccc" stroke="none" stroke-width="0.5pt" />
<circle cx="297.321" cy="288.934" r="5.333" fill="#cccccc" stroke="none" stroke-width="0.5pt" />
<circle cx="287.322" cy="280.425" r="5.333" fill="#cccccc" stroke="none" stroke-width="0.5pt" />
<circle cx="387.999" cy="206.012" r="5.333" fill="#cccccc" stroke="none" stroke-width="0.5pt" />
<circle cx="337.622" cy="269.375" r="5.333" fill="#cccccc" stroke="none" stroke-width="0.5pt" />
<circle cx="368.863" cy="111.560" r="5.333" fill="#cccccc" stroke="none" stroke-width="0.5pt" />
<circle cx="327.624" cy="211.142" r="5.333" fill="#cccccc" stroke="none" stroke-width="0.5pt" />
<circle cx="324.309" cy="228.431" r="5.333" fill="#cccccc" stroke="none" stroke-width="0.5pt" />
<circle cx="372.886" cy="199.294" r="5.333" fill="#cccccc" stroke="none" stroke-width="0.5pt" />
<circle cx="302.435" cy="259.038" r="5.333" fill="#cccccc" stroke="none" stroke-width="0.5pt" />
<circle cx="356.950" cy="222.233" r="5.333" fill="#cccccc" stroke="none" stroke-width="0.5pt" />
<circle cx="325.639" cy="207.192" r="5.333" fill="#cccccc" stroke="none" stroke-width="0.5pt" />
<circle cx="322.325" cy="228.806" r="5.333" fill="#cccccc" stroke="none" stroke-width="0.5pt" />
<circle cx="350.751" cy="233.229" r="5.333" fill="#cccccc" stroke="none" stroke-width="0.5pt" />
<circle cx="275.301" cy="250.884" r="5.333" fill="#cccccc" stroke="none" stroke-width="0.5pt" />
<circle cx="340.714" cy="209.800" r="5.333" fill="#cccccc" stroke="none" stroke-width="0.5pt" />
<circle cx="281.162" cy="250.130" r="5.333" fill="#cccccc" stroke="none" stroke-width="0.5pt" />
<circle cx="320.563" cy="230.389" r="5.333" fill="#cccccc" stroke="none" stroke-width="0.5pt" />
<circle cx="280.262" cy="273.729" r="5.333" fill="#cccccc" stroke="none" stroke-width="0.5pt" />
<circle cx="329.336" cy="233.556" r="5.333" fill="#cccccc" stroke="none" stroke-width="0.5pt" />
<circle cx="294.590" cy="214.766" r="5.333" fill="#cccccc" stroke="none" stroke-width="0.5pt" />
<circle cx="299.171" cy="289.285" r="5.333" fill="#cccccc" stroke="none" stroke-width="0.5pt" />
<circle cx="359.502" cy="138.912" r="5.333" fill="#cccccc" stroke="none" stroke-width="0.5pt" />
<circle cx="367.818" cy="230.933" r="5.333" fill="#cccccc" stroke="none" stroke-width="0.5pt" />
<circle cx="351.882" cy="210.634" r="5.333" fill="#cccccc" stroke="none" stroke-width="0.5pt" />
<circle cx="351.882" cy="212.796" r="5.333" fill="#cccccc" stroke="none" stroke-width="0.5pt" />
<circle cx="298.740" cy="271.792" r="5.333" fill="#cccccc" stroke="none" stroke-width="0.5pt" />
<circle cx="325.593" cy="255.174" r="5.333" fill="#cccccc" stroke="none" stroke-width="0.5pt" />
<circle cx="379.587" cy="229.209" r="5.333" fill="#cccccc" stroke="none" stroke-width="0.5pt" />
<circle cx="322.304" cy="230.973" r="5.333" fill="#cccccc" stroke="none" stroke-width="0.5pt" />
<circle cx="345.703" cy="228.110" r="5.333" fill="#cccccc" stroke="none" stroke-width="0.5pt" />
<circle cx="315.546" cy="253.367" r="5.333" fill="#cccccc" stroke="none" stroke-width="0.5pt" />
<circle cx="265.270" cy="321.026" r="5.333" fill="#cccccc" stroke="none" stroke-width="0.5pt" />
<circle cx="319.265" cy="297.223" r="5.333" fill="#cccccc" stroke="none" stroke-width="0.5pt" />
<circle cx="367.826" cy="155.061" r="5.333" fill="#cccccc" stroke="none" stroke-width="0.5pt" />
<circle cx="307.230" cy="187.289" r="5.333" fill="#cccccc" stroke="none" stroke-width="0.5pt" />
<circle cx="300.463" cy="272.584" r="5.333" fill="#cccccc" stroke="none" stroke-width="0.5pt" />
<circle cx="419.045" cy="243.658" r="5.333" fill="#cccccc" stroke="none" stroke-width="0.5pt" />
<circle cx="398.895" cy="285.866" r="5.333" fill="#cccccc" stroke="none" stroke-width="0.5pt" />
<circle cx="312.964" cy="343.689" r="5.333" fill="#cccccc" stroke="none" stroke-width="0.5pt" />
<circle cx="398.604" cy="223.217" r="5.333" fill="#cccccc" stroke="none" stroke-width="0.5pt" />
<circle cx="307.926" cy="334.244" r="5.333" fill="#cccccc" stroke="none" stroke-width="0.5pt" />
<circle cx="341.351" cy="324.082" r="5.333" fill="#cccccc" stroke="none" stroke-width="0.5pt" />
<circle cx="316.163" cy="361.169" r="5.333" fill="#cccccc" stroke="none" stroke-width="0.5pt" />
<circle cx="355.934" cy="261.144" r="5.333" fill="#cccccc" stroke="none" stroke-width="0.5pt" />
<circle cx="418.680" cy="310.972" r="5.333" fill="#cccccc" stroke="none" stroke-width="0.5pt" />
<circle cx="270.651" cy="359.698" r="5.333" fill="#cccccc" stroke="none" stroke-width="0.5pt" />
<circle cx="329.794" cy="271.849" r="5.333" fill="#cccccc" stroke="none" stroke-width="0.5pt" />
<circle cx="369.565" cy="217.225" r="5.333" fill="#cccccc" stroke="none" stroke-width="0.5pt" />
<circle cx="366.366" cy="199.745" r="5.333" fill="#cccccc" stroke="none" stroke-width="0.5pt" />
<circle cx="289.797" cy="284.368" r="5.333" fill="#cccccc" stroke="none" stroke-width="0.5pt" />
<circle cx="364.054" cy="214.047" r="5.333" fill="#cccccc" stroke="none" stroke-width="0.5pt" />
<circle cx="318.185" cy="225.847" r="5.333" fill="#cccccc" stroke="none" stroke-width="0.5pt" />
<circle cx="348.410" cy="206.854" r="5.333" fill="#cccccc" stroke="none" stroke-width="0.5pt" />
<circle cx="321.505" cy="287.907" r="5.333" fill="#cccccc" stroke="none" stroke-width="0.5pt" />
<circle cx="293.526" cy="306.647" r="5.333" fill="#cccccc" stroke="none" stroke-width="0.5pt" />
<circle cx="353.978" cy="231.908" r="5.333" fill="#cccccc" stroke="none" stroke-width="0.5pt" />
<circle cx="393.749" cy="129.721" r="5.333" fill="#cccccc" stroke="none" stroke-width="0.5pt" />
<circle cx="376.920" cy="153.999" r="5.333" fill="#cccccc" stroke="none" stroke-width="0.5pt" />
<circle cx="371.399" cy="271.060" r="5.333" fill="#cccccc" stroke="none" stroke-width="0.5pt" />
<circle cx="229.481" cy="180.503" r="5.333" fill="#cccccc" stroke="none" stroke-width="0.5pt" />
<circle cx="292.419" cy="146.285" r="5.333" fill="#cccccc" stroke="none" stroke-width="0.5pt" />
<circle cx="237.718" cy="198.780" r="5.333" fill="#cccccc" stroke="none" stroke-width="0.5pt" />
<circle cx="234.519" cy="183.463" r="5.333" fill="#cccccc" stroke="none" stroke-width="0.5pt" />
<circle cx="220.888" cy="233.868" r="5.333" fill="#cccccc" stroke="none" stroke-width="0.5pt" />
<circle cx="273.512" cy="185.384" r="5.333" fill="#cccccc" stroke="none" stroke-width="0.5pt" />
<circle cx="272.269" cy="192.817" r="5.333" fill="#cccccc" stroke="none" stroke-width="0.5pt" />
<circle cx="217.567" cy="247.474" r="5.333" fill="#cccccc" stroke="none" stroke-width="0.5pt" />
<circle cx="214.368" cy="214.861" r="5.333" fill="#cccccc" stroke="none" stroke-width="0.5pt" />
<circle cx="332.584" cy="264.253" r="5.333" fill="#cccccc" stroke="none" stroke-width="0.5pt" />
<circle cx="208.022" cy="255.001" r="5.333" fill="#cccccc" stroke="none" stroke-width="0.5pt" />
<circle cx="219.406" cy="178.907" r="5.333" fill="#cccccc" stroke="none" stroke-width="0.5pt" />
<circle cx="275.346" cy="221.925" r="5.333" fill="#cccccc" stroke="none" stroke-width="0.5pt" />
<circle cx="360.437" cy="233.360" r="5.333" fill="#cccccc" stroke="none" stroke-width="0.5pt" />
<circle cx="271.551" cy="239.637" r="5.333" fill="#cccccc" stroke="none" stroke-width="0.5pt" />
<circle cx="397.983" cy="144.937" r="5.333" fill="#cccccc" stroke="none" stroke-width="0.5pt" />
<circle cx="377.487" cy="213.760" r="5.333" fill="#cccccc" stroke="none" stroke-width="0.5pt" />
<circle cx="351.029" cy="236.394" r="5.333" fill="#cccccc" stroke="none" stroke-width="0.5pt" />
<circle cx="439.324" cy="160.925" r="5.333" fill="#cccccc" stroke="none" stroke-width="0.5pt" />
<circle cx="394.076" cy="240.195" r="5.333" fill="#cccccc" stroke="none" stroke-width="0.5pt" />
<circle cx="441.030" cy="185.490" r="5.333" fill="#cccccc" stroke="none" stroke-width="0.5pt" />
<circle cx="419.214" cy="196.637" r="5.333" fill="#cccccc" stroke="none" stroke-width="0.5pt" />
<circle cx="373.966" cy="267.259" r="5.333" fill="#cccccc" stroke="none" stroke-width="0.5pt" />
<circle cx="420.920" cy="199.583" r="5.333" fill="#cccccc" stroke="none" stroke-width="0.5pt" />
<circle cx="332.625" cy="272.890" r="5.333" fill="#cccccc" stroke="none" stroke-width="0.5pt" />
<circle cx="404.131" cy="218.015" r="5.333" fill="#cccccc" stroke="none" stroke-width="0.5pt" />
<circle cx="358.883" cy="303.771" r="5.333" fill="#cccccc" stroke="none" stroke-width="0.5pt" />
<circle cx="405.837" cy="255.552" r="5.333" fill="#cccccc" stroke="none" stroke-width="0.5pt" />
<circle cx="317.542" cy="300.755" r="5.333" fill="#cccccc" stroke="none" stroke-width="0.5pt" />
<circle cx="337.652" cy="262.881" r="5.333" fill="#cccccc" stroke="none" stroke-width="0.5pt" />
<circle cx="396.151" cy="290.432" r="5.333" fill="#cccccc" stroke="none" stroke-width="0.5pt" />
<circle cx="371.399" cy="333.307" r="5.333" fill="#cccccc" stroke="none" stroke-width="0.5pt" />
<circle cx="390.864" cy="178.626" r="5.333" fill="#cccccc" stroke="none" stroke-width="0.5pt" />
<circle cx="322.570" cy="295.070" r="5.333" fill="#cccccc" stroke="none" stroke-width="0.5pt" />
</g>
</g>
<g clip-path="url(#ID000000)">
<g>
<circle cx="509.402" cy="201.484" r="1.000" fill="#0000ff" stroke="none" stroke-width="0.5pt" />
<circle cx="443.913" cy="247.320" r="1.000" fill="#0000ff" stroke="none" stroke-width="0.5pt" />
<circle cx="474.139" cy="217.517" r="1.000" fill="#0000ff" stroke="none" stroke-width="0.5pt" />
<circle cx="448.950" cy="269.737" r="1.000" fill="#0000ff" stroke="none" stroke-width="0.5pt" />
<circle cx="413.687" cy="322.523" r="1.000" fill="#0000ff" stroke="none" stroke-width="0.5pt" />
<circle cx="453.988" cy="261.887" r="1.000" fill="#0000ff" stroke="none" stroke-width="0.5pt" />
<circle cx="428.800" cy="301.135" r="1.000" fill="#0000ff" stroke="none" stroke-width="0.5pt" />
<circle cx="494.289" cy="212.062" r="1.000" fill="#0000ff" stroke="none" stroke-width="0.5pt" />
<circle cx="423.762" cy="304.661" r="1.000" fill="#0000ff" stroke="none" stroke-width="0.5pt" />
<circle cx="363.310" cy="292.923" r="1.000" fill="#0000ff" stroke="none" stroke-width="0.5pt" />
<circle cx="418.724" cy="334.130" r="1.000" fill="#0000ff" stroke="none" stroke-width="0.5pt" />
<circle cx="484.214" cy="223.437" r="1.000" fill="#0000ff" stroke="none" stroke-width="0.5pt" />
<circle cx="358.272" cy="359.145" r="1.000" fill="#0000ff" stroke="none" stroke-width="0.5pt" />
<circle cx="383.461" cy="328.544" r="1.000" fill="#0000ff" stroke="none" stroke-width="0.5pt" />
<circle cx="403.611" cy="333.898" r="1.000" fill="#0000ff" stroke="none" stroke-width="0.5pt" />
<circle cx="474.139" cy="245.622" r="1.000" fill="#0000ff" stroke="none" stroke-width="0.5pt" />
<circle cx="423.762" cy="308.985" r="1.000" fill="#0000ff" stroke="none" stroke-width="0.5pt" />
<circle cx="514.440" cy="178.501" r="1.000" fill="#0000ff" stroke="none" stroke-width="0.5pt" />
<circle cx="443.913" cy="264.615" r="1.000" fill="#0000ff" stroke="none" stroke-width="0.5pt" />
<circle cx="438.875" cy="281.112" r="1.000" fill="#0000ff" stroke="none" stroke-width="0.5pt" />
<circle cx="459.026" cy="238.904" r="1.000" fill="#0000ff" stroke="none" stroke-width="0.5pt" />
<circle cx="418.724" cy="312.511" r="1.000" fill="#0000ff" stroke="none" stroke-width="0.5pt" />
<circle cx="459.026" cy="269.171" r="1.000" fill="#0000ff" stroke="none" stroke-width="0.5pt" />
<circle cx="453.988" cy="266.211" r="1.000" fill="#0000ff" stroke="none" stroke-width="0.5pt" />
<circle cx="448.950" cy="287.032" r="1.000" fill="#0000ff" stroke="none" stroke-width="0.5pt" />
<circle cx="448.950" cy="278.385" r="1.000" fill="#0000ff" stroke="none" stroke-width="0.5pt" />
<circle cx="418.724" cy="316.835" r="1.000" fill="#0000ff" stroke="none" stroke-width="0.5pt" />
<circle cx="453.988" cy="261.887" r="1.000" fill="#0000ff" stroke="none" stroke-width="0.5pt" />
<circle cx="408.649" cy="308.753" r="1.000" fill="#0000ff" stroke="none" stroke-width="0.5pt" />
<circle cx="433.837" cy="282.476" r="1.000" fill="#0000ff" stroke="none" stroke-width="0.5pt" />
<circle cx="393.536" cy="325.816" r="1.000" fill="#0000ff" stroke="none" stroke-width="0.5pt" />
<circle cx="443.903" cy="286.237" r="1.000" fill="#0000ff" stroke="none" stroke-width="0.5pt" />
<circle cx="438.875" cy="281.112" r="1.000" fill="#0000ff" stroke="none" stroke-width="0.5pt" />
<circle cx="413.737" cy="341.966" r="1.000" fill="#0000ff" stroke="none" stroke-width="0.5pt" />
<circle cx="474.068" cy="191.593" r="1.000" fill="#0000ff" stroke="none" stroke-width="0.5pt" />
<circle cx="453.958" cy="270.543" r="1.000" fill="#0000ff" stroke="none" stroke-width="0.5pt" />
<circle cx="453.958" cy="257.572" r="1.000" fill="#0000ff" stroke="none" stroke-width="0.5pt" />
<circle cx="453.958" cy="259.734" r="1.000" fill="#0000ff" stroke="none" stroke-width="0.5pt" />
<circle cx="413.737" cy="324.671" r="1.000" fill="#0000ff" stroke="none" stroke-width="0.5pt" />
<circle cx="423.792" cy="300.329" r="1.000" fill="#0000ff" stroke="none" stroke-width="0.5pt" />
<circle cx="448.930" cy="261.095" r="1.000" fill="#0000ff" stroke="none" stroke-width="0.5pt" />
<circle cx="448.930" cy="289.200" r="1.000" fill="#0000ff" stroke="none" stroke-width="0.5pt" />
<circle cx="443.903" cy="273.265" r="1.000" fill="#0000ff" stroke="none" stroke-width="0.5pt" />
<circle cx="428.820" cy="305.454" r="1.000" fill="#0000ff" stroke="none" stroke-width="0.5pt" />
<circle cx="378.544" cy="373.113" r="1.000" fill="#0000ff" stroke="none" stroke-width="0.5pt" />
<circle cx="403.682" cy="336.041" r="1.000" fill="#0000ff" stroke="none" stroke-width="0.5pt" />
<circle cx="469.040" cy="201.602" r="1.000" fill="#0000ff" stroke="none" stroke-width="0.5pt" />
<circle cx="448.930" cy="252.447" r="1.000" fill="#0000ff" stroke="none" stroke-width="0.5pt" />
<circle cx="413.737" cy="324.671" r="1.000" fill="#0000ff" stroke="none" stroke-width="0.5pt" />
<circle cx="453.988" cy="259.725" r="1.000" fill="#0000ff" stroke="none" stroke-width="0.5pt" />
<circle cx="433.837" cy="301.933" r="1.000" fill="#0000ff" stroke="none" stroke-width="0.5pt" />
<circle cx="383.461" cy="376.106" r="1.000" fill="#0000ff" stroke="none" stroke-width="0.5pt" />
<circle cx="469.101" cy="255.634" r="1.000" fill="#0000ff" stroke="none" stroke-width="0.5pt" />
<circle cx="378.423" cy="366.660" r="1.000" fill="#0000ff" stroke="none" stroke-width="0.5pt" />
<circle cx="398.574" cy="350.395" r="1.000" fill="#0000ff" stroke="none" stroke-width="0.5pt" />
<circle cx="373.385" cy="387.482" r="1.000" fill="#0000ff" stroke="none" stroke-width="0.5pt" />
<circle cx="428.800" cy="294.650" r="1.000" fill="#0000ff" stroke="none" stroke-width="0.5pt" />
<circle cx="423.762" cy="313.309" r="1.000" fill="#0000ff" stroke="none" stroke-width="0.5pt" />
<circle cx="373.385" cy="406.939" r="1.000" fill="#0000ff" stroke="none" stroke-width="0.5pt" />
<circle cx="403.611" cy="305.793" r="1.000" fill="#0000ff" stroke="none" stroke-width="0.5pt" />
<circle cx="459.026" cy="258.361" r="1.000" fill="#0000ff" stroke="none" stroke-width="0.5pt" />
<circle cx="469.101" cy="246.986" r="1.000" fill="#0000ff" stroke="none" stroke-width="0.5pt" />
<circle cx="408.649" cy="339.020" r="1.000" fill="#0000ff" stroke="none" stroke-width="0.5pt" />
<circle cx="453.988" cy="255.402" r="1.000" fill="#0000ff" stroke="none" stroke-width="0.5pt" />
<circle cx="423.762" cy="274.395" r="1.000" fill="#0000ff" stroke="none" stroke-width="0.5pt" />
<circle cx="453.988" cy="255.402" r="1.000" fill="#0000ff" stroke="none" stroke-width="0.5pt" />
<circle cx="423.762" cy="334.928" r="1.000" fill="#0000ff" stroke="none" stroke-width="0.5pt" />
<circle cx="383.461" cy="348.001" r="1.000" fill="#0000ff" stroke="none" stroke-width="0.5pt" />
<circle cx="443.913" cy="273.263" r="1.000" fill="#0000ff" stroke="none" stroke-width="0.5pt" />
<circle cx="499.327" cy="178.269" r="1.000" fill="#0000ff" stroke="none" stroke-width="0.5pt" />
<circle cx="479.176" cy="201.020" r="1.000" fill="#0000ff" stroke="none" stroke-width="0.5pt" />
<circle cx="433.837" cy="299.772" r="1.000" fill="#0000ff" stroke="none" stroke-width="0.5pt" />
<circle cx="438.875" cy="276.789" r="1.000" fill="#0000ff" stroke="none" stroke-width="0.5pt" />
<circle cx="469.101" cy="227.529" r="1.000" fill="#0000ff" stroke="none" stroke-width="0.5pt" />
<circle cx="433.837" cy="288.962" r="1.000" fill="#0000ff" stroke="none" stroke-width="0.5pt" />
<circle cx="443.913" cy="279.748" r="1.000" fill="#0000ff" stroke="none" stroke-width="0.5pt" />
<circle cx="413.687" cy="322.522" r="1.000" fill="#0000ff" stroke="none" stroke-width="0.5pt" />
<circle cx="453.988" cy="268.373" r="1.000" fill="#0000ff" stroke="none" stroke-width="0.5pt" />
<circle cx="448.950" cy="274.061" r="1.000" fill="#0000ff" stroke="none" stroke-width="0.5pt" />
<circle cx="413.687" cy="337.656" r="1.000" fill="#0000ff" stroke="none" stroke-width="0.5pt" />
<circle cx="423.762" cy="311.147" r="1.000" fill="#0000ff" stroke="none" stroke-width="0.5pt" />
<circle cx="418.724" cy="303.863" r="1.000" fill="#0000ff" stroke="none" stroke-width="0.5pt" />
<circle cx="388.498" cy="337.990" r="1.000" fill="#0000ff" stroke="none" stroke-width="0.5pt" />
<circle cx="428.800" cy="275.193" r="1.000" fill="#0000ff" stroke="none" stroke-width="0.5pt" />
<circle cx="428.800" cy="292.488" r="1.000" fill="#0000ff" stroke="none" stroke-width="0.5pt" />
<circle cx="448.950" cy="274.061" r="1.000" fill="#0000ff" stroke="none" stroke-width="0.5pt" />
<circle cx="428.800" cy="311.945" r="1.000" fill="#0000ff" stroke="none" stroke-width="0.5pt" />
<circle cx="484.123" cy="184.547" r="1.000" fill="#0000ff" stroke="none" stroke-width="0.5pt" />
<circle cx="453.958" cy="248.924" r="1.000" fill="#0000ff" stroke="none" stroke-width="0.5pt" />
<circle cx="438.875" cy="276.789" r="1.000" fill="#0000ff" stroke="none" stroke-width="0.5pt" />
<circle cx="494.178" cy="186.149" r="1.000" fill="#0000ff" stroke="none" stroke-width="0.5pt" />
<circle cx="448.930" cy="265.419" r="1.000" fill="#0000ff" stroke="none" stroke-width="0.5pt" />
<circle cx="494.178" cy="209.930" r="1.000" fill="#0000ff" stroke="none" stroke-width="0.5pt" />
<circle cx="474.068" cy="221.860" r="1.000" fill="#0000ff" stroke="none" stroke-width="0.5pt" />
<circle cx="428.820" cy="292.482" r="1.000" fill="#0000ff" stroke="none" stroke-width="0.5pt" />
<circle cx="474.068" cy="224.022" r="1.000" fill="#0000ff" stroke="none" stroke-width="0.5pt" />
<circle cx="418.765" cy="312.500" r="1.000" fill="#0000ff" stroke="none" stroke-width="0.5pt" />
<circle cx="458.985" cy="243.239" r="1.000" fill="#0000ff" stroke="none" stroke-width="0.5pt" />
<circle cx="413.737" cy="328.995" r="1.000" fill="#0000ff" stroke="none" stroke-width="0.5pt" />
<circle cx="458.985" cy="279.991" r="1.000" fill="#0000ff" stroke="none" stroke-width="0.5pt" />
<circle cx="403.682" cy="340.365" r="1.000" fill="#0000ff" stroke="none" stroke-width="0.5pt" />
<circle cx="423.792" cy="302.491" r="1.000" fill="#0000ff" stroke="none" stroke-width="0.5pt" />
<circle cx="428.820" cy="305.454" r="1.000" fill="#0000ff" stroke="none" stroke-width="0.5pt" />
<circle cx="413.737" cy="352.776" r="1.000" fill="#0000ff" stroke="none" stroke-width="0.5pt" />
<circle cx="469.041" cy="214.574" r="1.000" fill="#0000ff" stroke="none" stroke-width="0.5pt" />
<circle cx="408.710" cy="334.680" r="1.000" fill="#0000ff" stroke="none" stroke-width="0.5pt" />
</g>
</g>
<g clip-path="url(#ID000000)">
<g>
<circle cx="183.122" cy="205.494" r="1.000" fill="#ff0000" stroke="none" stroke-width="0.5pt" />
<circle cx="210.687" cy="246.274" r="1.000" fill="#ff0000" stroke="none" stroke-width="0.5pt" />
<circle cx="210.687" cy="224.655" r="1.000" fill="#ff0000" stroke="none" stroke-width="0.5pt" />
<circle cx="167.187" cy="250.052" r="1.000" fill="#ff0000" stroke="none" stroke-width="0.5pt" />
<circle cx="152.973" cy="286.754" r="1.000" fill="#ff0000" stroke="none" stroke-width="0.5pt" />
<circle cx="198.197" cy="257.826" r="1.000" fill="#ff0000" stroke="none" stroke-width="0.5pt" />
<circle cx="152.973" cy="269.459" r="1.000" fill="#ff0000" stroke="none" stroke-width="0.5pt" />
<circle cx="152.973" cy="198.116" r="1.000" fill="#ff0000" stroke="none" stroke-width="0.5pt" />
<circle cx="182.261" cy="285.088" r="1.000" fill="#ff0000" stroke="none" stroke-width="0.5pt" />
<circle cx="183.984" cy="257.776" r="1.000" fill="#ff0000" stroke="none" stroke-width="0.5pt" />
<circle cx="183.984" cy="313.985" r="1.000" fill="#ff0000" stroke="none" stroke-width="0.5pt" />
<circle cx="198.197" cy="227.559" r="1.000" fill="#ff0000" stroke="none" stroke-width="0.5pt" />
<circle cx="152.973" cy="308.373" r="1.000" fill="#ff0000" stroke="none" stroke-width="0.5pt" />
<circle cx="212.410" cy="311.923" r="1.000" fill="#ff0000" stroke="none" stroke-width="0.5pt" />
<circle cx="182.261" cy="308.869" r="1.000" fill="#ff0000" stroke="none" stroke-width="0.5pt" />
<circle cx="212.410" cy="253.552" r="1.000" fill="#ff0000" stroke="none" stroke-width="0.5pt" />
<circle cx="212.410" cy="303.276" r="1.000" fill="#ff0000" stroke="none" stroke-width="0.5pt" />
<circle cx="152.973" cy="170.011" r="1.000" fill="#ff0000" stroke="none" stroke-width="0.5pt" />
<circle cx="182.261" cy="250.498" r="1.000" fill="#ff0000" stroke="none" stroke-width="0.5pt" />
<circle cx="183.984" cy="266.423" r="1.000" fill="#ff0000" stroke="none" stroke-width="0.5pt" />
<circle cx="212.410" cy="242.742" r="1.000" fill="#ff0000" stroke="none" stroke-width="0.5pt" />
<circle cx="182.261" cy="291.574" r="1.000" fill="#ff0000" stroke="none" stroke-width="0.5pt" />
<circle cx="196.474" cy="265.681" r="1.000" fill="#ff0000" stroke="none" stroke-width="0.5pt" />
<circle cx="170.201" cy="249.276" r="1.000" fill="#ff0000" stroke="none" stroke-width="0.5pt" />
<circle cx="171.924" cy="269.526" r="1.000" fill="#ff0000" stroke="none" stroke-width="0.5pt" />
<circle cx="200.350" cy="273.949" r="1.000" fill="#ff0000" stroke="none" stroke-width="0.5pt" />
<circle cx="155.127" cy="283.421" r="1.000" fill="#ff0000" stroke="none" stroke-width="0.5pt" />
<circle cx="185.276" cy="251.884" r="1.000" fill="#ff0000" stroke="none" stroke-width="0.5pt" />
<circle cx="171.063" cy="279.939" r="1.000" fill="#ff0000" stroke="none" stroke-width="0.5pt" />
<circle cx="185.276" cy="267.018" r="1.000" fill="#ff0000" stroke="none" stroke-width="0.5pt" />
<circle cx="185.276" cy="299.446" r="1.000" fill="#ff0000" stroke="none" stroke-width="0.5pt" />
<circle cx="183.984" cy="272.909" r="1.000" fill="#ff0000" stroke="none" stroke-width="0.5pt" />
<circle cx="154.266" cy="252.758" r="1.000" fill="#ff0000" stroke="none" stroke-width="0.5pt" />
<circle cx="183.984" cy="320.471" r="1.000" fill="#ff0000" stroke="none" stroke-width="0.5pt" />
<circle cx="183.984" cy="186.433" r="1.000" fill="#ff0000" stroke="none" stroke-width="0.5pt" />
<circle cx="212.410" cy="273.009" r="1.000" fill="#ff0000" stroke="none" stroke-width="0.5pt" />
<circle cx="196.474" cy="252.710" r="1.000" fill="#ff0000" stroke="none" stroke-width="0.5pt" />
<circle cx="196.474" cy="254.872" r="1.000" fill="#ff0000" stroke="none" stroke-width="0.5pt" />
<circle cx="183.553" cy="302.978" r="1.000" fill="#ff0000" stroke="none" stroke-width="0.5pt" />
<circle cx="200.350" cy="289.083" r="1.000" fill="#ff0000" stroke="none" stroke-width="0.5pt" />
<circle cx="229.207" cy="269.923" r="1.000" fill="#ff0000" stroke="none" stroke-width="0.5pt" />
<circle cx="171.924" cy="271.688" r="1.000" fill="#ff0000" stroke="none" stroke-width="0.5pt" />
<circle cx="200.350" cy="267.464" r="1.000" fill="#ff0000" stroke="none" stroke-width="0.5pt" />
<circle cx="185.276" cy="288.637" r="1.000" fill="#ff0000" stroke="none" stroke-width="0.5pt" />
<circle cx="185.276" cy="342.684" r="1.000" fill="#ff0000" stroke="none" stroke-width="0.5pt" />
<circle cx="214.133" cy="325.687" r="1.000" fill="#ff0000" stroke="none" stroke-width="0.5pt" />
<circle cx="197.336" cy="201.220" r="1.000" fill="#ff0000" stroke="none" stroke-width="0.5pt" />
<circle cx="156.850" cy="228.003" r="1.000" fill="#ff0000" stroke="none" stroke-width="0.5pt" />
<circle cx="185.276" cy="303.770" r="1.000" fill="#ff0000" stroke="none" stroke-width="0.5pt" />
<circle cx="263.607" cy="285.741" r="1.000" fill="#ff0000" stroke="none" stroke-width="0.5pt" />
<circle cx="263.607" cy="322.494" r="1.000" fill="#ff0000" stroke="none" stroke-width="0.5pt" />
<circle cx="228.053" cy="366.678" r="1.000" fill="#ff0000" stroke="none" stroke-width="0.5pt" />
<circle cx="228.053" cy="269.393" r="1.000" fill="#ff0000" stroke="none" stroke-width="0.5pt" />
<circle cx="228.053" cy="355.869" r="1.000" fill="#ff0000" stroke="none" stroke-width="0.5pt" />
<circle cx="241.327" cy="351.163" r="1.000" fill="#ff0000" stroke="none" stroke-width="0.5pt" />
<circle cx="241.327" cy="381.430" r="1.000" fill="#ff0000" stroke="none" stroke-width="0.5pt" />
<circle cx="225.684" cy="296.408" r="1.000" fill="#ff0000" stroke="none" stroke-width="0.5pt" />
<circle cx="293.468" cy="344.872" r="1.000" fill="#ff0000" stroke="none" stroke-width="0.5pt" />
<circle cx="195.815" cy="379.959" r="1.000" fill="#ff0000" stroke="none" stroke-width="0.5pt" />
<circle cx="224.732" cy="300.294" r="1.000" fill="#ff0000" stroke="none" stroke-width="0.5pt" />
<circle cx="209.089" cy="260.672" r="1.000" fill="#ff0000" stroke="none" stroke-width="0.5pt" />
<circle cx="195.815" cy="245.921" r="1.000" fill="#ff0000" stroke="none" stroke-width="0.5pt" />
<circle cx="179.698" cy="314.177" r="1.000" fill="#ff0000" stroke="none" stroke-width="0.5pt" />
<circle cx="208.616" cy="256.131" r="1.000" fill="#ff0000" stroke="none" stroke-width="0.5pt" />
<circle cx="192.973" cy="259.747" r="1.000" fill="#ff0000" stroke="none" stroke-width="0.5pt" />
<circle cx="192.973" cy="248.938" r="1.000" fill="#ff0000" stroke="none" stroke-width="0.5pt" />
<circle cx="196.293" cy="321.808" r="1.000" fill="#ff0000" stroke="none" stroke-width="0.5pt" />
<circle cx="208.616" cy="329.636" r="1.000" fill="#ff0000" stroke="none" stroke-width="0.5pt" />
<circle cx="208.616" cy="271.264" r="1.000" fill="#ff0000" stroke="none" stroke-width="0.5pt" />
<circle cx="192.973" cy="184.080" r="1.000" fill="#ff0000" stroke="none" stroke-width="0.5pt" />
<circle cx="196.293" cy="202.903" r="1.000" fill="#ff0000" stroke="none" stroke-width="0.5pt" />
<circle cx="236.112" cy="307.689" r="1.000" fill="#ff0000" stroke="none" stroke-width="0.5pt" />
<circle cx="89.157" cy="218.495" r="1.000" fill="#ff0000" stroke="none" stroke-width="0.5pt" />
<circle cx="121.868" cy="192.461" r="1.000" fill="#ff0000" stroke="none" stroke-width="0.5pt" />
<circle cx="102.431" cy="235.408" r="1.000" fill="#ff0000" stroke="none" stroke-width="0.5pt" />
<circle cx="89.157" cy="222.819" r="1.000" fill="#ff0000" stroke="none" stroke-width="0.5pt" />
<circle cx="105.751" cy="265.040" r="1.000" fill="#ff0000" stroke="none" stroke-width="0.5pt" />
<circle cx="118.074" cy="227.468" r="1.000" fill="#ff0000" stroke="none" stroke-width="0.5pt" />
<circle cx="121.868" cy="233.537" r="1.000" fill="#ff0000" stroke="none" stroke-width="0.5pt" />
<circle cx="102.431" cy="278.647" r="1.000" fill="#ff0000" stroke="none" stroke-width="0.5pt" />
<circle cx="89.157" cy="248.762" r="1.000" fill="#ff0000" stroke="none" stroke-width="0.5pt" />
<circle cx="212.410" cy="296.790" r="1.000" fill="#ff0000" stroke="none" stroke-width="0.5pt" />
<circle cx="118.074" cy="279.354" r="1.000" fill="#ff0000" stroke="none" stroke-width="0.5pt" />
<circle cx="89.157" cy="214.171" r="1.000" fill="#ff0000" stroke="none" stroke-width="0.5pt" />
<circle cx="145.096" cy="257.189" r="1.000" fill="#ff0000" stroke="none" stroke-width="0.5pt" />
<circle cx="210.037" cy="274.080" r="1.000" fill="#ff0000" stroke="none" stroke-width="0.5pt" />
<circle cx="141.301" cy="274.902" r="1.000" fill="#ff0000" stroke="none" stroke-width="0.5pt" />
<circle cx="212.410" cy="195.180" r="1.000" fill="#ff0000" stroke="none" stroke-width="0.5pt" />
<circle cx="222.079" cy="255.836" r="1.000" fill="#ff0000" stroke="none" stroke-width="0.5pt" />
<circle cx="210.705" cy="274.387" r="1.000" fill="#ff0000" stroke="none" stroke-width="0.5pt" />
<circle cx="243.696" cy="213.890" r="1.000" fill="#ff0000" stroke="none" stroke-width="0.5pt" />
<circle cx="243.696" cy="280.909" r="1.000" fill="#ff0000" stroke="none" stroke-width="0.5pt" />
<circle cx="245.402" cy="238.456" r="1.000" fill="#ff0000" stroke="none" stroke-width="0.5pt" />
<circle cx="243.696" cy="244.157" r="1.000" fill="#ff0000" stroke="none" stroke-width="0.5pt" />
<circle cx="243.696" cy="302.529" r="1.000" fill="#ff0000" stroke="none" stroke-width="0.5pt" />
<circle cx="245.402" cy="247.103" r="1.000" fill="#ff0000" stroke="none" stroke-width="0.5pt" />
<circle cx="212.410" cy="305.438" r="1.000" fill="#ff0000" stroke="none" stroke-width="0.5pt" />
<circle cx="243.696" cy="261.452" r="1.000" fill="#ff0000" stroke="none" stroke-width="0.5pt" />
<circle cx="243.696" cy="334.957" r="1.000" fill="#ff0000" stroke="none" stroke-width="0.5pt" />
<circle cx="245.402" cy="298.989" r="1.000" fill="#ff0000" stroke="none" stroke-width="0.5pt" />
<circle cx="212.410" cy="329.219" r="1.000" fill="#ff0000" stroke="none" stroke-width="0.5pt" />
<circle cx="212.410" cy="296.790" r="1.000" fill="#ff0000" stroke="none" stroke-width="0.5pt" />
<circle cx="265.882" cy="325.702" r="1.000" fill="#ff0000" stroke="none" stroke-width="0.5pt" />
<circle cx="256.212" cy="364.494" r="1.000" fill="#ff0000" stroke="none" stroke-width="0.5pt" />
<circle cx="220.374" cy="224.785" r="1.000" fill="#ff0000" stroke="none" stroke-width="0.5pt" />
<circle cx="212.410" cy="324.895" r="1.000" fill="#ff0000" stroke="none" stroke-width="0.5pt" />
</g>
</g>
  <g transform="translate(424.700,450.708)">
    <g transform="rotate(-0.0)">
      <text x="0.000" y="0.000" font-family="Helvetica" text-anchor="start" font-size="8.0pt" fill="#000000" >Field Separation (m)</text>
    </g>
  </g>
  <g transform="translate(186.700,444.705)">
    <g transform="rotate(-0.0)">
      <text x="0.000" y="0.000" font-family="Helvetica" text-anchor="end" font-size="8.0pt" fill="#000000" >Anatomical Distance (mm)</text>
    </g>
  </g>
  <g transform="translate(37.700,220.194)">
    <g transform="rotate(-90.0)">
      <text x="0.000" y="0.000" font-family="Helvetica" text-anchor="middle" font-size="8.0pt" fill="#000000" >Spike time peak offset (ms)</text>
    </g>
  </g>
<g clip-path="url(#ID000000)">
      <polyline fill="none" stroke="#0000ff" stroke-width="3.0pt" stroke-dasharray="none" points="392.100,347.404 485.650,215.806 "/>
<g>
</g>
</g>
<g clip-path="url(#ID000000)">
      <polyline fill="none" stroke="#ff0000" stroke-width="3.0pt" stroke-dasharray="none" points="255.480,300.602 126.270,238.758 "/>
<g>
</g>
</g>
    </g>
    <g>
      <polyline fill="none" stroke="#000000" stroke-width="0.5pt" stroke-dasharray="none" points="298.550,427.200 303.934,429.676 "/>
      <polyline fill="none" stroke="#000000" stroke-width="0.5pt" stroke-dasharray="none" points="368.713,408.204 374.096,410.680 "/>
      <polyline fill="none" stroke="#000000" stroke-width="0.5pt" stroke-dasharray="none" points="438.875,389.208 444.259,391.683 "/>
      <polyline fill="none" stroke="#000000" stroke-width="0.5pt" stroke-dasharray="none" points="509.038,370.212 514.421,372.687 "/>
      <polyline fill="none" stroke="#000000" stroke-width="0.5pt" stroke-dasharray="none" points="579.200,351.216 584.584,353.691 "/>
      <polyline fill="none" stroke="#000000" stroke-width="0.5pt" stroke-dasharray="none" points="298.550,427.200 579.200,351.216 "/>
  <g transform="translate(309.318,440.151)">
    <g transform="rotate(-0.0)">
      <text x="0.000" y="0.000" font-family="Helvetica" text-anchor="middle" font-size="8.0pt" fill="#000000" >-1</text>
    </g>
  </g>
  <g transform="translate(379.480,421.155)">
    <g transform="rotate(-0.0)">
      <text x="0.000" y="0.000" font-family="Helvetica" text-anchor="middle" font-size="8.0pt" fill="#000000" >-0.5</text>
    </g>
  </g>
  <g transform="translate(449.643,402.159)">
    <g transform="rotate(-0.0)">
      <text x="0.000" y="0.000" font-family="Helvetica" text-anchor="middle" font-size="8.0pt" fill="#000000" >0</text>
    </g>
  </g>
  <g transform="translate(519.805,383.163)">
    <g transform="rotate(-0.0)">
      <text x="0.000" y="0.000" font-family="Helvetica" text-anchor="middle" font-size="8.0pt" fill="#000000" >0.5</text>
    </g>
  </g>
  <g transform="translate(589.968,364.167)">
    <g transform="rotate(-0.0)">
      <text x="0.000" y="0.000" font-family="Helvetica" text-anchor="middle" font-size="8.0pt" fill="#000000" >1</text>
    </g>
  </g>
      <polyline fill="none" stroke="#000000" stroke-width="0.5pt" stroke-dasharray="none" points="298.550,427.200 291.534,429.100 "/>
      <polyline fill="none" stroke="#000000" stroke-width="0.5pt" stroke-dasharray="none" points="255.480,407.395 248.464,409.295 "/>
      <polyline fill="none" stroke="#000000" stroke-width="0.5pt" stroke-dasharray="none" points="212.410,387.590 205.394,389.490 "/>
      <polyline fill="none" stroke="#000000" stroke-width="0.5pt" stroke-dasharray="none" points="169.340,367.785 162.324,369.685 "/>
      <polyline fill="none" stroke="#000000" stroke-width="0.5pt" stroke-dasharray="none" points="126.270,347.980 119.254,349.880 "/>
      <polyline fill="none" stroke="#000000" stroke-width="0.5pt" stroke-dasharray="none" points="83.200,328.175 76.184,330.075 "/>
      <polyline fill="none" stroke="#000000" stroke-width="0.5pt" stroke-dasharray="none" points="298.550,427.200 83.200,328.175 "/>
  <g transform="translate(284.518,438.999)">
    <g transform="rotate(-0.0)">
      <text x="0.000" y="0.000" font-family="Helvetica" text-anchor="middle" font-size="8.0pt" fill="#000000" >-2</text>
    </g>
  </g>
  <g transform="translate(241.448,419.194)">
    <g transform="rotate(-0.0)">
      <text x="0.000" y="0.000" font-family="Helvetica" text-anchor="middle" font-size="8.0pt" fill="#000000" >-1</text>
    </g>
  </g>
  <g transform="translate(198.378,399.389)">
    <g transform="rotate(-0.0)">
      <text x="0.000" y="0.000" font-family="Helvetica" text-anchor="middle" font-size="8.0pt" fill="#000000" >0</text>
    </g>
  </g>
  <g transform="translate(155.308,379.584)">
    <g transform="rotate(-0.0)">
      <text x="0.000" y="0.000" font-family="Helvetica" text-anchor="middle" font-size="8.0pt" fill="#000000" >1</text>
    </g>
  </g>
  <g transform="translate(112.238,359.779)">
    <g transform="rotate(-0.0)">
      <text x="0.000" y="0.000" font-family="Helvetica" text-anchor="middle" font-size="8.0pt" fill="#000000" >2</text>
    </g>
  </g>
  <g transform="translate(69.168,339.975)">
    <g transform="rotate(-0.0)">
      <text x="0.000" y="0.000" font-family="Helvetica" text-anchor="middle" font-size="8.0pt" fill="#000000" >3</text>
    </g>
  </g>
      <polyline fill="none" stroke="#000000" stroke-width="0.5pt" stroke-dasharray="none" points="83.200,328.175 77.816,325.700 "/>
      <polyline fill="none" stroke="#000000" stroke-width="0.5pt" stroke-dasharray="none" points="83.200,274.128 77.816,271.652 "/>
      <polyline fill="none" stroke="#000000" stroke-width="0.5pt" stroke-dasharray="none" points="83.200,220.080 77.816,217.604 "/>
      <polyline fill="none" stroke="#000000" stroke-width="0.5pt" stroke-dasharray="none" points="83.200,166.032 77.816,163.556 "/>
      <polyline fill="none" stroke="#000000" stroke-width="0.5pt" stroke-dasharray="none" points="83.200,111.984 77.816,109.509 "/>
      <polyline fill="none" stroke="#000000" stroke-width="0.5pt" stroke-dasharray="none" points="83.200,328.175 83.200,111.984 "/>
  <g transform="translate(72.432,326.224)">
    <g transform="rotate(-0.0)">
      <text x="0.000" y="0.000" font-family="Helvetica" text-anchor="end" font-size="8.0pt" fill="#000000" >-0.1</text>
    </g>
  </g>
  <g transform="translate(72.432,272.176)">
    <g transform="rotate(-0.0)">
      <text x="0.000" y="0.000" font-family="Helvetica" text-anchor="end" font-size="8.0pt" fill="#000000" >-0.05</text>
    </g>
  </g>
  <g transform="translate(72.432,218.129)">
    <g transform="rotate(-0.0)">
      <text x="0.000" y="0.000" font-family="Helvetica" text-anchor="end" font-size="8.0pt" fill="#000000" >0</text>
    </g>
  </g>
  <g transform="translate(72.432,164.081)">
    <g transform="rotate(-0.0)">
      <text x="0.000" y="0.000" font-family="Helvetica" text-anchor="end" font-size="8.0pt" fill="#000000" >0.05</text>
    </g>
  </g>
  <g transform="translate(72.432,110.033)">
    <g transform="rotate(-0.0)">
      <text x="0.000" y="0.000" font-family="Helvetica" text-anchor="end" font-size="8.0pt" fill="#000000" >0.1</text>
    </g>
  </g>
    </g>
  </g>
</svg>
