<?xml version="1.0" standalone="no"?><!DOCTYPE svg PUBLIC "-//W3C//DTD SVG 1.1//EN" "http://www.w3.org/Graphics/SVG/1.1/DTD/svg11.dtd">
<svg preserveAspectRatio="xMinYMin meet" width="100%" height="100%" viewBox="0 0 723.000 1139.000"   version="1.1" xmlns="http://www.w3.org/2000/svg" xmlns:xlink="http://www.w3.org/1999/xlink">
  <desc>Matlab Figure Converted by PLOT2SVG written by Juerg Schwizer</desc>
  <rect x="0" y="0" width="723.000" height="1139.000" fill="#ffffff" stroke="none" />
  <g>
  <clipPath id="ID000000">
    <rect x="93.990" y="328.601" width="560.325" height="441.934"/>
  </clipPath>
      <polyline fill="#ffffff" fill-opacity="1.00" stroke="none" stroke-width="0.5pt" stroke-opacity="1.00" stroke-dasharray="none" points="93.990,770.534 654.315,770.534 654.315,328.601 93.990,328.601 "/>
      <polyline fill="#ffffff" fill-opacity="1.00" stroke="none" stroke-width="0.5pt" stroke-opacity="1.00" stroke-dasharray="none" points="93.990,328.601 654.315,328.601 654.315,328.601 93.990,328.601 "/>
      <polyline fill="#ffffff" fill-opacity="1.00" stroke="none" stroke-width="0.5pt" stroke-opacity="1.00" stroke-dasharray="none" points="93.990,770.534 93.990,770.534 93.990,328.601 93.990,328.601 "/>
    <g>
<g clip-path="url(#ID000000)">
      <polyline fill="#00ff00" fill-opacity="1.00" stroke="#000000" stroke-width="0.5pt" stroke-opacity="1.00" stroke-dasharray="none" points="591.170,568.605 592.332,565.876 592.485,563.004 592.128,560.086 590.190,557.853 588.270,555.786 587.783,552.324 583.387,553.202 581.679,551.010 579.769,548.531 576.401,550.295 574.097,548.127 571.349,548.035 568.476,547.495 566.797,551.714 563.896,551.062 561.074,551.432 557.881,551.862 557.080,555.077 555.495,557.250 555.237,560.116 553.669,562.227 555.112,565.165 553.875,567.389 554.288,569.793 557.747,571.510 558.750,573.219 559.114,575.135 559.759,577.034 561.682,577.971 562.155,580.294 564.747,580.025 565.855,581.927 567.931,581.842 569.904,581.251 571.529,583.800 573.383,581.983 575.561,583.394 577.278,582.213 579.493,582.210 581.914,582.010 581.959,578.864 586.160,579.758 587.343,577.671 588.890,575.751 590.291,573.605 591.512,571.224 591.170,568.605 "/>
</g>
<g clip-path="url(#ID000000)">
<g>
<circle cx="572.037" cy="568.605" r="1.000" fill="#000000" stroke="none" stroke-width="0.5pt" />
</g>
</g>
<g clip-path="url(#ID000000)">
      <polyline fill="none" stroke="#0071bc" stroke-width="1.0pt" stroke-dasharray="none" points="572.037,568.605 580.394,547.554 "/>
<g>
</g>
</g>
<g clip-path="url(#ID000000)">
<g>
<circle cx="572.037" cy="568.605" r="3.000" fill="none" stroke="#000000" stroke-width="0.5pt" />
</g>
</g>
<g clip-path="url(#ID000000)">
      <polyline fill="#00ff00" fill-opacity="1.00" stroke="#000000" stroke-width="0.5pt" stroke-opacity="1.00" stroke-dasharray="none" points="587.329,681.853 587.545,678.854 586.323,676.078 585.193,673.393 584.730,670.310 582.641,668.113 580.293,666.291 578.010,664.524 574.956,664.128 572.664,662.584 569.440,664.239 567.194,662.448 564.645,664.006 562.275,664.265 559.803,664.320 558.050,666.354 556.721,668.505 554.722,669.410 553.358,671.105 553.303,673.657 552.057,675.190 551.444,677.062 551.337,679.027 549.982,680.831 551.791,682.753 553.011,684.339 552.231,686.371 552.484,688.300 552.994,690.261 554.224,691.819 556.417,692.291 557.820,693.480 558.953,695.405 560.884,695.903 562.584,697.612 564.701,698.055 566.969,699.019 569.266,698.737 572.169,699.839 574.074,697.970 576.910,697.689 579.771,696.876 581.153,694.418 582.973,692.355 585.385,690.394 586.504,687.677 586.843,684.758 587.329,681.853 "/>
</g>
<g clip-path="url(#ID000000)">
<g>
<circle cx="565.242" cy="681.853" r="1.000" fill="#000000" stroke="none" stroke-width="0.5pt" />
</g>
</g>
<g clip-path="url(#ID000000)">
      <polyline fill="none" stroke="#d85218" stroke-width="1.0pt" stroke-dasharray="none" points="565.242,681.853 587.227,676.405 "/>
<g>
</g>
</g>
<g clip-path="url(#ID000000)">
<g>
<circle cx="565.242" cy="681.853" r="3.000" fill="none" stroke="#000000" stroke-width="0.5pt" />
</g>
</g>
<g clip-path="url(#ID000000)">
      <polyline fill="#00ff00" fill-opacity="1.00" stroke="#000000" stroke-width="0.5pt" stroke-opacity="1.00" stroke-dasharray="none" points="435.596,586.725 440.467,583.706 434.098,582.321 437.871,578.307 435.169,576.567 432.667,575.158 433.262,570.965 428.016,573.158 426.815,570.676 424.532,569.816 421.926,570.333 419.924,567.795 417.396,568.072 414.433,565.463 412.007,567.342 412.528,574.891 408.075,571.146 406.789,573.441 407.000,576.758 404.426,577.393 402.818,579.043 401.587,581.019 400.974,583.260 401.025,585.587 400.302,587.911 402.217,589.937 403.470,591.777 407.023,592.282 405.770,595.134 407.135,596.570 410.884,595.165 411.682,596.652 411.842,600.038 413.725,600.570 415.820,599.768 417.548,600.850 419.543,601.869 421.506,601.354 424.076,602.450 425.596,600.549 428.768,601.312 432.506,601.703 430.960,596.944 433.298,595.774 437.037,594.789 437.069,591.943 434.362,588.923 435.596,586.725 "/>
</g>
<g clip-path="url(#ID000000)">
<g>
<circle cx="418.020" cy="586.725" r="1.000" fill="#000000" stroke="none" stroke-width="0.5pt" />
</g>
</g>
<g clip-path="url(#ID000000)">
      <polyline fill="none" stroke="#ecb01f" stroke-width="1.0pt" stroke-dasharray="none" points="418.020,586.725 434.352,571.032 "/>
<g>
</g>
</g>
<g clip-path="url(#ID000000)">
<g>
<circle cx="418.020" cy="586.725" r="3.000" fill="none" stroke="#000000" stroke-width="0.5pt" />
</g>
</g>
<g clip-path="url(#ID000000)">
      <polyline fill="#00ff00" fill-opacity="1.00" stroke="#000000" stroke-width="0.5pt" stroke-opacity="1.00" stroke-dasharray="none" points="431.610,681.853 430.426,678.966 430.083,676.067 428.545,673.548 427.180,671.061 424.821,669.327 423.598,666.718 420.548,666.126 418.824,663.854 415.399,665.133 413.528,662.686 410.814,663.426 408.387,664.718 406.060,664.662 403.981,665.801 402.008,666.871 400.450,668.522 398.858,669.904 397.839,671.795 395.841,672.847 395.749,675.177 395.091,677.037 394.833,678.982 394.769,680.903 395.372,682.763 395.354,684.619 394.772,686.780 395.426,688.692 396.797,690.203 396.764,692.883 399.138,693.470 400.943,694.411 402.211,696.397 403.759,698.620 405.884,700.092 408.379,699.229 410.850,700.641 413.399,700.480 416.328,700.984 418.627,699.492 421.464,698.824 423.229,696.607 424.139,693.840 428.115,693.199 429.790,690.686 430.758,687.824 430.905,684.804 431.610,681.853 "/>
</g>
<g clip-path="url(#ID000000)">
<g>
<circle cx="408.960" cy="681.853" r="1.000" fill="#000000" stroke="none" stroke-width="0.5pt" />
</g>
</g>
<g clip-path="url(#ID000000)">
      <polyline fill="none" stroke="#7d2e8d" stroke-width="1.0pt" stroke-dasharray="none" points="408.960,681.853 431.583,682.960 "/>
<g>
</g>
</g>
<g clip-path="url(#ID000000)">
<g>
<circle cx="408.960" cy="681.853" r="3.000" fill="none" stroke="#000000" stroke-width="0.5pt" />
</g>
</g>
<g clip-path="url(#ID000000)">
      <polyline fill="#00ff00" fill-opacity="1.00" stroke="#000000" stroke-width="0.5pt" stroke-opacity="1.00" stroke-dasharray="none" points="354.515,645.614 355.421,642.762 352.282,640.665 352.038,638.057 351.007,635.669 350.147,633.034 345.985,633.445 346.211,629.335 343.519,628.638 340.977,628.061 338.286,628.537 335.872,629.160 333.680,629.556 332.131,633.249 329.967,631.915 328.542,633.386 326.204,633.062 325.817,635.679 324.277,636.624 322.974,637.896 322.885,639.888 321.112,641.063 320.930,642.913 321.079,644.734 319.203,646.619 320.622,648.377 320.520,650.370 320.996,652.294 320.131,655.283 322.068,656.601 325.007,656.506 325.782,658.826 327.058,661.040 329.038,662.306 331.336,662.693 333.609,663.786 336.107,664.407 338.577,663.911 341.286,663.971 343.369,662.315 345.606,661.072 349.036,660.937 351.377,659.165 351.546,655.878 353.121,653.630 356.061,651.598 356.664,648.633 354.515,645.614 "/>
</g>
<g clip-path="url(#ID000000)">
<g>
<circle cx="334.216" cy="645.614" r="1.000" fill="#000000" stroke="none" stroke-width="0.5pt" />
</g>
</g>
<g clip-path="url(#ID000000)">
      <polyline fill="none" stroke="#76ab2f" stroke-width="1.0pt" stroke-dasharray="none" points="334.216,645.614 355.650,652.936 "/>
<g>
</g>
</g>
<g clip-path="url(#ID000000)">
<g>
<circle cx="334.216" cy="645.614" r="3.000" fill="none" stroke="#000000" stroke-width="0.5pt" />
</g>
</g>
<g clip-path="url(#ID000000)">
      <polyline fill="#00ff00" fill-opacity="1.00" stroke="#000000" stroke-width="0.5pt" stroke-opacity="1.00" stroke-dasharray="none" points="280.245,595.785 280.763,592.921 280.151,590.120 278.405,587.757 276.879,585.475 276.201,582.575 273.392,581.393 272.166,578.558 268.393,579.507 265.574,579.942 263.611,578.418 261.180,578.810 258.918,579.193 256.656,579.085 254.690,580.367 252.748,581.293 251.729,583.655 250.909,585.655 248.769,586.104 247.265,587.404 246.443,589.200 246.509,591.283 245.738,592.993 245.988,594.882 245.198,596.740 245.534,598.618 247.533,599.930 246.778,602.200 247.574,603.953 247.965,606.193 249.589,607.475 251.348,608.512 252.783,610.200 253.813,614.031 256.524,613.265 258.861,614.086 261.452,615.457 264.288,615.991 267.523,616.687 269.095,613.343 271.968,612.743 274.668,611.496 276.233,609.020 278.960,607.327 280.018,604.496 280.956,601.669 280.804,598.653 280.245,595.785 "/>
</g>
<g clip-path="url(#ID000000)">
<g>
<circle cx="259.473" cy="595.785" r="1.000" fill="#000000" stroke="none" stroke-width="0.5pt" />
</g>
</g>
<g clip-path="url(#ID000000)">
      <polyline fill="none" stroke="#4cbded" stroke-width="1.0pt" stroke-dasharray="none" points="259.473,595.785 281.539,600.892 "/>
<g>
</g>
</g>
<g clip-path="url(#ID000000)">
<g>
<circle cx="259.473" cy="595.785" r="3.000" fill="none" stroke="#000000" stroke-width="0.5pt" />
</g>
</g>
<g clip-path="url(#ID000000)">
      <polyline fill="#00ff00" fill-opacity="1.00" stroke="#000000" stroke-width="0.5pt" stroke-opacity="1.00" stroke-dasharray="none" points="194.768,543.691 196.167,540.934 196.450,537.998 195.638,535.223 194.868,532.319 191.449,531.230 190.448,528.410 189.105,525.456 185.655,525.469 182.809,525.152 180.920,521.658 177.903,521.489 174.959,522.444 172.014,522.019 169.670,524.349 166.499,523.929 165.238,527.350 162.533,528.153 160.330,529.817 160.913,533.561 160.037,535.791 157.718,537.457 156.718,539.839 157.619,542.482 157.762,544.889 157.847,547.313 159.214,549.404 160.337,551.439 161.427,553.467 162.822,555.311 166.096,555.014 167.717,556.148 169.428,557.141 170.793,559.411 173.171,558.501 175.124,559.997 177.283,559.733 179.407,559.375 181.930,559.946 183.695,558.335 186.116,557.869 189.180,557.661 188.850,554.099 191.978,553.350 192.722,550.922 196.172,549.307 194.597,546.236 194.768,543.691 "/>
</g>
<g clip-path="url(#ID000000)">
<g>
<circle cx="175.669" cy="543.691" r="1.000" fill="#000000" stroke="none" stroke-width="0.5pt" />
</g>
</g>
<g clip-path="url(#ID000000)">
      <polyline fill="none" stroke="#a1132e" stroke-width="1.0pt" stroke-dasharray="none" points="175.669,543.691 184.845,522.983 "/>
<g>
</g>
</g>
<g clip-path="url(#ID000000)">
<g>
<circle cx="175.669" cy="543.691" r="3.000" fill="none" stroke="#000000" stroke-width="0.5pt" />
</g>
</g>
<g clip-path="url(#ID000000)">
      <polyline fill="#00ff00" fill-opacity="1.00" stroke="#000000" stroke-width="0.5pt" stroke-opacity="1.00" stroke-dasharray="none" points="287.199,498.391 287.548,495.529 286.809,492.765 285.911,490.062 284.343,487.685 283.028,485.156 280.604,483.568 278.248,482.131 276.011,480.612 273.138,480.553 270.699,479.796 268.050,480.678 265.679,480.791 263.464,481.769 261.348,482.531 259.326,483.433 258.091,485.583 256.195,486.477 255.441,488.599 254.647,490.414 253.584,491.982 253.408,493.926 252.492,495.591 252.126,497.445 252.435,499.317 252.190,501.253 253.609,502.787 253.084,505.053 254.360,506.565 255.241,508.365 256.020,510.512 258.101,511.184 259.318,513.367 261.605,513.422 263.342,515.737 265.701,515.335 268.135,516.950 270.847,517.606 273.645,517.545 276.169,516.459 278.225,514.621 281.369,514.006 282.997,511.603 284.775,509.353 287.120,507.234 287.312,504.156 287.356,501.228 287.199,498.391 "/>
</g>
<g clip-path="url(#ID000000)">
<g>
<circle cx="266.268" cy="498.391" r="1.000" fill="#000000" stroke="none" stroke-width="0.5pt" />
</g>
</g>
<g clip-path="url(#ID000000)">
      <polyline fill="none" stroke="#0071bc" stroke-width="1.0pt" stroke-dasharray="none" points="266.268,498.391 288.890,499.509 "/>
<g>
</g>
</g>
<g clip-path="url(#ID000000)">
<g>
<circle cx="266.268" cy="498.391" r="3.000" fill="none" stroke="#000000" stroke-width="0.5pt" />
</g>
</g>
<g clip-path="url(#ID000000)">
      <polyline fill="#00ff00" fill-opacity="1.00" stroke="#000000" stroke-width="0.5pt" stroke-opacity="1.00" stroke-dasharray="none" points="128.572,514.246 127.266,511.617 126.338,509.146 126.128,506.441 124.527,504.292 122.164,502.840 120.413,501.122 118.166,500.069 115.781,499.537 113.193,500.038 111.425,498.703 109.165,499.888 107.224,499.406 105.411,500.553 103.718,501.342 101.998,501.915 101.317,504.216 99.376,504.376 97.282,504.805 97.599,507.298 96.782,508.719 96.104,510.212 95.567,511.776 93.990,513.327 94.720,515.116 94.829,516.866 94.207,518.938 94.001,521.179 94.961,523.005 96.010,524.838 96.919,527.023 98.628,528.490 100.396,530.030 102.373,531.484 104.444,533.672 107.099,532.828 109.716,534.077 112.860,535.811 115.493,534.426 118.605,534.109 120.300,531.319 123.176,530.226 124.889,527.804 126.183,525.181 127.822,522.770 129.222,520.136 129.422,517.165 128.572,514.246 "/>
</g>
<g clip-path="url(#ID000000)">
<g>
<circle cx="107.721" cy="514.246" r="1.000" fill="#000000" stroke="none" stroke-width="0.5pt" />
</g>
</g>
<g clip-path="url(#ID000000)">
      <polyline fill="none" stroke="#d85218" stroke-width="1.0pt" stroke-dasharray="none" points="107.721,514.246 126.485,526.931 "/>
<g>
</g>
</g>
<g clip-path="url(#ID000000)">
<g>
<circle cx="107.721" cy="514.246" r="3.000" fill="none" stroke="#000000" stroke-width="0.5pt" />
</g>
</g>
<g clip-path="url(#ID000000)">
      <polyline fill="#00ff00" fill-opacity="1.00" stroke="#000000" stroke-width="0.5pt" stroke-opacity="1.00" stroke-dasharray="none" points="216.711,459.887 215.669,457.249 216.129,454.388 213.914,452.314 212.609,450.081 210.435,448.531 208.720,446.791 206.628,445.536 203.777,445.795 201.811,444.940 199.803,444.153 197.455,445.959 195.571,445.451 193.865,446.911 192.163,447.343 190.735,448.425 189.565,449.723 188.099,450.478 187.013,451.710 186.977,453.656 186.625,455.122 185.182,456.112 185.084,457.657 185.094,459.153 184.336,460.672 184.545,462.226 185.257,463.636 184.519,465.716 184.578,467.765 185.905,469.066 187.354,470.177 187.717,472.946 188.937,475.225 190.819,476.763 193.433,475.423 195.498,476.524 197.912,478.354 200.612,479.013 203.214,478.479 206.032,478.094 207.888,475.948 211.800,476.168 211.978,472.462 214.752,470.962 215.796,468.258 216.407,465.462 215.773,462.539 216.711,459.887 "/>
</g>
<g clip-path="url(#ID000000)">
<g>
<circle cx="196.054" cy="459.887" r="1.000" fill="#000000" stroke="none" stroke-width="0.5pt" />
</g>
</g>
<g clip-path="url(#ID000000)">
      <polyline fill="none" stroke="#ecb01f" stroke-width="1.0pt" stroke-dasharray="none" points="196.054,459.887 217.051,468.379 "/>
<g>
</g>
</g>
<g clip-path="url(#ID000000)">
<g>
<circle cx="196.054" cy="459.887" r="3.000" fill="none" stroke="#000000" stroke-width="0.5pt" />
</g>
</g>
<g clip-path="url(#ID000000)">
      <polyline fill="#00ff00" fill-opacity="1.00" stroke="#000000" stroke-width="0.5pt" stroke-opacity="1.00" stroke-dasharray="none" points="136.999,414.588 136.437,411.944 137.256,408.979 135.350,406.714 133.431,404.726 130.476,403.773 130.200,400.712 127.289,400.326 124.808,399.939 122.654,399.337 120.697,398.151 118.399,398.494 116.277,399.529 114.334,400.086 112.259,400.013 110.691,401.466 109.528,403.227 107.923,404.111 106.766,405.530 105.707,406.987 103.848,408.053 103.229,409.882 102.227,411.630 100.450,413.495 102.371,415.553 101.189,417.757 100.432,420.265 101.463,422.328 102.215,424.587 103.517,426.584 104.752,428.815 106.989,429.926 108.786,431.814 110.911,433.508 113.397,434.643 116.095,435.084 119.021,436.860 121.891,436.035 124.471,434.556 127.226,433.648 130.030,432.570 131.455,429.762 134.310,428.431 135.523,425.689 136.591,422.988 137.604,420.292 139.228,417.607 136.999,414.588 "/>
</g>
<g clip-path="url(#ID000000)">
<g>
<circle cx="116.780" cy="414.588" r="1.000" fill="#000000" stroke="none" stroke-width="0.5pt" />
</g>
</g>
<g clip-path="url(#ID000000)">
      <polyline fill="none" stroke="#7d2e8d" stroke-width="1.0pt" stroke-dasharray="none" points="116.780,414.588 133.113,430.281 "/>
<g>
</g>
</g>
<g clip-path="url(#ID000000)">
<g>
<circle cx="116.780" cy="414.588" r="3.000" fill="none" stroke="#000000" stroke-width="0.5pt" />
</g>
</g>
<g clip-path="url(#ID000000)">
      <polyline fill="#00ff00" fill-opacity="1.00" stroke="#000000" stroke-width="0.5pt" stroke-opacity="1.00" stroke-dasharray="none" points="650.904,613.904 653.725,612.666 653.478,611.449 652.536,610.503 650.762,610.205 654.315,606.166 649.562,608.686 651.233,604.787 650.237,603.464 649.212,601.710 646.535,605.430 645.998,599.169 643.992,598.233 641.666,597.011 640.644,601.424 637.549,598.890 636.078,600.687 634.392,601.930 632.456,602.996 631.588,605.030 624.301,603.689 625.863,607.427 626.019,610.145 629.739,612.915 627.422,615.049 630.288,616.796 625.863,620.381 629.484,621.500 631.349,622.943 635.255,622.280 635.704,624.326 638.266,623.695 640.360,622.860 641.849,622.502 643.163,621.922 644.225,622.611 645.533,624.017 646.804,623.508 647.334,621.221 647.307,618.997 648.477,619.281 649.764,619.331 649.301,617.683 652.511,618.640 651.734,616.965 650.397,615.515 651.710,614.872 650.904,613.904 "/>
</g>
<g clip-path="url(#ID000000)">
<g>
<circle cx="644.516" cy="613.904" r="1.000" fill="#000000" stroke="none" stroke-width="0.5pt" />
</g>
</g>
<g clip-path="url(#ID000000)">
      <polyline fill="none" stroke="#76ab2f" stroke-width="1.0pt" stroke-dasharray="none" points="644.516,613.904 624.286,603.717 "/>
<g>
</g>
</g>
<g clip-path="url(#ID000000)">
<g>
<circle cx="644.516" cy="613.904" r="3.000" fill="none" stroke="#000000" stroke-width="0.5pt" />
</g>
</g>
    </g>
    <g>
      <polyline fill="none" stroke="#262626" stroke-width="0.5pt" stroke-dasharray="none" points="150.755,770.534 150.755,766.115 "/>
      <polyline fill="none" stroke="#262626" stroke-width="0.5pt" stroke-dasharray="none" points="264.003,770.534 264.003,766.115 "/>
      <polyline fill="none" stroke="#262626" stroke-width="0.5pt" stroke-dasharray="none" points="377.251,770.534 377.251,766.115 "/>
      <polyline fill="none" stroke="#262626" stroke-width="0.5pt" stroke-dasharray="none" points="490.499,770.534 490.499,766.115 "/>
      <polyline fill="none" stroke="#262626" stroke-width="0.5pt" stroke-dasharray="none" points="603.746,770.534 603.746,766.115 "/>
      <polyline fill="none" stroke="#262626" stroke-width="0.5pt" stroke-dasharray="none" points="93.990,770.534 654.315,770.534 "/>
  <g transform="translate(150.755,787.373)">
    <g transform="rotate(-0.0)">
      <text x="0.000" y="0.000" font-family="Helvetica" text-anchor="middle" font-size="8.0pt" fill="#262626" >2.5</text>
    </g>
  </g>
  <g transform="translate(264.003,787.373)">
    <g transform="rotate(-0.0)">
      <text x="0.000" y="0.000" font-family="Helvetica" text-anchor="middle" font-size="8.0pt" fill="#262626" >3</text>
    </g>
  </g>
  <g transform="translate(377.251,787.373)">
    <g transform="rotate(-0.0)">
      <text x="0.000" y="0.000" font-family="Helvetica" text-anchor="middle" font-size="8.0pt" fill="#262626" >3.5</text>
    </g>
  </g>
  <g transform="translate(490.499,787.373)">
    <g transform="rotate(-0.0)">
      <text x="0.000" y="0.000" font-family="Helvetica" text-anchor="middle" font-size="8.0pt" fill="#262626" >4</text>
    </g>
  </g>
  <g transform="translate(603.746,787.373)">
    <g transform="rotate(-0.0)">
      <text x="0.000" y="0.000" font-family="Helvetica" text-anchor="middle" font-size="8.0pt" fill="#262626" >4.5</text>
    </g>
  </g>
      <polyline fill="none" stroke="#262626" stroke-width="0.5pt" stroke-dasharray="none" points="93.990,754.332 103.273,754.332 "/>
      <polyline fill="none" stroke="#262626" stroke-width="0.5pt" stroke-dasharray="none" points="93.990,709.033 103.273,709.033 "/>
      <polyline fill="none" stroke="#262626" stroke-width="0.5pt" stroke-dasharray="none" points="93.990,663.733 103.273,663.733 "/>
      <polyline fill="none" stroke="#262626" stroke-width="0.5pt" stroke-dasharray="none" points="93.990,618.434 103.273,618.434 "/>
      <polyline fill="none" stroke="#262626" stroke-width="0.5pt" stroke-dasharray="none" points="93.990,573.135 103.273,573.135 "/>
      <polyline fill="none" stroke="#262626" stroke-width="0.5pt" stroke-dasharray="none" points="93.990,527.836 103.273,527.836 "/>
      <polyline fill="none" stroke="#262626" stroke-width="0.5pt" stroke-dasharray="none" points="93.990,482.537 103.273,482.537 "/>
      <polyline fill="none" stroke="#262626" stroke-width="0.5pt" stroke-dasharray="none" points="93.990,437.237 103.273,437.237 "/>
      <polyline fill="none" stroke="#262626" stroke-width="0.5pt" stroke-dasharray="none" points="93.990,391.938 103.273,391.938 "/>
      <polyline fill="none" stroke="#262626" stroke-width="0.5pt" stroke-dasharray="none" points="93.990,346.639 103.273,346.639 "/>
      <polyline fill="none" stroke="#262626" stroke-width="0.5pt" stroke-dasharray="none" points="93.990,770.534 93.990,328.601 "/>
  <g transform="translate(82.784,757.332)">
    <g transform="rotate(-0.0)">
      <text x="0.000" y="0.000" font-family="Helvetica" text-anchor="end" font-size="8.0pt" fill="#262626" >-5.4</text>
    </g>
  </g>
  <g transform="translate(82.784,712.033)">
    <g transform="rotate(-0.0)">
      <text x="0.000" y="0.000" font-family="Helvetica" text-anchor="end" font-size="8.0pt" fill="#262626" >-5.2</text>
    </g>
  </g>
  <g transform="translate(82.784,666.733)">
    <g transform="rotate(-0.0)">
      <text x="0.000" y="0.000" font-family="Helvetica" text-anchor="end" font-size="8.0pt" fill="#262626" >-5</text>
    </g>
  </g>
  <g transform="translate(82.784,621.434)">
    <g transform="rotate(-0.0)">
      <text x="0.000" y="0.000" font-family="Helvetica" text-anchor="end" font-size="8.0pt" fill="#262626" >-4.8</text>
    </g>
  </g>
  <g transform="translate(82.784,576.135)">
    <g transform="rotate(-0.0)">
      <text x="0.000" y="0.000" font-family="Helvetica" text-anchor="end" font-size="8.0pt" fill="#262626" >-4.6</text>
    </g>
  </g>
  <g transform="translate(82.784,530.836)">
    <g transform="rotate(-0.0)">
      <text x="0.000" y="0.000" font-family="Helvetica" text-anchor="end" font-size="8.0pt" fill="#262626" >-4.4</text>
    </g>
  </g>
  <g transform="translate(82.784,485.537)">
    <g transform="rotate(-0.0)">
      <text x="0.000" y="0.000" font-family="Helvetica" text-anchor="end" font-size="8.0pt" fill="#262626" >-4.2</text>
    </g>
  </g>
  <g transform="translate(82.784,440.237)">
    <g transform="rotate(-0.0)">
      <text x="0.000" y="0.000" font-family="Helvetica" text-anchor="end" font-size="8.0pt" fill="#262626" >-4</text>
    </g>
  </g>
  <g transform="translate(82.784,394.938)">
    <g transform="rotate(-0.0)">
      <text x="0.000" y="0.000" font-family="Helvetica" text-anchor="end" font-size="8.0pt" fill="#262626" >-3.8</text>
    </g>
  </g>
  <g transform="translate(82.784,349.639)">
    <g transform="rotate(-0.0)">
      <text x="0.000" y="0.000" font-family="Helvetica" text-anchor="end" font-size="8.0pt" fill="#262626" >-3.6</text>
    </g>
  </g>
      <polyline fill="none" stroke="#262626" stroke-width="0.5pt" stroke-dasharray="none" points="93.990,770.534 93.990,770.534 "/>
    </g>
  </g>
</svg>
