<?xml version="1.0" encoding="utf-8" standalone="no"?><!DOCTYPE svg PUBLIC "-//W3C//DTD SVG 1.1//EN" "http://www.w3.org/Graphics/SVG/1.1/DTD/svg11.dtd">
<svg preserveAspectRatio="xMinYMin meet" width="100%" height="100%" viewBox="0 0 673.412 525.176"  version="1.1" xmlns="http://www.w3.org/2000/svg" xmlns:xlink="http://www.w3.org/1999/xlink">
  <desc>Matlab Figure Converted by PLOT2SVG written by Juerg Schwizer</desc>
  <g id="topgroup">
  <rect x="0" y="0" width="673.412" height="525.176" fill="#ffffff" stroke="none" />
  <g id ="ID000000">
  <clipPath id="ID000001">
    <rect x="134.481" y="39.388" width="428.019" height="428.019"/>
  </clipPath>
      <polygon fill="#ffffff" fill-opacity="1.00" stroke="none" stroke-width="0.5pt" stroke-opacity="1.00" stroke-dasharray="none" points="134.481,467.407 562.500,467.407 562.500,39.388 134.481,39.388 "/>
      <polygon fill="#ffffff" fill-opacity="1.00" stroke="none" stroke-width="0.5pt" stroke-opacity="1.00" stroke-dasharray="none" points="134.481,39.388 562.500,39.388 562.500,39.388 134.481,39.388 "/>
      <polygon fill="#ffffff" fill-opacity="1.00" stroke="none" stroke-width="0.5pt" stroke-opacity="1.00" stroke-dasharray="none" points="134.481,467.407 134.481,467.407 134.481,39.388 134.481,39.388 "/>
    <g>
<g id="ID000002" clip-path="url(#ID000001)" >
      <polyline fill="none" stroke="#0000ff" stroke-width="0.5pt" stroke-dasharray="none" points="445.197,220.097 444.373,218.956 443.590,218.058 443.235,217.237 443.029,216.400 442.385,215.823 441.561,215.522 440.911,215.234 440.247,215.108 439.502,215.327 439.089,215.075 438.747,214.511 438.265,214.273 437.753,214.001 437.205,213.986 436.575,213.636 436.096,214.136 435.552,214.339 435.273,215.036 434.451,214.890 434.101,215.465 432.851,215.337 433.512,216.650 432.539,216.990 432.875,217.879 431.911,218.529 431.972,219.379 431.525,220.341 432.161,221.069 432.520,221.819 432.312,222.984 432.262,224.274 433.362,224.422 433.856,225.246 434.053,226.926 435.272,226.388 435.916,227.650 436.924,227.335 437.851,227.477 438.773,227.301 439.626,226.855 440.896,227.600 441.642,226.704 443.144,227.043 443.502,225.606 444.011,224.524 444.755,223.647 443.794,221.874 445.217,221.282 445.197,220.097 "/>
<g>
</g>
</g>
<g id="ID000003" clip-path="url(#ID000001)" >
      <polyline fill="none" stroke="#0000ff" stroke-width="0.5pt" stroke-dasharray="none" points="437.616,218.956 443.144,227.043 "/>
<g>
</g>
</g>
<g id="ID000004" clip-path="url(#ID000001)" >
      <polyline fill="none" stroke="#0000ff" stroke-width="0.5pt" stroke-dasharray="none" points="491.341,258.051 491.327,256.651 490.886,255.319 490.135,254.172 488.692,253.505 488.372,252.485 488.158,251.317 487.128,250.894 486.264,250.460 484.838,251.252 484.149,251.073 483.833,249.572 482.955,249.996 482.223,249.735 481.495,250.153 480.672,249.696 479.720,249.320 479.275,250.484 478.709,251.092 477.058,250.261 477.074,251.726 475.729,251.864 475.670,253.076 474.750,253.830 475.551,255.178 474.252,256.068 473.703,257.274 474.560,258.348 475.243,259.281 474.513,260.876 475.396,261.690 475.607,263.032 476.565,263.674 477.205,264.725 478.073,265.505 478.939,266.458 480.012,266.978 481.067,268.331 482.335,267.666 483.550,267.601 485.051,268.516 486.005,267.120 486.914,266.045 488.494,266.104 488.929,264.442 490.142,263.712 491.036,262.567 491.356,261.054 491.259,259.473 491.341,258.051 "/>
<g>
</g>
</g>
<g id="ID000005" clip-path="url(#ID000001)" >
      <polyline fill="none" stroke="#0000ff" stroke-width="0.5pt" stroke-dasharray="none" points="482.032,256.651 485.051,268.516 "/>
<g>
</g>
</g>
<g id="ID000006" clip-path="url(#ID000001)" >
      <polyline fill="none" stroke="#0000ff" stroke-width="0.5pt" stroke-dasharray="none" points="432.846,288.956 433.385,288.053 433.028,287.122 432.343,286.370 432.198,285.523 430.945,285.357 431.008,284.426 430.159,284.306 429.473,284.205 429.093,283.722 428.625,283.356 427.965,283.642 427.496,283.335 426.956,283.918 426.464,283.473 425.958,283.532 425.195,282.831 424.707,283.278 424.184,283.606 423.246,283.432 422.606,283.845 422.384,284.667 422.380,285.546 421.910,286.142 421.081,286.744 421.686,287.667 421.107,288.483 420.931,289.396 421.359,290.177 421.361,291.133 421.410,292.178 421.977,292.885 422.485,293.651 423.309,293.962 424.028,294.346 424.562,295.283 425.414,295.355 426.164,296.254 427.047,295.504 428.053,296.785 428.730,295.473 429.775,295.783 430.931,295.922 430.941,294.049 431.762,293.611 432.404,292.896 433.236,292.254 432.482,290.717 432.757,289.862 432.846,288.956 "/>
<g>
</g>
</g>
<g id="ID000007" clip-path="url(#ID000001)" >
      <polyline fill="none" stroke="#0000ff" stroke-width="0.5pt" stroke-dasharray="none" points="426.842,288.053 430.931,295.922 "/>
<g>
</g>
</g>
<g id="ID000008" clip-path="url(#ID000001)" >
      <polyline fill="none" stroke="#0000ff" stroke-width="0.5pt" stroke-dasharray="none" points="383.118,253.261 383.099,251.942 383.664,250.542 381.630,249.717 381.298,248.663 380.216,248.092 380.162,246.886 379.516,246.111 377.958,246.672 377.018,246.818 376.904,245.224 376.138,244.933 375.238,245.569 374.519,245.989 373.768,244.842 372.865,244.327 371.948,244.310 371.202,244.890 369.912,244.512 370.285,246.714 368.140,245.769 367.821,246.981 366.890,247.748 367.043,249.110 365.983,250.040 365.904,251.309 366.758,252.511 365.623,253.927 365.680,255.303 365.210,257.080 366.591,257.838 367.278,258.971 367.922,260.207 368.426,261.860 369.590,262.599 370.543,264.026 372.069,263.626 373.357,264.014 374.664,263.172 376.097,264.513 377.739,265.244 378.662,263.293 380.108,263.014 381.217,261.982 382.196,260.801 382.465,259.004 383.412,257.893 383.820,256.413 383.700,254.801 383.118,253.261 "/>
<g>
</g>
</g>
<g id="ID000009" clip-path="url(#ID000001)" >
      <polyline fill="none" stroke="#0000ff" stroke-width="0.5pt" stroke-dasharray="none" points="374.355,251.942 377.739,265.244 "/>
<g>
</g>
</g>
<g id="ID000010" clip-path="url(#ID000001)" >
      <polyline fill="none" stroke="#0000ff" stroke-width="0.5pt" stroke-dasharray="none" points="367.945,317.580 366.914,316.316 367.551,315.112 366.466,314.199 365.128,313.680 364.927,312.781 364.323,312.156 363.718,311.602 363.053,311.185 362.668,310.308 362.033,309.761 361.233,309.683 360.585,308.816 359.763,308.402 358.882,308.293 357.886,307.832 357.191,308.852 355.431,307.114 355.225,309.091 353.811,308.950 353.609,310.421 351.603,310.284 351.613,311.859 351.305,313.124 349.883,314.121 350.759,315.658 350.393,317.002 350.573,318.355 350.174,319.947 351.172,321.021 351.295,322.582 352.771,323.045 352.681,325.135 354.088,325.444 354.582,327.416 355.913,327.831 357.355,327.514 358.600,327.749 359.869,328.081 361.146,327.866 362.582,328.250 363.568,326.916 364.934,326.687 365.016,324.320 366.793,324.505 366.970,322.780 367.084,321.270 367.736,320.185 367.826,318.850 367.945,317.580 "/>
<g>
</g>
</g>
<g id="ID000011" clip-path="url(#ID000001)" >
      <polyline fill="none" stroke="#0000ff" stroke-width="0.5pt" stroke-dasharray="none" points="359.546,316.316 354.582,327.416 "/>
<g>
</g>
</g>
<g id="ID000012" clip-path="url(#ID000001)" >
      <polyline fill="none" stroke="#0000ff" stroke-width="0.5pt" stroke-dasharray="none" points="245.060,45.045 244.439,44.653 244.938,44.279 244.581,44.001 245.031,43.435 244.077,43.585 243.996,43.309 243.616,43.338 243.767,42.729 243.561,42.518 243.244,42.565 242.957,42.670 242.852,41.766 242.529,41.837 242.200,41.600 241.867,41.662 241.565,41.841 241.434,42.376 241.035,42.283 240.910,42.673 240.776,42.988 240.223,42.960 239.973,43.260 239.986,43.698 240.231,44.148 239.950,44.465 239.981,44.838 240.111,45.185 240.044,45.586 239.973,46.046 240.582,46.073 240.427,46.664 240.458,47.214 240.843,47.344 241.137,47.594 241.470,47.766 241.683,48.582 242.129,48.558 242.553,48.325 243.008,48.667 243.391,48.346 243.727,48.012 243.973,47.581 244.148,47.135 244.385,46.836 245.049,46.914 244.956,46.298 245.484,46.085 245.114,45.467 245.060,45.045 "/>
<g>
</g>
</g>
<g id="ID000013" clip-path="url(#ID000001)" >
      <polyline fill="none" stroke="#0000ff" stroke-width="0.5pt" stroke-dasharray="none" points="242.452,44.653 243.008,48.667 "/>
<g>
</g>
</g>
<g id="ID000014" clip-path="url(#ID000001)" >
      <polyline fill="none" stroke="#0000ff" stroke-width="0.5pt" stroke-dasharray="none" points="298.738,88.031 298.700,87.055 298.859,86.061 298.223,85.228 297.520,84.566 297.337,83.712 297.370,82.597 296.158,82.638 295.299,82.593 294.864,82.023 294.328,81.576 293.980,80.251 293.191,80.260 292.450,79.747 291.591,79.102 290.841,79.857 289.683,78.921 289.138,80.098 288.383,80.590 287.234,80.613 286.126,80.974 285.459,81.899 285.555,83.295 284.792,84.167 284.867,85.378 284.988,86.511 284.164,87.661 283.786,88.978 284.328,90.124 284.261,91.543 285.023,92.542 286.033,93.229 286.206,94.818 287.141,95.597 288.007,96.542 289.451,95.926 290.337,96.827 291.389,97.458 292.531,97.322 293.737,97.795 294.893,97.450 295.924,96.742 296.496,95.230 297.491,94.724 298.332,93.929 298.766,92.730 299.868,92.061 298.738,90.120 298.785,89.055 298.738,88.031 "/>
<g>
</g>
</g>
<g id="ID000015" clip-path="url(#ID000001)" >
      <polyline fill="none" stroke="#0000ff" stroke-width="0.5pt" stroke-dasharray="none" points="292.249,87.055 293.737,97.795 "/>
<g>
</g>
</g>
<g id="ID000016" clip-path="url(#ID000001)" >
      <polyline fill="none" stroke="#0000ff" stroke-width="0.5pt" stroke-dasharray="none" points="173.249,155.107 173.033,154.582 173.158,154.072 172.986,153.596 173.049,153.030 172.719,152.640 172.457,152.236 171.892,152.175 172.050,151.236 171.410,151.410 171.321,150.473 170.884,150.171 170.377,150.146 169.886,150.090 169.342,149.505 168.959,150.479 168.506,150.599 167.613,149.776 167.173,150.253 166.802,150.780 166.503,151.345 165.893,151.644 165.796,152.354 164.917,152.705 165.771,153.676 164.545,154.192 165.064,154.934 164.901,155.687 164.975,156.437 164.969,157.275 165.560,157.774 165.712,158.605 166.186,159.177 167.103,159.029 167.429,159.800 168.041,160.039 168.735,159.833 169.334,159.766 169.922,160.393 170.484,159.794 170.910,159.096 171.495,159.149 171.775,158.456 172.278,158.263 172.573,157.759 173.266,157.633 172.959,156.683 172.568,155.907 173.340,155.677 173.249,155.107 "/>
<g>
</g>
</g>
<g id="ID000017" clip-path="url(#ID000001)" >
      <polyline fill="none" stroke="#0000ff" stroke-width="0.5pt" stroke-dasharray="none" points="169.762,154.582 164.969,157.275 "/>
<g>
</g>
</g>
<g id="ID000018" clip-path="url(#ID000001)" >
      <polyline fill="none" stroke="#0000ff" stroke-width="0.5pt" stroke-dasharray="none" points="241.899,119.388 242.501,118.458 242.051,117.504 241.126,116.802 240.786,116.062 239.976,115.657 240.639,114.170 239.711,113.941 239.374,113.103 238.662,112.784 237.694,113.239 237.558,111.208 236.695,111.380 235.910,111.328 235.182,112.031 234.265,111.051 233.581,111.696 233.267,112.987 232.495,113.075 232.035,113.731 230.476,113.255 230.589,114.566 229.461,114.945 229.214,115.940 228.842,116.896 229.307,117.978 228.880,118.969 229.052,119.971 228.779,121.144 229.599,121.893 229.692,123.030 229.661,124.469 230.842,124.715 231.079,126.210 232.673,125.257 233.127,126.659 233.904,127.707 235.056,126.410 235.950,127.049 236.885,126.908 238.141,127.998 238.709,126.351 239.739,126.205 239.907,124.593 241.116,124.562 241.594,123.578 241.521,122.273 241.665,121.268 242.634,120.575 241.899,119.388 "/>
<g>
</g>
</g>
<g id="ID000019" clip-path="url(#ID000001)" >
      <polyline fill="none" stroke="#0000ff" stroke-width="0.5pt" stroke-dasharray="none" points="235.714,118.458 238.141,127.998 "/>
<g>
</g>
</g>
<g id="ID000020" clip-path="url(#ID000001)" >
      <polyline fill="none" stroke="#0000ff" stroke-width="0.5pt" stroke-dasharray="none" points="540.308,314.655 539.717,313.178 540.127,311.727 539.948,310.282 538.334,309.470 537.943,308.277 536.904,307.588 535.953,306.999 535.002,306.568 533.987,306.437 532.873,306.883 532.146,306.647 531.270,307.509 530.648,307.224 530.012,307.462 529.348,307.370 528.805,307.855 527.925,307.454 527.301,307.853 526.826,308.478 524.967,307.698 525.001,309.014 524.204,309.649 524.304,310.784 523.252,311.534 523.101,312.625 523.528,313.699 522.592,314.971 523.172,316.010 523.598,317.047 523.489,318.490 523.454,320.160 524.708,320.597 525.849,320.930 526.256,322.633 527.317,323.220 528.470,323.471 529.404,326.243 530.797,324.550 532.055,324.516 533.337,324.393 534.519,323.810 535.936,323.670 537.118,322.882 538.127,321.813 539.084,320.666 539.994,319.426 541.083,318.184 540.657,316.290 540.308,314.655 "/>
<g>
</g>
</g>
<g id="ID000021" clip-path="url(#ID000001)" >
      <polyline fill="none" stroke="#0000ff" stroke-width="0.5pt" stroke-dasharray="none" points="530.484,313.178 541.083,318.184 "/>
<g>
</g>
</g>
<g id="ID000022" clip-path="url(#ID000001)" >
      <polyline fill="none" stroke="#0000ff" stroke-width="0.5pt" stroke-dasharray="none" points="528.152,380.403 528.558,379.135 528.455,377.822 527.323,376.810 527.119,375.642 526.009,375.005 525.456,374.143 524.598,373.627 523.287,373.921 522.766,373.279 521.864,373.493 521.288,372.980 520.523,373.361 519.894,372.897 519.247,373.384 518.620,373.502 517.790,373.010 517.205,373.506 516.049,372.992 515.550,373.775 514.368,373.817 513.445,374.368 513.525,375.653 512.353,376.281 512.821,377.567 511.332,378.507 511.607,379.743 511.050,381.106 511.743,382.226 513.002,382.911 511.600,385.304 513.460,385.355 514.481,385.868 514.598,387.707 515.636,388.274 516.872,388.173 517.634,389.811 518.804,390.248 520.028,390.258 521.216,389.910 522.324,389.359 523.720,389.670 524.144,387.645 525.994,388.310 525.872,386.083 527.318,385.749 527.554,384.281 528.394,383.231 529.156,382.021 528.152,380.403 "/>
<g>
</g>
</g>
<g id="ID000023" clip-path="url(#ID000001)" >
      <polyline fill="none" stroke="#0000ff" stroke-width="0.5pt" stroke-dasharray="none" points="519.723,379.135 525.994,388.310 "/>
<g>
</g>
</g>
<g id="ID000024" clip-path="url(#ID000001)" >
      <polyline fill="none" stroke="#0000ff" stroke-width="0.5pt" stroke-dasharray="none" points="481.124,338.015 480.706,336.733 480.669,335.520 479.997,334.471 478.952,333.735 478.944,332.567 477.749,332.253 477.084,331.671 476.245,331.407 475.472,331.212 474.609,331.449 474.170,330.578 473.526,330.078 472.768,330.744 472.070,330.271 471.257,329.848 470.482,330.005 469.535,329.871 469.193,331.028 467.815,330.581 467.203,331.369 466.096,331.791 465.883,332.957 464.973,333.777 464.651,334.926 463.725,336.068 464.061,337.373 464.021,338.683 464.276,339.959 465.029,340.989 464.763,342.687 465.713,343.577 466.170,344.997 467.706,344.924 468.192,346.599 469.373,346.976 470.624,346.852 471.667,348.059 472.949,349.282 474.146,347.860 475.483,348.051 476.737,347.626 477.517,346.188 478.799,345.796 479.258,344.251 479.881,343.069 480.782,342.106 480.425,340.427 481.476,339.447 481.124,338.015 "/>
<g>
</g>
</g>
<g id="ID000025" clip-path="url(#ID000001)" >
      <polyline fill="none" stroke="#0000ff" stroke-width="0.5pt" stroke-dasharray="none" points="472.604,336.733 472.949,349.282 "/>
<g>
</g>
</g>
<g id="ID000026" clip-path="url(#ID000001)" >
      <polyline fill="none" stroke="#0000ff" stroke-width="0.5pt" stroke-dasharray="none" points="497.089,439.650 496.035,438.801 497.058,437.957 495.737,437.489 495.275,436.994 495.098,436.403 494.365,436.262 493.887,436.047 493.450,435.873 492.970,435.873 492.427,436.225 492.258,435.621 491.790,436.336 491.524,436.056 491.211,435.925 490.816,435.567 490.562,435.989 489.752,435.006 489.577,435.671 489.352,436.108 488.632,436.003 487.810,436.038 487.648,436.665 487.126,437.126 486.827,437.751 487.086,438.474 486.781,439.151 486.197,439.994 486.458,440.734 487.427,441.061 486.555,442.518 486.444,443.772 487.852,443.422 487.846,444.827 488.621,445.126 489.263,445.730 490.027,446.069 490.788,446.789 491.658,446.395 492.386,445.562 493.397,446.461 493.986,445.487 494.840,445.328 495.528,444.769 495.666,443.565 496.227,442.961 496.697,442.249 497.117,441.478 496.447,440.330 497.089,439.650 "/>
<g>
</g>
</g>
<g id="ID000027" clip-path="url(#ID000001)" >
      <polyline fill="none" stroke="#0000ff" stroke-width="0.5pt" stroke-dasharray="none" points="491.449,438.801 490.788,446.789 "/>
<g>
</g>
</g>
<g id="ID000028" clip-path="url(#ID000001)" >
      <polyline fill="none" stroke="#0000ff" stroke-width="0.5pt" stroke-dasharray="none" points="453.624,397.202 453.484,396.413 453.957,395.574 453.198,394.938 452.459,394.486 452.161,393.928 452.151,393.128 451.562,392.815 450.818,392.844 450.105,393.088 449.987,392.173 449.422,392.310 448.973,392.117 448.489,392.385 448.052,392.472 447.657,392.727 447.079,392.296 446.384,391.954 446.104,392.610 445.644,392.901 445.165,393.222 444.637,393.572 444.164,394.045 443.939,394.693 443.967,395.411 443.710,396.063 444.290,396.719 444.147,397.374 443.416,398.335 443.778,398.997 443.535,400.091 444.351,400.413 444.575,401.298 445.457,401.298 445.663,402.485 446.456,402.505 447.099,402.951 447.894,402.271 448.567,403.293 449.325,403.244 450.022,402.876 450.655,402.414 451.579,402.574 451.943,401.628 452.419,400.979 453.229,400.637 453.572,399.826 453.791,398.970 453.405,397.951 453.624,397.202 "/>
<g>
</g>
</g>
<g id="ID000029" clip-path="url(#ID000001)" >
      <polyline fill="none" stroke="#0000ff" stroke-width="0.5pt" stroke-dasharray="none" points="448.378,396.413 451.579,402.574 "/>
<g>
</g>
</g>
<g id="ID000030" clip-path="url(#ID000001)" >
      <polyline fill="none" stroke="#0000ff" stroke-width="0.5pt" stroke-dasharray="none" points="409.310,351.474 408.853,350.872 409.158,350.293 407.850,350.094 408.169,349.520 407.651,349.332 407.292,349.144 407.086,348.862 406.775,348.725 406.512,348.554 406.037,348.947 405.855,348.718 405.653,348.372 405.383,348.091 405.134,348.777 404.912,348.855 404.610,348.663 404.360,348.753 403.925,348.561 403.950,349.129 403.189,348.768 403.283,349.335 402.828,349.479 402.551,349.804 402.966,350.340 402.287,350.646 402.439,351.087 402.276,351.560 401.709,352.265 402.663,352.357 402.207,353.226 402.676,353.484 403.437,353.275 402.911,354.880 403.568,354.761 404.051,354.855 404.477,355.114 404.961,355.061 405.426,355.185 406.000,355.872 406.429,355.283 406.953,355.210 407.764,355.600 408.128,354.999 408.557,354.544 409.276,354.328 409.036,353.322 409.870,353.027 408.530,351.858 409.310,351.474 "/>
<g>
</g>
</g>
<g id="ID000031" clip-path="url(#ID000001)" >
      <polyline fill="none" stroke="#0000ff" stroke-width="0.5pt" stroke-dasharray="none" points="405.307,350.872 409.276,354.328 "/>
<g>
</g>
</g>
<g id="ID000032" >
</g>
<g id="ID000033" >
</g>
<g id="ID000034" >
</g>
    </g>
    <g>
      <polyline fill="none" stroke="#000000" stroke-width="0.5pt" stroke-dasharray="none" points="195.627,467.407 195.627,462.188 "/>
      <polyline fill="none" stroke="#000000" stroke-width="0.5pt" stroke-dasharray="none" points="256.772,467.407 256.772,462.188 "/>
      <polyline fill="none" stroke="#000000" stroke-width="0.5pt" stroke-dasharray="none" points="317.918,467.407 317.918,462.188 "/>
      <polyline fill="none" stroke="#000000" stroke-width="0.5pt" stroke-dasharray="none" points="379.063,467.407 379.063,462.188 "/>
      <polyline fill="none" stroke="#000000" stroke-width="0.5pt" stroke-dasharray="none" points="440.209,467.407 440.209,462.188 "/>
      <polyline fill="none" stroke="#000000" stroke-width="0.5pt" stroke-dasharray="none" points="501.354,467.407 501.354,462.188 "/>
      <polyline fill="none" stroke="#000000" stroke-width="0.5pt" stroke-dasharray="none" points="134.481,467.407 562.500,467.407 "/>
      <polyline fill="none" stroke="#000000" stroke-width="0.5pt" stroke-dasharray="none" points="195.627,39.388 195.627,44.607 "/>
      <polyline fill="none" stroke="#000000" stroke-width="0.5pt" stroke-dasharray="none" points="256.772,39.388 256.772,44.607 "/>
      <polyline fill="none" stroke="#000000" stroke-width="0.5pt" stroke-dasharray="none" points="317.918,39.388 317.918,44.607 "/>
      <polyline fill="none" stroke="#000000" stroke-width="0.5pt" stroke-dasharray="none" points="379.063,39.388 379.063,44.607 "/>
      <polyline fill="none" stroke="#000000" stroke-width="0.5pt" stroke-dasharray="none" points="440.209,39.388 440.209,44.607 "/>
      <polyline fill="none" stroke="#000000" stroke-width="0.5pt" stroke-dasharray="none" points="501.354,39.388 501.354,44.607 "/>
      <polyline fill="none" stroke="#000000" stroke-width="0.5pt" stroke-dasharray="none" points="134.481,39.388 562.500,39.388 "/>
  <g transform="translate(134.481,488.462)">
    <g transform="rotate(-0.0)">
      <text x="0.000" y="0.000" font-family="Helvetica" text-anchor="middle" font-size="11pt" fill="#000000" >1.5</text>
    </g>
  </g>
  <g transform="translate(195.627,488.462)">
    <g transform="rotate(-0.0)">
      <text x="0.000" y="0.000" font-family="Helvetica" text-anchor="middle" font-size="11pt" fill="#000000" >2</text>
    </g>
  </g>
  <g transform="translate(256.772,488.462)">
    <g transform="rotate(-0.0)">
      <text x="0.000" y="0.000" font-family="Helvetica" text-anchor="middle" font-size="11pt" fill="#000000" >2.5</text>
    </g>
  </g>
  <g transform="translate(317.918,488.462)">
    <g transform="rotate(-0.0)">
      <text x="0.000" y="0.000" font-family="Helvetica" text-anchor="middle" font-size="11pt" fill="#000000" >3</text>
    </g>
  </g>
  <g transform="translate(379.063,488.462)">
    <g transform="rotate(-0.0)">
      <text x="0.000" y="0.000" font-family="Helvetica" text-anchor="middle" font-size="11pt" fill="#000000" >3.5</text>
    </g>
  </g>
  <g transform="translate(440.209,488.462)">
    <g transform="rotate(-0.0)">
      <text x="0.000" y="0.000" font-family="Helvetica" text-anchor="middle" font-size="11pt" fill="#000000" >4</text>
    </g>
  </g>
  <g transform="translate(501.354,488.462)">
    <g transform="rotate(-0.0)">
      <text x="0.000" y="0.000" font-family="Helvetica" text-anchor="middle" font-size="11pt" fill="#000000" >4.5</text>
    </g>
  </g>
  <g transform="translate(562.500,488.462)">
    <g transform="rotate(-0.0)">
      <text x="0.000" y="0.000" font-family="Helvetica" text-anchor="middle" font-size="11pt" fill="#000000" >5</text>
    </g>
  </g>
      <polyline fill="none" stroke="#000000" stroke-width="0.5pt" stroke-dasharray="none" points="134.481,396.071 138.761,396.071 "/>
      <polyline fill="none" stroke="#000000" stroke-width="0.5pt" stroke-dasharray="none" points="134.481,324.734 138.761,324.734 "/>
      <polyline fill="none" stroke="#000000" stroke-width="0.5pt" stroke-dasharray="none" points="134.481,253.398 138.761,253.398 "/>
      <polyline fill="none" stroke="#000000" stroke-width="0.5pt" stroke-dasharray="none" points="134.481,182.061 138.761,182.061 "/>
      <polyline fill="none" stroke="#000000" stroke-width="0.5pt" stroke-dasharray="none" points="134.481,110.725 138.761,110.725 "/>
      <polyline fill="none" stroke="#000000" stroke-width="0.5pt" stroke-dasharray="none" points="134.481,467.407 134.481,39.388 "/>
      <polyline fill="none" stroke="#000000" stroke-width="0.5pt" stroke-dasharray="none" points="562.500,396.071 558.220,396.071 "/>
      <polyline fill="none" stroke="#000000" stroke-width="0.5pt" stroke-dasharray="none" points="562.500,324.734 558.220,324.734 "/>
      <polyline fill="none" stroke="#000000" stroke-width="0.5pt" stroke-dasharray="none" points="562.500,253.398 558.220,253.398 "/>
      <polyline fill="none" stroke="#000000" stroke-width="0.5pt" stroke-dasharray="none" points="562.500,182.061 558.220,182.061 "/>
      <polyline fill="none" stroke="#000000" stroke-width="0.5pt" stroke-dasharray="none" points="562.500,110.725 558.220,110.725 "/>
      <polyline fill="none" stroke="#000000" stroke-width="0.5pt" stroke-dasharray="none" points="562.500,467.407 562.500,39.388 "/>
  <g transform="translate(125.921,472.172)">
    <g transform="rotate(-0.0)">
      <text x="0.000" y="0.000" font-family="Helvetica" text-anchor="end" font-size="11pt" fill="#000000" >-5.5</text>
    </g>
  </g>
  <g transform="translate(125.921,400.835)">
    <g transform="rotate(-0.0)">
      <text x="0.000" y="0.000" font-family="Helvetica" text-anchor="end" font-size="11pt" fill="#000000" >-5</text>
    </g>
  </g>
  <g transform="translate(125.921,329.499)">
    <g transform="rotate(-0.0)">
      <text x="0.000" y="0.000" font-family="Helvetica" text-anchor="end" font-size="11pt" fill="#000000" >-4.5</text>
    </g>
  </g>
  <g transform="translate(125.921,258.162)">
    <g transform="rotate(-0.0)">
      <text x="0.000" y="0.000" font-family="Helvetica" text-anchor="end" font-size="11pt" fill="#000000" >-4</text>
    </g>
  </g>
  <g transform="translate(125.921,186.826)">
    <g transform="rotate(-0.0)">
      <text x="0.000" y="0.000" font-family="Helvetica" text-anchor="end" font-size="11pt" fill="#000000" >-3.5</text>
    </g>
  </g>
  <g transform="translate(125.921,115.489)">
    <g transform="rotate(-0.0)">
      <text x="0.000" y="0.000" font-family="Helvetica" text-anchor="end" font-size="11pt" fill="#000000" >-3</text>
    </g>
  </g>
  <g transform="translate(125.921,44.153)">
    <g transform="rotate(-0.0)">
      <text x="0.000" y="0.000" font-family="Helvetica" text-anchor="end" font-size="11pt" fill="#000000" >-2.5</text>
    </g>
  </g>
      <polyline fill="none" stroke="#000000" stroke-width="0.5pt" stroke-dasharray="none" points="134.481,467.407 134.481,463.127 "/>
      <polyline fill="none" stroke="#000000" stroke-width="0.5pt" stroke-dasharray="none" points="134.481,467.407 134.481,467.407 "/>
    </g>
  </g>
  </g>
</svg>
